<?xml version="1.0" encoding="utf-8"?>
<!-- Generator: Adobe Illustrator 13.0.0, SVG Export Plug-In . SVG Version: 6.00 Build 14948)  -->
<!DOCTYPE svg PUBLIC "-//W3C//DTD SVG 1.1//EN" "http://www.w3.org/Graphics/SVG/1.1/DTD/svg11.dtd">
<svg version="1.1" xmlns="http://www.w3.org/2000/svg" xmlns:xlink="http://www.w3.org/1999/xlink" x="0px" y="0px"
	 width="832.593px" height="555.682px" viewBox="0 0 832.593 555.682" enable-background="new 0 0 832.593 555.682"
	 xml:space="preserve">
<g id="Trick_names">
	<g>
		<g>
			<text transform="matrix(1 0 0 1 96.0005 423.3657)" font-family="'ArialMT'" font-size="12">Handstand</text>
		</g>
	</g>
	<g>
		<g>
			<text transform="matrix(1 0 0 1 652.0005 490.3657)" font-family="'ArialMT'" font-size="12">Jump</text>
		</g>
	</g>
	<g>
		<g>
			<text transform="matrix(1 0 0 1 645.0005 72.3657)" font-family="'ArialMT'" font-size="12">Dash</text>
		</g>
	</g>
	<g>
		<g>
			<text transform="matrix(1 0 0 1 319.0005 136.3657)" font-family="'ArialMT'" font-size="12">Blanche</text>
		</g>
	</g>
	<g>
		<g>
			<text transform="matrix(1 0 0 1 82.0005 90.3657)" font-family="'ArialMT'" font-size="12">Arabian</text>
		</g>
	</g>
</g>
<g id="Parkour_silhouettes">
	<path d="M0.061,175.463c0.709-6.666,17.413-8.822,18.742-8.822c-0.905-2.004-1.873-2.392-1.291-2.908
		c0.581-0.517,1.097,1.873,5.233,2.973c4.137,1.098,12.021-1.937,16.932-3.424c4.912-1.488,15.963-2.329,33.347-1.423
		c13.766-7.757,21.973-10.688,39.292-11.184c13.507-0.387,14.733,5.948,37.676,5.624c22.944-0.325,35.931-4.139,42.136-10.794
		c6.204-6.656,8.985-11.425,4.979-24.09c-4.006-12.667-2.879-58.706-1.329-64.356c1.549-5.649,7.751-16.837,9.524-19.938
		c-2.56-3.197-1.106-4.54-1.882-6.202c-0.776-1.662-6.95-8.043-7.365-13.028c-0.415-4.984-1.329-16.906,6.314-17.819
		c7.643-0.914,11.801,7.392,12.835,9.138c3.904,6.604,2.782,9.304,4.901,11.962c3.655,1.247,7.393,3.406,8.307,6.397
		c0.914,2.99-2.243,6.521-2.616,9.844c-0.375,3.322,6.217,12.142,5.066,22.139c-0.664,5.773-3.613,7.892-4.486,8.432
		c0.914,2.036,4.652,11.257,5.69,16.034c2.077-0.541,3.201-0.681,5.275,2.284c0.872,1.246-1.453,4.195-1.205,4.445
		c2.991,0.332,3.315,0.428,7.021,7.726c1.413,2.782-0.026,6.788,0.416,10.05c0.414,3.074,11.964,18.599,13.792,22.64
		c1.828,4.042,4.319,9.802,4.818,11.465c0.499,1.661,2.602,9.968,2.215,11.796c-0.388,1.827-4.151,5.425-4.873,7.863
		c-0.721,2.438-0.721,5.65-1.719,7.09c0.224,3.157-1.271,9.138-3.432,13.678c-2.16,4.541-5.758,8.142-7.697,11.797
		c-1.939,3.655-7.477,18.717-13.292,22.429c-5.814,3.712-17.719,5.374-20.435,6.756c-2.715,1.384-12.02,9.858-38.107,10.58
		c-0.72,4.707-1.859,9.688-6.758,9.8c-9.636,0.221-16.834-8.474-19.161-8.474c-1.217,1.771-12.295,12.96-14.732,13.957
		c-2.435,0.997-6.2,0.997-8.417,0.221c0.375,0.498,1.205,1.329,2.243,1.703c-3.406-0.456-6.271-1.537-9.429-3.156
		c0.292,1.122,1.912,3.489,4.237,4.693c-4.111-0.789-8.639-6.147-9.013-7.145c0,1.289,1.081,2.908,2.659,4.112
		c-2.202-0.789-4.61-3.696-5.316-5.607c-0.707-1.91-3.365-3.904-4.112-5.109c-0.832,0.956-1.704,2.658-1.33,3.864
		c-1.87-1.704-2.45-7.395-2.45-8.682c-2.7,0.291-4.32-2.866-3.946-14.081c0.373-11.214,3.82-22.969,14.247-24.589
		c0.083-0.099,0.567-0.875-0.291-1.08c-12.877-3.074-13.107-3.754-14.871-3.988c-2.202-0.291-3.554,5.637-8.141,5.441
		c-4.901-0.207-8.349-4.611-12.211-5.525c-3.863-0.913-16.906-2.575-19.023-2.326c-2.119,0.25-5.649,3.822-7.477,4.03
		c-1.828,0.208-11.755,0.332-14.455-0.79c-2.699-1.121-3.448-5.15-3.448-5.482c-0.541,0.458-3.281,2.617-6.271,2.949
		c-2.991,0.332-15.867-0.042-19.232-2.077C4.782,185.239-0.631,181.972,0.061,175.463z"/>
	<path d="M493.694,133.506c-0.887-2.658-6.646-6.646-8.86-12.85c-0.591-10.484-3.251-45.042-3.693-52.427
		c-0.415-6.929-5.316-20.527-6.203-23.925c-0.886-3.397-0.59-12.406-2.51-16.984c-1.921-4.579-12.553-12.553-24.221-17.279
		c-11.669-4.726-31.752-2.954-37.364-3.101c-5.613-0.148-18.608-3.249-25.403-3.988c-6.793-0.738-36.387,3.282-39.062,7.533
		c-0.845,1.341-8.418,1.106-9.009,0.369c-3.396-4.726-8.861-4.726-9.895-2.584c-5.834-4.727-9.009-3.102-9.526-0.59
		c-3.027-1.921-5.833-0.296-6.122,1.444c-0.326,1.972,5.729,7.947,10.532,11.642c-5.912,3.695-24.206-6.653-28.086-2.772
		c-2.326,2.327-1.294,10.902,2.956,17.186c-13.003,0.465-7.332,17.413-0.781,24.918c6.551,7.507,14.194,11.601,22.656,16.104
		c8.462,4.504,17.403,17.427,23.064,17.332c8.052-0.136,11.191-0.682,29.614,3.002c19.948,3.989,19.108,16.786,19.79,18.289
		c0.683,1.5,2.729,0.682,4.368,2.183c-0.137,2.593,9.553,19.38,9.007,21.29c-0.489,1.71-1.229,7.507,3.138,9.554
		c-3.002,3.547-0.545,7.778,2.458,8.598c-3.002,2.593-0.545,21.701-1.363,24.84c-0.82,3.139-4.232,3.139-6.415,5.323
		c-3.549-4.641-15.422-4.368-20.609-1.638c1.365-8.325,13.103-10.236,17.333-8.053c-1.501-6.824-8.325-4.777-9.963-4.095
		c0-0.682-0.135-1.364,3.548-1.773c-3.412-5.733-14.465,6.824-16.513,12.009c-0.682-5.458,4.503-8.87,4.23-10.099
		c-0.272-1.228-3.821,0.41-5.322,2.73c-9.144-2.319-9.008,8.053-7.779,12.966c-0.546-1.912-6.961-3.14-10.1-2.321
		c-12.01-5.185-40.87-4.597-43.946-6.142c-4.926-2.472-5.958-5.79-8.496-9.121c-2.539-3.333-6.771-2.715-6.346-1.904
		c-2.105-1.163-4.089-1.508-5.236,0.08c-6.737-3.682-5.673,1.729-4.679,3.253c-2.125,1.159-2.539,2.697-0.799,5.905
		c0.827,1.524,3.942,5.106,4.386,6.436c0.443,1.329-0.444,1.994,0.387,4.154c2.127,5.529,10.967,10.411,13.348,11.021
		c2.381,0.608,10.769-0.052,11.028,0.19c0.26,0.242,0.123,0.278,0.27,0.418c13.069,0.775,22.152,5.207,26.029,7.089
		c3.876,1.883,9.748,1.994,11.519,2.769c1.773,0.775,8.861,4.542,13.514,10.08c0.793,17.459,17.021,29.758,21.376,31.457
		c5.558,2.166,13.924,1.509,17.002,1.44c2.437-0.056,7.366-2.492,8.197-2.825c0.83-0.332,13.624,0.997,15.064,0.997
		c1.439,0,1.549-2.326,1.328-3.71c0.887-1.273,6.929-3.463,7.629-3.374c2.051-0.156,2.021-0.588,2.236-0.912
		c1.049,0.017,1.635-0.886,1.635-1.733c0-1.034,2.069-0.59,2.956-2.805c0.887-2.215,0.737-7.236,0.295-11.372
		c33.377-16.837,46.226-58.631,47.556-63.356C495.059,160.041,494.58,136.164,493.694,133.506z M317.21,46.815
		c7.975,0.887,13.882,5.021,14.473,8.861C325.186,54.791,320.755,49.031,317.21,46.815z M426.941,69.263
		c-4.432,0.443-26.141-0.443-29.685-2.658c-3.545-2.215-15.064-19.938-19.052-21.267c3.987-1.329,42.976,2.216,46.077,5.76
		C427.996,55.342,427.826,66.605,426.941,69.263z"/>
	<path d="M801.417,213.873c2.531,4.113,7.536,16.763,7.958,20.919c0.422,4.156,4.093,9.645,3.569,10.625
		c-0.521,0.981-1.216,1.99-1.059,2.844c-1.154-0.049-4.539,1.199-3.672,2.538c-1.465,0.185-3.773,2.467-4.397,3.378
		c-0.043,0.714,0.221,0.462,0.517,0.781c-6.631,4.136-11.651,3.47-10.771,5.857c0.674,1.819,5.424,0.839,6.588,0.195
		c-2.541,2.657-7.117,6.879-3.771,7.015c0.016,1.611,2.151,4.914,12.984-4.936c-3.432,3.487-6.815,6.206-5.349,7.451
		c1.465,1.245,9.495-4.047,11.007-6.37c-0.6,2.389,1.115,1.404-1.146,5.053c-0.291,1.479,2.598,2.98,8.062-6.153
		c-0.578,3.524,2.612,1.553,3.689,0.451c1.075-1.104,5.38-7.268,6.305-11.996c0.923-4.726,1.628-19.76-3.244-36.22
		c-4.87-16.459-7.251-22.09-9.048-24.603c-1.796-2.512-3.196-1.871-4.632-3.976c-1.438-2.104-21.824-35.601-24.358-40.54
		c-2.533-4.937-6.625-22.301-8.011-25.65c-1.383-3.349-5.335-6.217-5.848-8.97c-0.514-2.75,6.318-1.747,7.288-3.162
		c0.97-1.415,0.535-7.313-1.425-8.656c-1.958-1.343-5.675,0.109-7.163-0.752c-1.489-0.861-2.988-3.81-3.949-5.908
		c-0.96-2.099-0.886-7.807-2.055-13.568c-1.171-5.761-3.142-11.753-2.612-12.99c0.528-1.237,1.825-2.428,1.694-3.637
		c1.862,0.316,3.603,1.511,4.101,2.651c0.071-2.67-12.678-13.011-19.034-10.971c1.973-2.646,5.288-4.213,6.885-3.277
		c-3.562-1.802-10.613,0.081-12.412,0.606c-1.802,0.526-12.359-3.673-17.469-2.057c4.167,0.457,5.276,2.337,4.754,3.1
		c-0.521,0.761-14.323,1.057-16.917,3.439c3.424-1.493,4.441,1.923,3.593,2.461s-5.442,1.869-7.084,4.263
		c1.891-0.27,2.328,1.263,2.264,1.64c-0.063,0.377-3.674,5.393-3.166,9.474c0.508,4.083,1.299,8.997,0.865,10.406
		c-0.435,1.41-0.818,3.064,0.028,3.539c-0.229-1.224,0.625-3.091,1.954-2.073c-0.746,1.087,0.175,1.612,0.536,1.86
		c-0.426-0.933,1.568-2.443,2.15-2.045c0.579,0.398,2.437,1.648,2.288,2.421c-0.971,4.989-3.113,8.426-2.006,9.612
		c1.107,1.185,2.946,0.526,3.55,1.045c0.602,0.521,0.726,4.896,0.879,5.27c0.152,0.373,0.554,0.727,0.841,1.244
		c0.287,0.515,0.755,5.743,3.411,7.778c2.658,2.036,7.192,2.265,10.484,0.575c1.006-0.377,3.331,5.41,2.103,7.202
		c-0.548,0.798-3.936,2.315-6.957,7.813c-3.025,5.5-1.868,6.613-3.825,10.711c-1.955,4.098-10.548,13.672-12.869,15.814
		c-2.322,2.141-17.285,10.12-21.395,9.114c-4.11-1.006-2.528-4.401-4.778-5.942c-2.248-1.543-13.803-6.159-16.773-8.516
		c-2.97-2.356-1.119-3.967-4.65-6.282c-3.532-2.316-13.518-5.641-20.164-10.414c-6.647-4.771-9.603-12.129-12.213-13.92
		c-2.613-1.79-5.783-1.831-8.395-3.622c-2.613-1.79-24.344-19.251-26.268-21.423c-1.924-2.172-9.871-17.646-12.047-19.139
		c-2.178-1.492-8.372-8.294-10.752-10.144c-18.688-14.541-14.731-17.962-18.679-19.42c-3.946-1.46-18.952,8.975-22.356,11.761
		c-0.799-2.255-3.143-6.424-2.392-7.4c1.935-2.511-1.837-12.565-0.641-18.356c1.198-5.792,9.599-21.15,3.956-26.299
		c-5.642-5.149-16.866-1.538-22.672,5.999c-5.808,7.538-5.147,13.109-7.133,19.427c-1.988,6.318-7.16,21.329-7.049,23.965
		c0.112,2.636,7.707,11.471,10.846,14.049c3.137,2.578,9.029,3.63,9.654,4.274c0.628,0.642,13.438,13.69,18.392,19.221
		c4.954,5.53,14.229,19.998,18.966,23.669c4.733,3.674,17.113,19.842,21.021,23.161c3.909,3.322,11.854,7.916,15.855,11.724
		c3.998,3.809,7.215,11.562,12.438,15.144c5.223,3.582,34.252,22.844,36.923,27.661c2.67,4.817,22.78,45.484,48.262,33.519
		c1.854,3.831,3.124,4.204,3.087,6.384c-0.034,2.182,3.663,2.384,9.633,1.54c9.838-1.391,22.132-14.243,27.134-19.587
		c4.55-4.861,14.113-10.422,18.501-14.025c4.391-3.602,15.224-14.731,22.379-24.544c2.803,2.134,2.43,0.812,3.571,2.876
		c1.146,2.063,4.504,21.432,4.325,23.869c-0.178,2.439,2.161,14.484-0.039,18.104c-1.29,2.121-1.268,2.697-1.318,3.08
		c-0.737,0.056-2.428,2.113-2.704,2.621c-1.345-0.08-3.703,0.401-3.897,0.687c-0.196,0.284,0.028,0.368-0.09,0.637
		c-7.765-0.501-15.184,0.426-15.798,0.915c-0.615,0.487-0.097,1.054,0.094,1.184c-1.005-0.061-3.087,0.119-2.657,1.533
		c0.43,1.412,3.87,1.186,7.78,0.789c-0.877,1.076-0.069,2.751,1.824,3.561c1.894,0.807,11.279-1.358,12.863-0.201
		c1.586,1.156,1.65,1.269,2.334,1.388c0.687,0.122,7.661-1.179,9.993-3.356c2.332-2.176,1.257-3.263,1.961-4.39
		c0.702-1.126,0.794-0.853,1.271-1.854c0.478-1.002-0.932-0.989-0.425-1.622C795.796,226.16,799.49,225.848,801.417,213.873z"/>
	<path d="M237.095,507.235c0.557,0.001,1.083,0.485,0.595-2.613c0.852,1.155,1.702,1.155,2.189,1.155
		c-0.121-0.852-1.702-3.101-1.702-3.101c0.668,0.061,3.951,4.559,3.403,0.546c1.277,0.548,1.337,0.428-1.215-3.646
		c3.343,0.548,3.951-0.911,3.951-1.397s-0.668-0.669-1.52-0.669c0.911-1.337,2.244-8.385,1.883-15.196
		c-0.062-1.153,2.783-2.521,9.723-2.794c6.139-0.243,9.726-5.107,12.644-4.5c2.918,0.609,6.259,4.074,8.205,6.201
		c1.945,2.129,3.769,5.592,5.046,6.322c1.276,0.729,1.869,0.457,2.249,0.606c1.702,0.67,0.73,9.545,0.426,14.165
		c-0.304,4.618,0.06,11.791-0.426,13.492c-0.485,1.701-1.337,3.463-1.276,3.829c-0.608-0.122-1.216,0.607-1.154,1.095
		c0.06,0.484-0.062,4.497-0.548,5.651c-0.486,1.155-4.447,4.856-4.922,6.018c-1.094,2.674-1.521,13.069-2.006,13.737
		c-0.486,0.67-1.581,3.402,0.182,3.889c1.763,0.485,4.316-2.735,4.438-8.752c2.736-0.364,5.228-2.798,5.41-3.891
		c1.034,0.122,3.04-0.609,3.465-1.155c0.547,0,2.371,0.062,3.221-0.607c0.85-0.669,2.188-3.344,2.249-5.835
		c0.061-2.493,2.006-3.04,1.885-3.951s-0.729-0.911-1.034-0.79c0.243-0.913,4.865-18.173,5.046-21.272
		c0.182-3.101,0.912-16.773,0.365-18.901c-0.546-2.127-2.31-6.017-2.614-6.321c0.244-0.79,0.338-2.771-0.182-3.829
		c-1.641-3.342-4.802-4.256-6.504-6.017c-1.701-1.765-3.036-4.013-5.102-6.443c-2.068-2.433-10.82-8.996-13.13-13.678
		c-2.31-4.68-5.045-17.807-5.531-18.779s0.303-2.128-0.123-2.614c-0.424-0.486-1.519-0.911-1.519-1.46
		c0-0.545,4.417-1.415,4.681-2.734c0.264-1.318-5.74-15.093-8.328-16.473c-0.913-0.487-2.007-0.426-2.553-0.366
		c0.243-1.337-0.365-9.662-0.061-10.271c0.972,0.063,1.58-0.67,1.58-2.188c1.337,0.972,8.264,2.253,9.662,0.367
		c1.397-1.883,1.645-7.72,1.157-9.604c1.399-0.549,1.763-3.769,0.73-4.257c-1.034-0.485,12.036-8.147,12.702-8.447
		c1.247-0.556,6.375-1.034,7.376-1.596c1.331-0.746,10.857-2.658,12.256-3.326c1.398-0.669,3.156-2.611,3.946-3.28
		c0.79-0.668,5.774-3.281,8.084-5.167c2.31-1.886,7.087-7.748,9.117-8.813c2.032-1.064,3.799-0.707,5.833-1.578
		c2.036-0.871,6.788-3.121,8.125-3.729c1.337-0.607,5.288-1.641,8.166-2.837c2.878-1.194,5.321-4.85,7.354-5.772
		c2.033-0.924,10.697-2.129,11.245-3.282c0.547-1.156,0.852-3.039-5.652-13.735c0.527-1.018,10.574-7.1,14.587-7.416
		c3.039,0.729,6.929-0.182,8.083-0.243c1.155-0.061,11.305-0.912,15.682,3.283c4.376,4.194,9.3,2.916,10.09,0.425
		c0.789-2.491-6.441-15.072-20.361-22.122c-3.162-4.499-12.217-10.274-14.285-10.152c-2.066,0.121-2.917,5.532-3.465,7.174
		c-0.546,1.641-6.322,7.84-4.802,8.874c-1.397,0.85-10.394,7.78-11.914,7.415c-4.548-2.491-21.637,7.874-28.362,11.195
		c-6.725,3.323-10.76,5.854-12.342,6.647c-1.583,0.79-7.76,2.291-12.026,4.271c-4.266,1.981-6.579,4.045-10.021,5.173
		c-3.445,1.128-8.729,2.502-11.42,3.61c-2.689,1.108-12.421,7.199-16.614,8.228c-4.193,1.029-15.893,4.193-18.662,5.064
		c-2.77,0.87-6.735,3.48-9.187,3.48c-2.453,0-9.292-3.577-12.853-4.765c-3.561-1.186-11.673-4.729-13.889-5.837
		c-2.216-1.107-17.145-7.423-20.096-9.257c-2.951-1.835-3.853-2.283-7.041-3.165c-3.189-0.881-10.455-5.001-14.004-6.646
		c-3.549-1.644-38.609-23.654-47.549-25.395c-1.188-0.237-1.107,0.315-1.266,0.474c-0.39-0.367-2.822,0.211-12.737-7.172
		c-0.422-1.372-4.431-4.643-5.802-8.44c-1.372-3.798-1.898-7.172-3.797-7.278c-1.898-0.105-7.807,1.583-13.714,10.443
		c-5.168,0-16.878,9.177-19.409,20.254c1.161,3.902,5.908,2.425,6.751,2.004c0.844-0.422,7.7-7.067,15.717-5.063
		c6.561,1.64,9.494,0.526,11.709-0.738c0.95,0.843,12.764,7.699,12.976,8.227c-0.211,0.844-5.696,11.605-5.486,13.926
		c0.211,2.32,7.701-0.635,10.338,1.266c2.638,1.898,4.747,8.017,8.861,9.494c4.114,1.476,10.232,2.425,12.448,3.798
		c2.215,1.37,4.113,5.168,5.802,6.645c1.688,1.477,8.755,4.853,9.81,6.014c1.055,1.159,6.857,7.066,15.823,10.021
		c8.966,2.955,15.718,10.445,18.989,12.025c3.27,1.584,6.435,1.266,7.384,1.584c0.948,0.316,7.172,15.823,9.388,17.51
		c2.215,1.689,4.219,0.423,4.853,0.633c0.633,0.213-0.106,9.6-0.527,10.443c-0.422,0.846-5.486,3.06-5.591,4.536
		s0.105,2.427,0,3.164c-0.105,0.74-0.884,0.091-0.95,1.16c-0.065,1.071-1.073,16.424-1.371,17.196
		c-0.299,0.771-4.009,6.118-2.954,10.76c-0.634,1.371-3.271,7.595-4.115,8.545c-0.843,0.948-16.456,10.547-20.464,16.983
		c-1.793-0.211-5.485,2.213-6.013,6.539c-1.372,0.527-5.486,5.908-6.224,7.491c-0.738,1.582-0.211,23.839,10.022,48.841
		c-0.95,1.371-0.845,2.215-0.739,2.741c0.105,0.528,2.426,0.318,2.426,0.318s2.11,2.109,5.802,1.476
		c0.844,1.372,4.853,4.326,6.013,4.642c-0.422,1.16,1.075,7.253,4.123,6.528c2.042-0.486,0.989-6.849,0.305-9.059
		c-0.79-2.552-3.221-7.657-5.835-8.995c-0.548-0.549-4.438-13.495-5.593-17.75c0.244-8.874-2.432-21.941-2.006-23.523
		c0.425-1.58,2.309-2.006,2.978-1.762c0.668,0.242,3.647,1.275,4.741,0.789c1.095-0.484,9.482-10.151,10.941-10.151
		c1.459,0,2.856,0.062,3.951-0.364c1.094-0.426,2.613-2.127,3.282-2.065c0.668,0.061,2.958,4.326,5.105,4.376
		c2.148,0.051,2.493-1.702,3.101-1.702c0.608,0,0.962,1.419,2.492,1.641c1.529,0.224,7.416-1.032,7.355,1.154
		c-1.46,0.608-4.621,14.832,0.364,22.065c-0.306,1.155-0.306,1.644,0.059,2.067c0.486,0.183,1.641-0.06,1.824,0.183
		c-0.183,0.426-0.607,2.127-0.607,2.49c0.669,0.063,1.762-0.182,1.884,0.123c0.061,1.034-0.183,1.216,1.033,0.729
		c-0.061,1.216,2.553,3.83,4.376,3.77c1.824-0.063,1.642,0.121,1.642,2.918c0.061,0.606,2.248,1.094,2.005-2.615
		c0.607-0.79,1.337,0.243,1.885,0.73c0.546,0.485,0.851-0.184,0.789-2.069c1.095,1.704,2.25,1.521,2.493,1.461
		c-1.033-0.852-1.277-1.946-1.337-2.37c0.609,0.304,1.897,0.54,2.321,0.485C236.182,507.97,235.349,506.158,237.095,507.235z"/>
	<path d="M593.149,498.09c-3.067,3.94-17.383,2.394-18.557,2.319c-1.174-0.076-2.614,1.173-4.094,2.789
		c-3.482,3.809-3.704,6.923-8.198,8.808c-7.19,3.014-25.855-4.529-27.832-13.222c-1.716-7.539,15.621-14.285,19.407-15.781
		c3.786-1.495,12.597-15.154,16.109-16.021c6.296-1.554-13.93-30.909-14.963-41.905c-0.705-7.482,0.439-6.867-0.09-8.275
		c-0.526-1.408-4.138-6.515-4.138-8.803c0-2.292,1.848-6.075,6.956-8.188c2.728-2.905,9.594-13.206,11.618-15.494
		c-0.086-2.818-0.352-5.635,0.09-7.132c0.44-1.494,7.218-6.866,6.162-13.819c-3.259-0.969-17.086-4.335-20.425-23.418
		c-1.23-7.044,1.124-15.233,0.792-20.864c-0.966-3.875-13.555-22.539-9.858-25.884c-4.138-1.584-3.348-10.035-3.348-13.116
		c0-3.083,2.202-9.597,4.403-12.061c0.616-3.963-3.874-39.969-5.193-44.37c-1.321-4.403-3.083-4.226-3.171-10.125
		c-0.086-5.898,1.85-6.778,1.938-8.715c0.088-1.938,0.154-30.826-0.088-33.014c-0.63-5.702-4.356-10.724-1.766-12.992
		c2.37-2.072,6.098,3.371,7.454,9.236c1.917,8.282,3.818,20.924,4.612,22.596c0.792,1.672,2.288,2.817,2.64,6.691
		c0.97,0.353,2.29,4.138,2.113,7.042c-0.177,2.906-2.993,6.516-3.256,8.276c-0.97,9.507,10.563,35.742,12.413,40.408
		c1.847,4.666,3.872,10.3,4.577,12.677c1.319-0.528,3.872,0.264,4.489,4.49c1.586,0.881,3.697,2.554,3.61,4.578
		c-0.088,2.024-0.44,3.168-2.114,4.225c1.586,0.617,4.051,3.964,2.817,7.309c2.642,2.201,0.846,18.966,4.05,21.832
		c5.019,4.489,12.853,3.523,16.198,3.873c3.346,0.353,10.389,2.818,16.816,3.347c6.425,0.527,14.261,0.087,24.912,1.585
		c10.653,1.496,34.07,8.273,38.649,24.386c8.714-6.956,10.651-3.346,13.205-2.112c1.849-2.202,15.758-2.026,18.313,2.463
		c2.99-0.263,43.574-0.967,51.41-0.967c1.057-1.233,2.114-0.089,2.114-0.969c0-0.882-0.049-3.835,2.112-5.194
		c2.375-1.497,8.541-6.691,9.419-8.364c0.88-1.672-0.175-3.343,0.88-4.402c1.058-1.056,5.899-0.527,6.78-0.615
		c0.88-0.088,12.018-10.53,14.174-7.836c0.352,0.441,0.375,1.32,0.208,1.546c0.724-0.618,3.764-3.577,9.851-3.306
		c5.876,0.263-6.405,9.97-11.027,22.449c-1.056,3.962-3.367,18.817-27.666,22.449c-0.132,2.377-31.098,4.291-37.503,5.48
		c-6.404,1.187-9.442,3.434-19.478,4.357c-1.255,1.254-3.763,4.159-5.282,5.479c2.179,2.973,5.771,9.218-4.622,15.517
		c-2.179,1.321-9.904-6.537-10.893-6.865c-1.587,2.111-2.907,3.959-3.566,5.281c0.659,1.123,2.839,6.206-3.829,6.206
		c5.522,5.392,9.637,22.709,2.353,33.563c-9.33,13.91-12.323,19.721-67.786,18.312c1.584,4.05-1.408,1.057-5.105,8.275
		c5.811,10.212,0,21.305,2.112,37.151c0.431,3.217,3.698,6.34,4.755,8.627c1.056,2.29,1.409,6.516,1.936,7.396
		c2.115,2.288,6.339,4.225,5.988,11.62c-0.354,7.395-6.515,16.198-13.03,17.255c-1.231,1.057-1.586,2.816-1.586,3.873
		s-1.11,7.853-4.928,12.148c-5.635,6.34-31.021,7.426-33.632,2.113c-4.928-10.035,8.235-16.922,12.15-26.059
		c3.168-7.396,2.464-13.206,3.345-16.021C590.938,507.39,592.363,508.685,593.149,498.09z"/>
</g>
</svg>
