<?xml version="1.0" encoding="utf-8"?>
<!-- Generator: Adobe Illustrator 13.0.0, SVG Export Plug-In . SVG Version: 6.00 Build 14948)  -->
<!DOCTYPE svg PUBLIC "-//W3C//DTD SVG 1.1//EN" "http://www.w3.org/Graphics/SVG/1.1/DTD/svg11.dtd">
<svg version="1.1" id="Layer_1" xmlns="http://www.w3.org/2000/svg" xmlns:xlink="http://www.w3.org/1999/xlink" x="0px" y="0px"
	 width="713.06px" height="561.715px" viewBox="0 0 713.06 561.715" enable-background="new 0 0 713.06 561.715"
	 xml:space="preserve">
<g>
	<g>
		<path fill-rule="evenodd" clip-rule="evenodd" d="M66.635,64.875c-0.385,0.263-0.076,1.807-0.375,1.875
			c0.123,0.116,0.249,0.231,0.372,0.348C66.624,66.838,67.118,64.547,66.635,64.875z"/>
		<path fill-rule="evenodd" clip-rule="evenodd" d="M66.635,67.125c0.015,0.015,0.035,0.022,0.058,0.028
			c-0.021-0.019-0.041-0.037-0.061-0.056C66.632,67.109,66.632,67.122,66.635,67.125z"/>
		<path fill-rule="evenodd" clip-rule="evenodd" d="M127.76,277.125c1.64-0.547,1.514-3.104,0-3
			c-0.843-0.907-1.717-1.782-2.625-2.625c-4.159-0.466-7.44-1.81-10.5-3.375c-0.259-1.789-2.106-2.975-3-4.875
			c-1.871-3.979-1.979-9.279-2.25-14.625c-0.305-6.029-0.738-18.087,0-24c0.284-2.272,0.027-4.907,0.375-6.375
			c0.315-1.328,1.494-2.477,1.875-3.75c0.261-0.87-0.176-1.782,0-2.625c0.298-1.42,1.796-2.625,1.125-4.125
			c2.054-2.222,1.403-5.389,1.875-9.375c0.206-1.732,0.496-3.709,0.75-5.625c0.49-3.688,1.315-7.398,1.875-10.125
			c1.25-6.092,1.071-12.708,1.125-19.5c4.134-2.4,8.259-7.163,12-9.75c0.332-0.229,1.259-0.549,1.5-0.75
			c0.124-0.104-0.097-0.613,0-0.75c0.041-0.057,0.679-0.308,0.75-0.375c1.861-1.758,3.17-3.104,4.5-4.875
			c0.75-1,1.321-1.901,1.875-2.625c2.568-3.357,5.018-6.622,6.75-10.5c1.219-2.729,2.118-6.005,3-9.375
			c0.236-0.898,0.069-1.716,0.375-2.625c0.242-0.717,0.835-1.551,1.125-2.25c0.683-1.649,1.67-3.155,1.875-4.5
			c0.652-4.287-0.645-5.905-1.875-8.25c-0.248-0.473-0.459-1.381-0.75-1.875c-0.776-1.317-1.865-2.093-2.625-3
			c-0.234-0.28-0.172-0.859-0.375-1.125c-1.056-1.382-3.076-2.271-3.375-4.125c1.997-1.911,4.523-2.938,6.75-4.5
			c1.264-0.886,2.8-2.37,3.75-3c0.369-0.245,0.448-0.506,0.75-0.75c0.513-0.415,1.329-0.693,1.875-1.125
			c4.169-3.296,7.813-7.25,12.375-10.125c0.606-1.402,1.649-2.21,2.25-3.375c3.116-6.03,5.218-11.925,7.5-18.375
			c0.785-2.216,1.147-4.828,3-6.375c5.36-0.141,10.269-0.73,13.125-3.375c-1.367-1.937-4.9,0.618-6.75-0.75
			c-0.25-2.62,0.824-4.046,2.625-4.875c1.209-0.557,3.623-0.174,5.25-0.75c1.579-0.559,2.821-1.116,3.375-2.625
			c-1.182-0.93-2.3,0.479-3.75,0.75c-1.457,0.272-3.231,0.146-4.875,0.375c0.737-2.685,4.444-4.244,3.375-7.5
			c-1.58,0.17-0.978,2.521-2.625,2.625c-0.05-1.199,0.37-2.869-1.125-2.625c-0.516,1.233-0.164,3.337-1.5,3.75
			c0.249-0.851,0.97-3.145-0.375-3.375c-0.847,2.903-2.347,5.152-3,8.25c-2.915,2.855-8.04,5.094-9.75,8.625
			c-0.939,1.939-1.6,3.383-2.625,4.875c-0.653,0.951-1.629,1.69-2.25,2.625c-0.401,0.604-0.372,1.273-0.75,1.875
			c-1.011,1.61-2.403,2.783-3.375,4.125c-1.74,2.401-3.647,5.29-4.875,7.5c-0.291,0.523-0.423,1.443-0.75,1.875
			c-1.126,1.488-2.964,2.837-4.5,4.125c-1.324,1.111-2.723,2.194-3.75,3c-0.38,0.299-1.087,0.442-1.5,0.75
			c-3.413,2.549-6.604,5.952-11.25,6.375c1.163-3.688,1.675-7.796,2.25-12c0.353-2.58,0.919-5.317,1.125-7.875
			c0.089-1.104-0.152-2.26,0-3.375c0.339-2.494,1.579-5.002,1.875-7.5c0.315-2.646-0.25-5.137-0.375-7.875
			c-0.076-1.686,0.09-3.407,0-5.25c-0.255-5.239-1.238-10.788-0.75-15.75c0.159-1.618,1.078-2.8,0.75-4.5
			c0.283-0.672,1.02-0.9,1.5-1.5c0.258-0.322,0.123-0.763,0.375-1.125c0.549-0.786,1.181-1.08,1.5-1.875
			c0.603-1.501,1.15-2.447,1.875-3.75c0.374-0.671,0.77-1.614,1.125-2.25c0.382-0.684,1.724-1.305,0.75-2.25
			c-2.979,0.021-2.914,3.087-4.875,4.125c-4.509-2.879,0.606-6.118,1.5-8.625c-1.803-1.401-2.615,3.019-4.125,1.875
			c-1.154-1.553,1.01-4.199-1.125-4.875c-0.727,1.148-0.123,3.627-1.125,4.5c-0.688-0.408-0.935-2.071-1.875-1.125
			c0.7,2.515,0.348,6.56,0,8.25c-2.056-0.569-2.069-3.181-4.125-3.75c-0.375,1.4,1.063,2.44,1.875,3.75
			c0.227,0.366,0.185,0.818,0.375,1.125c0.64,1.03,1.695,1.919,1.875,3c0.321,1.919-0.774,4.123-1.125,6.375
			c-0.272,1.748-0.361,3.876-0.75,6c-0.372,2.031-0.728,3.897-1.125,6c-0.721,3.82-2.029,7.528-2.625,11.25
			c-0.454,2.833-0.094,6.539,0,8.625c0.292,6.431-0.572,11.115-1.5,15.75c-0.495,2.472-0.411,5.988-2.625,6.75
			c-1.072-2.304-1.889-4.861-3.375-6.75c-2.071,0.101-3.643,0.231-4.5,0.375c-0.565,0.096-1.62,0.381-1.875,0.375
			c0.015,0-0.144-0.704-0.375-0.75c-0.362-0.072-0.458,0.36-0.75,0.375c-1.234-0.141-0.756-1.993-2.25-1.875
			c-2.189,0.873-2.484,2.634-4.875,3.375c-1.579,0.489-3.559-0.136-5.25,0.375c-1.965,0.594-3.145,3.146-5.25,2.625
			c-0.647-1.004,0.265-1.426-0.75-2.25c-0.965-0.66-2.227-1.023-2.625-2.25c-1.025-4.35-3.372-7.378-7.875-8.25
			c-1.218-1.282-2.265-2.735-3-4.5c0.149,0.773-0.049,1.775,0.375,2.625c0.379,0.759,1.785,1.475,2.625,2.25
			c0.847,0.781,1.965,2.561,1.5,1.125c-0.292-0.083-0.436-0.314-0.375-0.75c0.663,0.337,1.095,0.905,1.875,1.125
			c-0.175,1.543,0.943-0.294,1.5,0.75c0.882,1.368,1.767,2.733,2.25,4.5c-0.496-0.004-0.343-0.657-0.75-0.75
			c-1.163,0.736,1.29,1.874,0.375,2.25c-1.108-0.152-1.436-1.523-1.875-2.25c-0.261-0.432-0.957-0.655-1.125-1.125
			c-0.22-0.615,0.49-1.391-0.375-1.875c-1.333,2.226,1.032,3.614,1.875,4.875c-0.645,0.148-0.961-0.557-1.125,0
			c1.025-0.001,1.269,1.108,1.875,1.875c0.521,0.659,1.562,1.426,1.125,1.875c-0.545,0.552-2.455,0.552-3,0
			c-0.657-0.191-1.787-2.531-1.125-0.75c-0.2,0.796-0.472-0.235-0.75-0.375c-0.503-0.252-0.002,0.508,0,0.375
			c-0.019,1.005-1.374-0.333-1.5-0.375c-0.965-0.321,0.411-2.326-1.125-1.875c0.378,0.005,0.472,0.657,0,0.75
			c-0.523-0.999-1.541-1.236-1.5-1.875c-1.239,0.98-2.42-1.248-3.375-0.375c1.885-1.438-0.192-0.227-0.375-0.375
			c-0.767-0.625-2.143-3.092-3-2.625c1.028,0.577,1.737,1.455,1.125,1.875c-1.407,0.968-3.214-1.865-4.125-1.125
			c1.512,0.468,1.07,1.393,1.875,1.875c-0.021-0.013-0.027-0.718,0-0.75c0.093-0.112,1.674,1.344,1.875,1.125
			c-0.116,1.491,0.867,1.884,0.75,3.375c-0.492-1.008-1.653-1.347-2.25-2.25c-2.05,0.551-2.043-0.956-3-1.5
			c-0.013,1.753-1.066,0.715-2.25,0.75c-1.102-0.783-2.384-3.352-3.375-3c0.613-0.169,0.613,2.044,0,1.875
			c0.081-1.966-1.604-4.132-3-3.375c0.951-0.282,1.759,1.433,1.125,1.5c-0.443-0.054-0.85-0.668-1.125,0
			c1.501-0.126,1.678,1.072,1.5,2.625c1.182-0.277,2.497,1.214,1.875,1.5c-2.111-1.556-0.764-0.744-1.125,0
			c-0.908-0.592-1.658-1.342-2.25-2.25c-1.049-0.15-1.473-1.144-1.875-1.5c-0.12-0.106-0.515,0.075-0.692,0.028
			c1.925,1.796,3.948,3.495,6.317,4.847c-0.8,1.697,0.841,1.831,0,3.75c-0.78-0.49-1.465-0.59-2.25-0.75
			c-0.94-0.192-1.931,0.026-3-0.375c-0.444-0.167-0.622-1.347-1.5-0.75c-0.52-0.229-0.056-1.443-0.75-1.5
			c-0.912,1.249-2.168-2.294-3-1.125c1.297,0.702,1.978,2.022,2.625,3.375c-1.769-0.425-4.137-1.987-5.25-3
			c-0.263-0.239-1.187-1.573-0.75-0.75c0.51,1.097,2.655,2.27,1.875,2.625c-0.942,0.43-1.322-1.033-2.625-0.375
			c1.496,2.164,5.695,1.177,6,5.25c-1.529-0.278-1.292,1.209-3,0.75c-0.411-0.614-1.388-2.578-0.375-3.375
			c0.111,0.333,1.015,1.642,1.125,0.75c-1.082-0.168-0.886-1.613-1.875-1.875c-0.211,1.777-0.777,3.693,0.375,4.875
			c1.328,0.726,2.166-0.01,3.75,0c0.682,0.975,3.973,2.232,3.375,3c-1.777-0.276-2.578,0.422-4.125,0.375
			c-1.984-1.266-3.735-2.766-5.25-4.5c-0.883-0.009-1.104,0.646-2.25,0.375c-0.935-0.314-0.789-1.711-2.25-1.5
			c-0.067,2.067,0.798,3.202,1.5,4.5c-1.132,1.04,1.23,1.754-0.375,2.625c1.098-0.337,1.152-0.337,2.25,0
			c1.475,1.775,3.027,3.474,3.75,6c2.009,0.003-1.832-1.645,0-2.625c-0.114,1.989,2.619,1.131,2.625,3
			c-1.611,0.719-3.474-0.115-4.875-1.875c-0.638-0.802-0.102-2.977-1.5-2.25c1.243,1.001,1.171,4.2,0.75,4.875
			c-0.708-0.042-0.26-1.24-1.125-1.125c0.428,1.1,0.221,1.393-0.75,1.875c-1.636,0.611-2.318-1.647-3-0.75
			c1.526,0.349,1.04,2.71,3.375,2.25c1.417-0.739-1.789,0.093-1.5-0.75c0.67,0.002,2.182-1.01,2.625,0
			c0.203,1.51-1.775,1.605-3.375,2.25c-0.93-0.194-1.335-0.914-1.875-1.5c-0.351,1.726,1.201,1.55,1.875,2.25
			c-1.133,0.116-2.917-0.416-3,0.75c1.218,0.283,0.895,2.105,1.5,3c1.324-0.602,2.774,0.313,4.875,0
			c0.374,3.377,5.886,1.614,7.125,4.125c-1.297,0.393-1.996-1.715-3-0.375c2.31,1.065,4.275,2.475,6.75,3.375
			c-0.097,1.098,0.848,1.152,0.75,2.25c-2.463,1.037-5.963,1.036-7.875,2.625c-1.098-1.319-2.801-0.289-4.125-0.75
			c-1.155-0.402-1.979-1.799-3-2.625c-0.623-0.504-1.307-0.663-1.875-1.125c-0.556-0.452-0.949-1.079-1.5-1.5
			c-2.553-1.945-5.079-3.089-6.75-5.25c-0.235-1.481-0.082-2.971-0.75-4.5c-0.198-0.454-1.128-1.003-1.5-1.5
			c-0.247-0.33-0.147-0.832-0.375-1.125c-1.259-1.616-3.153-2.964-4.125-4.5c-1.543-2.441-2.15-4.568-3.75-6.375
			c-1.382-1.562-1.808-1.846-3.375-2.625c-0.996-0.495-1.111-0.798-1.875-0.75c-1.779,0.111-3.759,1.892-4.125,4.125
			c-0.302,1.842,1.077,3.629,0.75,6c3.166,3.334,5.419,7.581,7.5,12c2.134,1.678,4.512,3.573,5.625,5.25
			c0.954,1.438,1.926,2.862,2.625,4.125c0.719,1.298,1.242,2.628,1.875,3.75c0.324,0.573,0.779,0.907,1.125,1.5
			c0.681,1.168,1.157,2.593,1.875,3.75c0.099,0.159,0.625,0.208,0.75,0.375c0.221,0.295,0.206,0.859,0.375,1.125
			c0.292,0.459,0.863,1.008,1.125,1.5c1.321,2.483,1.819,5.675,3,7.875c0.075,0.139,0.64,0.229,0.75,0.375
			c0.229,0.305,0.189,0.85,0.375,1.125c1.133,1.675,2.098,2.442,3.375,3.75c0.117,0.119-0.071,0.593,0,0.75
			c0.036,0.079,0.666,0.297,0.75,0.375c1.635,1.524,3.316,1.751,5.625,2.625c1.588,0.603,3.108,1.389,4.5,1.875
			c3.243,1.132,6.684,1.891,9.75,3c3.006,1.088,5.797,2.754,8.625,4.125c2.849,1.382,5.702,2.572,8.625,4.125
			c0.361,1.066,0.052,2.365,0,2.625c-0.079,0.395,0.343,0.259,0.375,0.375c0.352,1.268,0.038,1.917,0,3.375
			c-0.091,3.541,0.609,5.883,0.75,9c0.096,2.115-0.105,4.496,0,6.75c0.283,6.079,1.098,11.756,1.875,17.25
			c0.563,3.975,1.604,7.868,1.875,11.25c0.315,3.92-0.54,6.403-1.125,8.625c-1.071,4.067-2.137,7.469-2.625,11.25
			c-1.299,10.075,1.102,18.993,3,26.625c1.268,5.097,3.346,10.308,4.125,15.375c0.438,2.851-4.187,8.321-0.75,8.625
			C100.315,273.751,118.131,279.876,127.76,277.125z M119.135,117c0.476-2.024,1.115-3.886,1.5-6
			c0.846,4.609,0.701,9.143,0.375,12.75c-1.696,0.804-4.823,0.177-7.125,0.375C115.051,121.166,117.061,119.051,119.135,117z
			 M86.135,73.5c-0.772-0.479-1.902-0.598-1.875-1.875C84.816,72.319,86.198,72.187,86.135,73.5z M78.26,117.375
			c-1.196,0.321-1.16-0.59-1.875-0.75c-0.284,1.409,0.981,1.269,1.5,1.875c-2.159,0.776-5.194-0.8-7.5-1.125
			c2.285-0.591,4.477-1.273,6-2.625c3.089,0.68,3.668-0.089,7.125,0.375c0.149-0.898-1.708,0.208-1.125-1.125
			c0.625,0,1.25,0,1.875,0c-0.157,2.521-5.101,3.913-6.375,1.875C76.777,116.201,78.755,116.437,78.26,117.375z M71.51,109.5
			c0.535-0.911,3.18-1.047,3.75-0.75c-0.071,0.426-0.376,0.208-0.375,0c-0.439,0.061-0.316,0.684-0.375,1.125
			C73.429,109.83,72.055,110.08,71.51,109.5z M78.26,78c0.827-0.68,3.626-0.142,3.75,1.125C80.805,78.705,79.786,78.099,78.26,78z
			 M73.385,72.375c4.216,1.159,6.923,3.828,10.5,5.625c-0.978,0.974-2.221-0.509-3.375-0.75c-1.688-0.353-3.204-0.031-4.5-0.375
			c-0.229-0.916-1.415-1.24-1.875-1.875c-0.313-0.433,0.257-1.415-0.75-1.125C73.385,73.375,73.385,72.875,73.385,72.375z
			 M75.635,80.25c-2.012,0.505-4.72-1.524-6.375-2.625C69.392,77.1,69.92,77.593,70.01,78C72.785,77.85,73.61,79.65,75.635,80.25z
			 M70.01,76.125c-0.72,0.451-2.944-0.792-4.125-1.125C66.881,74.272,68.957,75.664,70.01,76.125z M64.76,76.125
			c1.103-0.876,2.582,0.502,4.125,1.125C67.69,78.176,65.923,76.476,64.76,76.125z M65.135,99c0.726,0.242,1.425,0.968,1.875,1.5
			c0.494,0.585,1.298,1.216,1.125,2.25c-1.763-0.737-3.717-1.283-4.125-3.375C64.616,99.48,64.656,99.021,65.135,99z M65.135,102.75
			c-0.966,0.062-1.802-1.908-2.25-1.125c-0.365-0.01-0.291-0.459-0.375-0.75c-0.933-0.058-1.161,0.589-1.875,0.75
			c-1.452-0.173-2.279-0.971-2.25-2.625c1.538,0.037,3.074,0.074,4.125-0.375c1.05,0.949,1.685,2.315,2.25,3.75
			c0.158-0.825,0.48-0.825,1.5,0C66.375,103.547,65.176,101.422,65.135,102.75z M67.01,103.875c0.294-0.861,2.322-0.364,1.875,0.75
			C67.689,104.946,67.725,104.035,67.01,103.875z M68.885,107.25c0.333-0.784,2.094,0.121,1.875,1.125
			C69.363,108.772,69.549,107.586,68.885,107.25z M61.01,115.125c-0.359-1.28,1.766-0.067,0-1.125
			c-0.224-0.134-0.888-0.177-1.125-0.375c-0.651-0.545-0.82-2.063-1.875-1.875c0.814-0.91,2.289,0.69,3,1.125
			c1.181-0.528,2.381-1.451,3.75-0.75c0.422-0.339-0.023-0.839,0.75-1.5c2.912-0.536,3.604,1.146,5.625,1.5
			c-0.661,2.698-4.104,1.113-6.375,1.5c-0.873,0.148-0.993,0.867-1.875,0.75c-0.537,1.119,0.307,1.275-0.375,2.25
			C61.849,116.286,61.349,115.786,61.01,115.125z M65.51,115.125c-0.75,0-1.5,0-2.25,0C63.334,114.567,65.713,113.62,65.51,115.125z
			 M62.135,117.375c1.924,0.299,2.46-0.789,4.125-0.75C65.439,117.284,62.627,119.87,62.135,117.375z M63.26,120.75
			c0.357-2.482,3.578-2.523,6-2.25c2.026,0.229,4.485-0.053,6,0.75c-1.42,2.24-4.487,0.471-6.75,0.75
			C66.888,120.201,65.026,122.475,63.26,120.75z M71.135,122.625c-0.905,1.912-2.083-0.736-3.375-0.75
			c0.678-1.161,1.149-0.2,2.625-0.375C69.848,122.049,70.098,122.688,71.135,122.625z M65.135,122.625
			c0.992-1.387,3.192-1.328,3.375,0.75C66.937,123.573,66.415,122.72,65.135,122.625z M84.635,125.625
			c-1.301,0.371-2.734-0.464-4.125,0c0.148-0.05-0.198-0.552-0.375-0.375c-0.054,0.055,0.057,0.74,0,0.75
			c-0.22,0.037-0.664-0.393-1.125-0.375c-1.705,0.065-5.891,0.169-8.625-0.75c5.528-1.463,11.213-1.654,17.25-1.875
			C86.697,123.872,85.929,125.256,84.635,125.625z M100.76,72.75c0,0.5,0,1,0,1.5c-0.871-0.254-1.003-1.246-1.875-1.5
			C99.368,72.029,99.661,73.635,100.76,72.75z M98.135,128.625c0.489-2.289,3.932,0.203,4.125-1.875
			C103.266,128.271,100.273,129.002,98.135,128.625z M101.885,127.125c-0.445-0.229,0.327-2.398,1.5-2.25
			c-0.061,0.436,0.083,0.667,0.375,0.75C103.279,126.27,101.975,126.09,101.885,127.125z M100.76,126.375
			c-2.14,0.109-3.352,1.147-4.5,2.25c-1.597-0.027-2.623-0.627-4.5-0.375c0.363-2.263,4.099-1.151,4.5-3.375
			c1.612-0.461,3.215-1.394,4.5-2.625c0.503-0.481,2.806-0.581,3.375-1.875C104.425,122.298,101.07,123.806,100.76,126.375z"/>
	</g>
	<g>
		<path fill-rule="evenodd" clip-rule="evenodd" d="M309.337,18.19c0.666-1.001,0.273,2.197,0.375,3
			C309.048,22.19,309.44,18.993,309.337,18.19z"/>
		<path fill-rule="evenodd" clip-rule="evenodd" d="M322.837,270.565c1.454-1.613,2.668-3.028,4.5-4.5
			c0.808-0.649,1.842-1.107,2.625-1.875c0.678-0.664,1.13-1.706,1.875-2.625c0.634-0.781,1.305-1.42,1.875-2.25
			c0.414-0.601,0.449-0.932,0.75-1.5c0.09-0.169,0.684-0.233,0.75-0.375c0.14-0.295-0.165-0.847,0-1.125
			c0.515-0.862,1.541-1.455,1.875-2.25c0.824-1.965,0.854-4.16,1.5-6c0.602-1.707,1.447-3.311,2.25-4.875
			c3.104-6.045,7.226-11.994,10.875-18c0.456-0.75,1.068-1.522,1.5-2.25c0.857-1.446,1.682-2.862,2.625-4.5
			c1.758-3.049,4.363-5.35,6.75-8.25c0.627-0.761,1.226-1.646,1.875-2.625c0.579-0.872,2.5-2.536,3-3.75
			c0.522-1.265,0.265-3.104,0.751-4.875c0.055-0.199,0.707-0.609,0.75-0.75c0.104-0.342-0.111-0.785,0-1.125
			c1.107-3.386,1.777-9.274,1.5-14.25c0.523-0.158,0.559,0.203,0.75,0.375c2.215,1.984,6.605,7.056,6.75,10.125
			c0.109,2.295-1.586,4.09-2.25,6.375c-0.225,0.773-0.242,1.902-0.375,2.625c-0.492,2.695-0.26,5.207,0.375,8.25
			c0.674,3.229,1.799,6.357,3,9.75c1.162,3.281,2.193,6.007,3.375,9.375c1.541,4.392,3.541,9.304,4.125,14.625
			c0.332,1.601-1.121,2.136-1.5,3.75c-0.623,2.664-0.131,6.545-0.375,9.75c-0.072,0.967-0.23,2.054-0.375,3
			c-0.137,0.895-0.195,1.979-0.375,2.625c-0.475,1.715-1.627,2.942-2.25,4.5c-0.734,1.837-0.922,3.563-1.5,5.25
			c-3,9.942,12.408,0.914,11.625,0.375c0.691-1.484,2.818-2.741,3.375-4.125c0.533-1.326,0.176-2.223,0.375-3.75
			c0.234-1.798,1.129-4.037,1.5-6c0.9-4.74,1.123-12.92-0.375-16.5c-0.354-0.844-0.512-1.418-0.75-2.25
			c-1.18-4.127-1.629-8.703-1.875-13.5c-0.381-7.412,0.137-16.925-0.375-23.625c-0.17-2.23,0.564-4.08,0.75-6.375
			c0.17-2.094-0.164-4.317,0-6.375c0.084-1.041,0.432-1.894,0.375-3c-0.043-0.855-0.596-1.782-0.75-2.625
			c-0.133-0.727,0.105-1.519,0-2.25c-0.447-3.123-2.873-7.109-4.125-9.375c-0.84-1.521-1.412-2.47-2.25-3.75
			c-0.621-0.949-1.465-1.654-1.875-2.25c-0.59-0.857-0.91-1.715-1.5-2.625c-1.664-2.567-3.143-5.105-4.5-7.5
			c-0.998-1.761-1.914-3.336-3-4.875c-2.426-3.437-5.543-6.018-7.125-9c3.777-9.927,4.771-22.521,7.875-32.625
			c1.07-3.48,2.9-6.857,3.375-10.125c0.26-1.783,0.104-3.097,0-4.5c-0.406-5.516,2.354-9.186,1.875-14.25
			c-0.166-1.749-1.549-5.498-2.25-6.75c-1.047-1.871-3.553-3.443-3.75-5.625c-0.266-2.925,1.533-4.232,3-5.25
			c4.205-2.913,9.584-5.941,13.125-8.625c0.545-0.412,0.924-1.084,1.5-1.5c0.977-0.705,1.941-1.479,2.625-1.875
			c1.209-0.7,2.027-1.23,3-1.875c2.496-1.652,4.969-3.725,7.5-4.875c0.717-0.325,1.514-0.108,2.25-0.375
			c0.725-0.262,1.457-1.104,2.25-1.5c3.051-1.523,5.844-2.698,8.248-4.125c3.58-2.123,6.551-4.995,10.5-6
			c0.217,0.659-0.453,2.203,0.375,2.25c0.348,0.653-0.012,2.013,1.125,1.875c2.291-0.334-0.023-5.275,2.25-5.625
			c1.434,1.067,3.223,1.778,4.125,3.375c-0.686,1.933-2.627,8.406,0,9c1.037-1.339,0.059-4.692,1.875-5.25
			c0.361,2.264-0.148,5.399,2.625,5.25c1.037-0.253-1.043-1.968,1.125-1.5c-0.75-1.499,0.002-4.502-0.75-6
			c0.91,0.59,1.602,1.398,3.375,1.125c0.225-1.393-0.783-1.481-1.125-1.875c-0.461-0.532-0.387-0.418-1.125-0.75
			c-0.596-0.269-1.084-1.53-1.5-1.875c-0.313-0.811-0.971-1.279-0.75-2.625c-1.08-0.326-1.285-1.458-1.875-2.25
			c-1.439-1.936-2.119-2.709-4.125-3.75c-2.193-1.14-2.621-1.179-4.875-0.375c-2.799,0.998-4.863,2.183-7.125,3
			c-1.4,0.506-2.973,0.626-4.5,1.125c-3.244,1.061-5.705,2.406-8.248,3.75c-1.318,0.696-2.973,1.13-4.125,1.875
			c-0.906,0.586-1.49,1.706-2.25,2.25c-0.445,0.318-1.039,0.463-1.5,0.75c-1.139,0.712-1.807,1.352-2.625,1.875
			c-0.41,0.262-1.078,0.539-1.5,0.75c-2.15,1.074-4.488,1.74-6.375,2.625c-0.926,0.435-2.064,1.015-3,1.5
			c-2.125,1.103-4.59,3.278-6.375,3.75c-3.564,0.941-7.15,1.828-9.75,3c-0.123,0.056-0.234,0.657-0.375,0.75
			c-3.047,1.99-5.861,3.836-9.376,4.875c-0.982,0.518-1.29,1.709-2.625,1.875c-1.352-2.061-2.649-3.98-3-6.75
			c-0.746-5.908,2.329-9.545,2.25-13.875c-0.68-0.82-1.261-1.739-3-1.5c0.036-1.786-1.721-1.779-1.875-3.375
			c-1.412,0.162-1.707-0.793-2.25-1.5c0.271-1.146-0.383-1.367-0.375-2.25c-2.064-0.065-2.858,1.141-5.25,0.75
			c-0.499-0.1-0.774-0.509-1.125-0.75c-0.419-0.29-1.108-0.475-1.5-0.75c-0.904-0.638-1.534-1.903-2.25-1.5
			c0.379,0.004,0.473,0.657,0,0.75c-1.16-0.477-3.34-1.894-4.125-1.5c0.408,0.09,0.9,0.617,0.375,0.75
			c-2.601,0.342-4.67-0.965-6.375-0.375c-1.914-2.835-3.629-5.871-4.875-9.375c-0.959,1.424,0.681,2.915,0.75,4.5
			c-0.375,0-0.75,0-1.125,0c0.126,1.542,3.126,2.611,0.75,3.375c0.702,0.423,1.807,0.443,1.5,1.875
			c-1.904,0.143-2.158-0.658-2.25,0.375c-1.41-0.524-2.219-1.89-3.375-3c-0.129-0.124-0.623,0.126-0.75,0
			c-0.125-0.126,0.124-0.621,0-0.75c-0.3-0.314-0.814-0.443-1.125-0.75c-0.432-0.426-0.771-1.654-1.5-1.125
			c0.757,1.118,1.9,1.85,2.625,3c-0.645,0.147-0.961-0.557-1.125,0c1.514,0.361,1.499,2.251,2.625,3
			c-0.289,0.378-2.254,0.937-1.125,1.5c0.381-0.967,1.734-1.437,2.25-0.375c-1.86-0.286-2,1.147-3.375,0.375
			c-0.928,0.696-1.408,1.841-3,1.875c-1.313-0.168-0.768-1.613-1.125-1.875c-0.766,0.862-1.688-1.289-1.875-2.25
			c-0.996-0.38-2.133-0.617-2.25-1.875c-0.213-1.118,1.416-2.296,0.75-2.625c-1.351,0.095-1.116,3.109-2.25,2.25
			c-1.444-0.87,2.065-1.886,1.125-2.25c-1.145,0.354-1.174,1.825-2.625,1.875c-0.633-1.944-0.189-3.493-0.75-4.875
			c-1.301,1.279,0.779,3.797-0.375,4.875c-0.271-1.728-2.361-1.639-3.375-2.625c0.105-1.339,0.837-2.897,0-4.5
			c-0.747,1.451-0.054,5.303-1.5,5.25c0.316,1.287,0.5,2.294,0,3c-2.295-0.203-1.336-1.984-1.875-3.375c0-0.625,0-1.25,0-1.875
			c-0.205-0.545,0.438-1.938-0.375-1.875c-0.168,1.397,0.223,3.164,0,4.5c-0.118,0.717-0.838,1.271-0.375,1.5
			c0.878-1.15,0.782,1.829,0.375,2.25c-1.777-0.723-3.508-1.491-3.75-3.75c-0.642,1.279,0.083,3.092-0.375,3.75
			c-0.982-0.267-0.359-2.141-1.5-2.25c0.242,1.948,1.47,2.942,1.5,4.125c0.043-0.458,0.112-0.888,0.75-0.75
			c0.715,1.294,2.936,3.053,2.25,4.5c-2.887-0.896-3.471-2.237-7.125-1.875c-0.715-0.16-0.678-1.071-1.875-0.75
			c-1.244-0.119-2.307-0.057-2.625,0.75c0.312-1.46-2.234-1.004-1.125-0.375c-0.007-1.116,1.394,1.23,0.375,1.125
			c-0.937-0.003-1.339-0.98-1.875-1.5c-0.639-0.62-1.411-1.081-1.875-1.875c0.019,1.99,3.075,2.913,2.625,4.125
			c-1.509,0.259-0.92-1.579-2.25-1.5c1.809,2.746-3.441,0.499-3.75,2.25c-1.175-1.2-2.252-2.498-3.375-3.75
			c0.524,1.476,1.459,2.541,1.875,4.125c-1.203-0.297-1.638-1.361-2.625-1.875c-0.368,1.051-1-0.545-1.5,0.375
			c-0.549,0.007-1.188-1.581-1.125,0c-0.442,0.182-0.85,0.399-1.125,0.75c0.206,0.631,0.971,1.22,1.125,1.5
			c0.382,0.691,0.382,1.629,0.75,2.25c0.091,0.152,0.631,0.215,0.75,0.375c0.846,1.126,0.425,2.464,1.5,2.25
			c-0.441,1.16-0.94-0.059-1.5,0.75c0.853-0.066,2.186,1.267,1.5,1.5c-1.927-0.948-2.201-3.549-4.5-4.125
			c0.178,1.979-1.009-0.872-1.125,0.375c1.17,1.677,2.73,2.801,3.75,4.125c0.232,0.3,0.549,0.486,0.75,0.75
			c0.251,0.327,0.123,0.762,0.375,1.125c0.675,0.971,1.652,1.834,2.25,3c0.148,0.288-0.094,0.813,0,1.125
			c0.276,0.912,1.604,1.777,1.5,3c-1.579-0.17-1.726-1.773-3-2.25c1.3,2.451,3.34,4.16,6,5.25c0.743,1.633,2.185,2.565,3.375,3.75
			c-1.456-0.042-2.449-1.906-3.375-0.375c2.467,0.587,3.373,3.278,5.25,4.125c0.134,0.06,0.217,0.662,0.375,0.75
			c0.725,0.4,1.834,0.106,2.625,0.375c0.227,0.077,0.795,0.608,1.125,0.75c1.615,0.692,3.063,1.133,4.875,1.125
			c0.59,0.285,0.561,1.189,1.5,1.125c2.97-0.219,5.114,0.386,7.5,0.75c0.779,4.075,4.094,5.85,8.25,6
			c0.873,0.031,1.717-0.696,2.625-0.75c0.701-0.042,1.178,0.346,1.875,0.375c0.914,0.038,1.934-0.401,2.625,0
			c-2.686,2.563-6.642,3.857-11.25,4.5c0.545,0.205,1.938-0.438,1.875,0.375c-0.994,0.006-2.208-0.208-2.25,0.75
			c1.265-0.127,3.779-0.948,4.875,0c-1.803,0.821-5.412-0.163-7.125,0.75c6.252,1.022,11.916-1.473,15.375-3.75
			c0.724-0.477,1.329-1.762,2.25-1.5c-1.508,1.856-2.245,4.463-4.125,6.375c-0.355,0.361-0.943,0.311-1.5,0.75
			c-0.397,0.314-0.709,1.175-1.125,1.5c-0.312,0.244-1.028,0.392-1.5,0.75c-0.181,0.138-0.182,0.604-0.375,0.75
			c-0.354,0.266-0.825,0.086-1.125,0.375c-0.295,0.284-0.125,0.769-0.375,1.125c-0.216,0.309-0.863,0.46-1.125,0.75
			c-1.852,2.058-3.609,3.977-6.375,4.875c-1.302,0.423-2.775,0.199-4.125,0.375c-2.15,0.28-4.371,1.02-6.75,1.5
			c-5.074,1.025-12.993,2.648-18.75,1.5c-0.314-1.607-1.945-1.969-3-2.625c-0.461-0.287-0.952-0.852-1.5-1.125
			c-0.687-0.344-1.666-0.359-2.25-0.75c-0.74-0.496-2.21-2.083-2.625-2.625c-1.919-2.509-1.883-6.409-5.25-7.875
			c-1.318,0.849,1.207,1.649,0,2.25c-1.609-1.391-1.068-4.931-3.75-5.25c-0.862,2.5,1.661,6.066,1.875,9.75
			c-0.498,0.376-1.395,0.354-1.5,1.125c0.549,0.326,1.189,0.562,1.125,1.5c-1.52-0.955-4.024-0.685-4.875-1.5
			c-0.341-0.327-0.247-0.127-0.75-0.375c-1.663-0.82-2.855-2.176-4.875-1.125c0.583,1.299,1.848,1.876,3,2.625
			c0.48,0.312,1.306,0.376,1.875,0.75c0.524,0.344,0.976,1.224,1.5,1.5c0.718,0.379,1.856,0.426,2.625,0.75
			c1.281,0.54,2.212,1.365,3,1.875c1.239,0.803,2.569,1.228,3.75,1.875c1.458,0.798,2.987,1.791,4.5,2.625
			c0.692,0.381,1.4,0.682,2.25,1.125c0.719,0.375,1.718,1.332,2.25,1.5c2.456,0.775,5.461,0.388,8.625,0.75
			c2.523,0.288,4.891,0.984,7.125,1.125c7.335,0.463,13.68,0.39,21.375,0.375c1.555-0.898,2.615-2.35,4.125-3.375
			c2.283-1.55,4.948-2.571,7.125-4.125c1.055-0.753,1.935-1.756,3-2.625c1.128-0.92,2.44-1.573,3.375-2.625
			c0.56-0.629,0.981-1.539,1.5-2.25c0.596-0.815,1.006-1.592,1.5-2.25c1.006-1.338,1.901-3.012,3.75-3.75
			c2.174,2.214,2.725,5.092,4.125,7.5c0.076,0.131,0.633,0.248,0.75,0.375c0.289,0.311,0.134,0.737,0.375,1.125
			c1.235,1.979,2.473,3.711,3.375,5.625c0.712,1.507,0.147,3.587,0.375,5.625c0.086,0.764,0.613,1.258,0.75,2.25
			c0.334,2.395,0.506,7.954,0,11.625c-0.575,4.183-3.494,9.246-5.25,12c-1.746,2.739-3.514,5.012-4.875,7.875
			c-1.494,3.146-3.176,6.676-2.625,10.875c0.512,3.899,3.103,7.518,5.625,10.5c0.57,0.674,0.475,1.548,0.75,2.25
			c0.179,0.453,0.598,0.761,0.75,1.125c1.246,2.981,1.375,6.991,1.875,10.5c0.871,6.09,3.104,12.739,4.875,17.625
			c0.808,2.224,2.061,6.323,1.875,8.625c-0.033,0.422-0.322,1.992-0.75,3c-1.589,3.739-5.469,5.26-7.875,8.25
			c-0.238,0.297-0.164,0.851-0.375,1.125c-1.688,2.206-3.059,4.211-4.125,6.75c-1.268,3.021-1.994,6.376-3,9.75
			c-0.447,1.503-1.059,2.82-1.5,4.5c-0.436,1.665-0.627,3.604-1.125,5.25c-1.004,3.321-3.628,8.084-2.625,11.625
			c-1.453,1.029-3.172,1.792-4.875,2.625c-1.705,0.834-3.48,1.477-4.875,2.625c0.286,2.036-0.594,2.906-0.375,4.875
			c-0.773,0.2-0.089,1.773-1.125,0.75c0.868,1.486-0.443,1.073-0.375,2.625c-1.564,1.133-3.587,1.877-5.25,3
			c-1.281,0.865-2.392,2.119-3.375,3c-1.138,1.02-1.09,0.589-1.5,1.5c-0.28,0.622-1.426,0.856-1.125,1.875
			c0.504,1.372,2.671,6.64,4.125,7.125C317.285,277.971,322.486,270.956,322.837,270.565z M300.712,33.565
			c-1.807,0.548-4.364-1.379-6-2.25C296.476,30.811,299.035,32.737,300.712,33.565z M281.962,47.44
			c1.517-0.529,2.906,1.156,4.5,1.875c1.74,0.785,3.689,1.178,5.25,1.875c0.48,0.215,0.829,0.022,0.75,0.75
			c-0.938-0.542-1.855,0.164-3,0C286.53,51.521,283.542,49.663,281.962,47.44z M289.462,59.44c1.135,0.241,2.165,0.586,2.25,1.875
			C290.995,60.659,289.404,60.874,289.462,59.44z M299.587,59.815c-0.857-0.066-1.713,0.52-2.625,0.375
			c-2.75-0.436-5.537-1.7-7.5-2.625c1.775-0.164,4.229,0.607,6.375,1.125c0.967,0.232,2.17,0.946,3,1.125
			c0.438,0.095,1.951-0.702,2.625,0.375C300.922,61.53,300.408,59.878,299.587,59.815z M314.587,27.19
			c0.746,0.625,0.478-0.034,1.5,0c0.322,0.303,0.223,1.027,0.75,1.125c-0.152,0.934-1.453,0.022-1.125-0.75
			C315.363,27.795,314.33,28.438,314.587,27.19z M316.462,30.94c-1.236-0.014-1.433-1.066-1.5-2.25
			C315.812,29.09,316.326,29.828,316.462,30.94z M307.462,22.69c0.976,0.15,1.131,1.119,2.25,1.125c-0.31,1.528-0.057,1.291,0,3
			c-0.638,0.138-0.707-0.292-0.75-0.75c-0.364,0.01-0.29,0.459-0.375,0.75C307.543,25.986,306.906,24.032,307.462,22.69z
			 M306.712,62.815c0.053-1.072,1.564-0.686,2.625-0.75C308.976,62.828,307.898,62.875,306.712,62.815z M308.587,66.565
			c0.273-0.918,2.184-0.549,2.625-0.375c0.821,0.322,1.647,2.127,2.625,3c0.91,0.812,1.609,0.95,2.25,1.5
			C312.449,71.949,309.583,69.198,308.587,66.565z M318.337,69.94c-1.154,0.267,0.927-1.169-0.75-0.75
			c-0.064,0.016-0.627,0.273-0.375,0.375c-0.369-0.149-0.212-0.442,0-0.375c-1.758-0.562-2.229-0.466-3.75-1.875
			c0.094-0.407,0.746-0.254,0.75-0.75c1.264,0.339,0.045,0.839,0.75,1.5c0.426-0.071,0.209-0.377,0-0.375
			c1.586-0.45,3.814,1.678,6.375,1.5C321.106,71.012,318.827,68.835,318.337,69.94z M321.712,73.69
			c0.862-1.263,2.724-1.527,3.75-2.625C326.006,71.596,323.126,73.431,321.712,73.69z"/>
		<path fill-rule="evenodd" clip-rule="evenodd" d="M304.087,74.065c1.459-0.396,2.188,1.384,3.75,1.875
			c0.222,0.069,1.288,0.379,1.125,0.375c0.545,0.013,1.744-0.494,2.625,0.375C309.027,77.371,305.968,75.313,304.087,74.065z"/>
	</g>
	<g>
		<path fill-rule="evenodd" clip-rule="evenodd" d="M186,367.614c0.306-0.759,1.977,0.237,2.625,0.375
			C188.102,368.965,186.684,367.716,186,367.614z"/>
		<path fill-rule="evenodd" clip-rule="evenodd" d="M117.375,559.989c0.539-1.93-0.539-3.363-0.75-3.375
			c-0.219-1.969-1.191-3.911-1.5-5.625c-0.176-0.976-0.424-2.217-0.375-3c0.208-3.36,2.484-4.767,4.125-6.375
			c0.603-0.591,0.987-1.353,1.5-1.875c0.58-0.592,0.235-2.61,0-3.375c0.179-1.18-0.534-1.466-0.75-2.25
			c-1.477-1.273-3.814-1.687-4.5-3.75c0.994-1.839,1.108-4.052,1.5-6c0.856-4.257,1.887-8.149,3-12
			c0.814-2.817,1.957-5.53,2.25-8.25c0.631-5.859-0.761-9.922-1.875-13.875c-0.607-2.153-1.593-4.475-1.875-6.75
			c-0.756-6.102,0.036-9.614,1.125-14.625c0.549-2.531,1.31-5.23,1.5-7.875c0.252-3.516-0.419-6.715-0.375-9.75
			c0.034-2.373,1.381-3.668,1.5-5.25c0.796-0.579,1.67-1.078,2.625-1.5c1.796-2.387,4.035-4.663,5.25-8.25
			c0.284-0.84,0.439-1.614,0.75-2.625c0.238-0.775,0.53-1.784,0.75-2.625c1.26-4.814,1.011-11.168,1.875-16.125
			c0.296-1.702,1.197-3.501,1.5-5.25c0.799-4.611,0.562-9.916,1.125-14.25c0.149-1.152,0.735-1.974,0.75-3
			c0.017-1.154-0.566-1.926-0.375-3c0.451-2.54,2.889-5.42,4.125-7.125c0.414-0.571,0.507-1.953,1.5-1.5
			c0.059,0.441-0.064,1.064,0.375,1.125c0.478-0.938-0.191-1.174,0.375-1.5c0.703,0.422,0.796,1.453,1.5,1.875
			c0.393-1.061-0.619-2.572,0-2.625c0.708,0.041,0.26,1.239,1.125,1.125c-0.038-1.063-1.634-2.48,0-3
			c1.337,0.287,0.667,2.582,1.5,3.375c0.803-1.883-0.873-3.024-0.375-4.125c0.971-0.34,1.394-0.189,2.625,0
			c-0.522,1.789,0.147,3.582,0.75,5.25c0.868-0.632,0.92-2.08,1.875-2.625c-0.074,0.874,0.967,1.067,1.5,1.5
			c3.524,2.854,6.82,7.032,10.125,9.375c0.417,0.296,1.222,1.214,1.875,0.75c-1.5-1.212-4.408-3.377-4.125-4.875
			c0.584,0.97,1.85,1.19,3,1.875c1.985,1.181,3.242,2.373,4.875,1.5c-2.928-0.447-4.241-2.51-5.25-4.875
			c2.059,0.941,4.231,1.769,6.75,2.25c0.62,0.527,1.903,2.318,2.625,1.5c-0.408-0.09-0.9-0.617-0.375-0.75
			c0.152,0.723,1.454,0.296,1.125,1.5c0.498-0.055,1.395,1.261,1.5,0.375c-0.395-0.021-0.295-0.48,0.375-0.375
			c0.111,0.764,0.75,0.999,1.125,1.5c2.579,0.27,4.598,1.854,6.75,3c1.069,0.569,2.259,0.965,3.375,1.5
			c1.181,0.566,2.171,1.381,3.375,1.875c1.179,0.484,2.511,0.663,3.75,1.125c3.826,1.426,7.312,3.013,10.875,4.5
			c1.603,5.898,7.829,7.171,9.375,13.125c1.327-0.201,1.933,0.318,2.25,1.125c1.341,0.534,0.543,3.208,2.625,3
			c0.902-2.783-1.155-5.84-1.5-8.625c2.206,1.299,2.936,6.257,5.625,5.625c0.362-0.932-0.32-1.774-0.75-2.625
			c-1.394-2.763-3.584-5.077-4.5-7.875c-3.963-2.396-6.532-6.811-9.75-9.375c-0.469-0.374-1.271-0.365-1.875-0.75
			c-0.162-0.103-0.205-0.622-0.375-0.75c-0.288-0.216-0.864-0.215-1.125-0.375c-1.9-1.171-4.386-2.382-6-3.375
			c-0.914-0.563-1.748-0.984-2.625-1.5c-0.916-0.539-1.771-1.429-2.25-1.875c-0.302-0.281-0.768-0.122-1.125-0.375
			c-0.174-0.123-0.19-0.612-0.375-0.75c-0.313-0.234-0.843-0.176-1.125-0.375c-0.174-0.123-0.191-0.612-0.375-0.75
			c-0.305-0.229-0.85-0.188-1.125-0.375c-0.817-0.553-1.8-1.537-2.25-1.875c-0.281-0.211-0.873-0.226-1.125-0.375
			c-0.641-0.38-1.204-0.785-1.875-1.125c-1.208-0.612-2.12-0.685-3-1.125c-1.72-0.86,0.648-0.921,0.375-1.125
			c-0.214-0.16-0.864,0.085-1.125,0c-0.375-0.121-0.501-0.501-0.75-0.75c-0.667-0.666-0.702-0.397-0.375-1.5
			c-1.296,0.078-1.767,0.533-2.625-0.375c0.199-1.052,1.77-0.729,1.875-1.875c0.044-0.384-1.618-0.759-0.375-1.125
			c1.438,0.068,0.135-0.307,0.375-1.125c1.566-0.052,3.4,1.58,4.875,0.375c-1.485-0.205,0.855-1.137-1.125-1.5
			c0.227-0.647,1.778,0.029,1.875-0.75c-0.561-0.064-1.384,0.135-1.5-0.375c1.58-0.795,4.726-0.023,6-1.125
			c-1.263-0.237-3.483,0.483-4.125-0.375c1.629-0.138,1.131-0.65,1.5-1.5c-1.269-0.144-0.59,1.66-2.25,1.125
			c0.134-1.168-0.668-0.172-1.875-0.75c-0.765-0.366-1.411-1.146-1.875-1.5c0.765,0.322,2.066-0.59,1.125-0.75
			c-0.122,0.61-0.48-0.088-0.75-0.375c-0.363-0.386-0.563-0.753-1.125-1.125c-0.26-0.172-0.841,0.135-1.125,0
			c-0.129-0.062-0.23-0.653-0.375-0.75c-0.308-0.205-1.601-0.082-0.75-0.75c2.544,0.086,4.688,2.555,6.375,2.25
			c-1.619-0.586-3.11-1.766-4.875-2.625c-1.543-0.752-4.22-0.758-4.5-3c1.594,1.12,3.375,1.321,4.875,1.125
			c0.488-0.063,1.04,0.378,1.125,0.375c0.993-0.034,1.889-0.434,2.625-0.375c1.226,0.098,2.162,1.531,3.375,0.375
			c-1.793,0.418-1.582-1.168-3.375-0.75c-0.682-1.488-2.394-2.045-3.375-2.625c-1.098-0.647-1.577-1.391-2.25-1.875
			c-0.468-0.337-1.092-0.503-1.5-0.75c-0.886-0.537-1.878-0.712-2.625-1.5c0.952,0.166,2.712-0.739,1.875-1.125
			c-0.782,1.181-1.528,0.224-2.625,0.75c1.101-2.028,4.286-3.958,3.75-6.375c-0.211,0.914-0.322,1.929-1.5,1.875
			c-1.788,0.396-2.705-2.023-3.75-1.125c0.713,0.029-0.233,1.747-0.75,0.75c0.744-0.772,0.744-0.354,0-1.125
			c0.841-0.159,1.195-0.805,1.875-1.125c-1.298-0.393-1.996,1.714-3,0.375c0.034-0.591,0.957-0.293,0.75-1.125
			c-1.148,0.023-1.954,1.377-3,0.375c-0.224-0.668,1.099-1.558,0-1.875c-0.269,0.981-0.564,1.937-2.25,1.5
			c0.015-1.507,0.032-2.744,0.375-3c0.583,0.098,0.26,0.823,0,1.125c0.645,0.147,0.961-0.557,1.125,0
			c1.845-0.138-0.968-0.65-0.75-1.5c-1.002-0.248-2.343-0.157-3-0.75c-0.52-0.23-0.056-1.443-0.75-1.5
			c0.07,1.658,0.408,3.015,0.375,4.125c-0.002,0.068-0.725,0.041-0.75,0.375c-0.003,0.048,0.909,0.44,0.75,0.75
			c-1.229,0.021-1.433,1.066-3,0.75c-0.231-4.144-2.038-6.712-4.125-9c-0.064,0.561,0.134,1.384-0.375,1.5
			c-1.313-4.187-4.443-6.558-8.25-8.25c-1.297-0.297-1.583,0.417-2.25,0.75c-2.53-1.868-6.923-0.58-9.375,0.75
			c-1.316-0.434-2.024-1.476-3.75-1.5c-0.721,0.53-0.679,1.822-1.125,2.625c-2.2,0.051-2.906,1.595-4.125,2.625
			c-0.957,0.044-1.93,0.07-1.875,1.125c-1.367,3.668,1.735,6.22,1.875,9.75c0.068,1.732-0.708,3.095-0.75,5.25
			c-1.878,0.997-1.38,4.37-3.75,4.875c-2.644-2.617-3.112-7.59-4.875-10.875c-0.339-0.632-1.096-1.2-1.5-1.875
			c-0.227-0.379-0.18-0.811-0.375-1.125c-0.141-0.226-0.596-0.499-0.75-0.75c-1.35-2.2-0.92-3.331-1.125-6.75
			c-0.104-1.727-0.313-3.908-0.75-5.625c-0.287-1.125-1.007-2.036-1.125-3c-0.458-3.734,0.493-4.623,1.5-6.75
			c1.6-3.379,3.064-7.109,4.5-10.125c1.626-3.418,3.827-7.577,6-9.75c0.654-0.654,1.318-1.357,2.25-1.5
			c2.021,1.202,3.683,2.786,5.625,3.75c0.763,0.379,1.469,0.659,2.25,1.125c1.424,0.85,2.698,2.072,4.5,2.25
			c0.861-1.467-1.087-2.278-2.25-3.375c-1.017-0.959-3.673-1.58-1.875-3c1.28-0.888,2.092,1.896,3,2.625
			c1.177,0.185,0.99-1.292,1.875-0.375c1.57,0.93,2.449,2.55,4.875,2.625c-0.598-1.834-4.11-3.139-3.75-4.5
			c2.529-0.31,4.014,2.106,6,1.125c0.068-0.771-0.987-1.198-1.5-1.5c-2.92-1.716-7.253-2.549-9-4.875
			c-3.864-0.519-8.714-2.283-12.75-1.5c-1.808,0.352-2.579,1.89-4.125,3.75c-0.991,1.192-2.057,2.584-3,3.75
			c-2.298,2.842-4.765,4.762-6.375,6.75c-0.29,0.357-0.366,1.314-0.75,1.875c-0.107,0.156-0.611,0.226-0.75,0.375
			c-0.284,0.305-0.124,0.762-0.375,1.125c-0.12,0.173-0.614,0.193-0.75,0.375c-0.233,0.311-0.18,0.846-0.375,1.125
			c-1.631,2.34-5.006,5.893-5.25,7.875c-0.149,1.21,0.597,2.155,0.75,3.375c0.502,4.005-0.304,8.693,0,13.5
			c0.239,3.776,1.114,7.678,1.875,10.125c0.692,2.226,1.236,4.172,1.875,6.375c0.342,1.181,0.865,2.368,1.125,3.375
			c0.688,2.669,0.098,5.995,0.375,9.375c0.076,0.926,0.473,1.963,0.375,2.625c-0.292,1.971-2.204,3.483-2.625,4.875
			c-1.989,6.56,1.806,14.564,1.125,21.375c-2.531-2.694-5.777-5.627-9.375-8.625c-1.387-1.156-3.346-2.353-5.25-3.75
			c-1.907-1.398-3.621-3.604-5.25-4.125c-4.095-1.308-7.349,1.25-10.875,1.5c-0.771,0.055-1.74-0.312-2.625-0.375
			c-1.196-0.085-2.381,0.13-3.375,0c-1.561-0.204-3.006-0.885-4.5-1.125c-1.793-0.287-3.495-0.175-5.25-0.375
			c-9.073-1.037-18.158-3.025-24.75-6c-0.555-0.25-1.291-0.938-1.875-1.125c-0.565-0.182-1.293,0.129-1.875,0
			c-0.137-0.03-0.93-0.706-1.125-0.75c-1.028-0.229-2.269-0.133-3.375-0.375c-2.016-0.441-4.104-1.208-6-1.5
			c-2.707-0.416-5.603-0.483-8.25-0.75c-2.928-0.295-5.721-0.764-8.625-0.75c-1.751,0.874-2.52,2.73-2.625,5.25
			c2.816,1.793,6.449,4.086,9.75,4.875c0.887,0.212,2.129,0.042,3,0.375c0.088,0.034,0.269,0.671,0.375,0.75
			c0.834,0.626,2.475,0.747,3,1.125c2.445,1.764,3.547,4.922,6.375,6c0.104,0.886,1.001-0.43,1.5-0.375
			c0.462,0.538,1.29,0.71,2.25,0.75c2.379-0.525,3.398-3.229,6-3.375c0.859-0.049,1.723,0.609,3,1.125
			c1.05,0.425,2.329,0.717,3.375,1.125c4.702,1.835,8.332,3.771,12.375,5.625c3.063,1.406,5.776,2.924,9,3.75
			c6.565,1.682,12.344-0.005,21,1.125c1.125,2.628,3.203,4.974,4.125,7.125c0.392,0.915,0.333,1.985,0.75,3
			c0.112,0.272,0.601,0.745,0.75,1.125c0.996,2.537,2.05,4.474,3,6.375c0.474,0.949,0.625,2.2,1.125,3
			c0.334,0.536,1.14,1.021,1.5,1.5c1.036,1.38,1.874,2.258,2.625,3.375c1.034,1.539,1.904,3.629,2.625,4.875
			c0.945,1.632,2.367,2.713,3,4.5c-1.227,6.165-2.66,12.966-2.25,18.75c0.161,2.276-0.151,4.918,0,7.125
			c0.261,3.829,1.022,7.576,1.5,11.25c0.25,1.931,0.346,3.824,0.75,5.625c0.402,1.793,1.123,3.422,1.5,5.25
			c0.181,0.881-0.126,1.867,0,2.625c0.225,1.354,1.167,2.678,1.5,4.125c0.265,1.153,0.078,2.351,0.375,3.375
			c0.343,1.184,1.248,2.18,1.5,3.375c0.97,4.591-0.478,9.483,0,14.25c0.707,7.046,0.865,15.327,0.375,22.125
			c-0.168,2.33-0.975,4.882-1.125,7.125c-0.361,5.379,0.272,10.902,1.125,14.25c0.818,3.209,1.713,5.479,3,7.875
			C107.763,556.87,115.913,565.221,117.375,559.989z M181.875,368.739c-0.247,0.504-0.802,0.698-1.5,0.75
			c-0.401-0.35-0.117-1.383-1.125-1.125C179.773,367.389,181.191,368.638,181.875,368.739z M178.125,357.864
			c-1.093,0.701-2.51-1.478-4.125-1.5C175.666,355.09,176.743,357.609,178.125,357.864z M170.25,351.489
			c0.227,0.647,1.778-0.029,1.875,0.75c0.557-0.164-0.148-0.48,0-1.125c0.87,0.12,1.439-0.061,1.875-0.375
			c-0.164-0.557-0.48,0.147-1.125,0c0.231-0.334,0.454-0.671,0-0.75c0.318-1.339,0.923-0.045,2.25-0.375
			c-1.831,1.545-1.969,4.781-6,4.125C169.484,352.973,169.891,352.255,170.25,351.489z M169.5,351.114
			c-0.016,2.183-2.368,0.577-2.625,1.875C166.01,352.2,168.132,349.727,169.5,351.114z M166.5,351.489
			c0.263,1.298-1.315,1.345-1.875,0.75C164.942,351.683,165.832,351.697,166.5,351.489z M163.5,345.864
			c-0.887-0.488-0.723-2.027-1.125-3C164.064,342.813,164.064,344.673,163.5,345.864z M163.875,349.989c0,0.625,0,1.25,0,1.875
			c-1.257,0.258-1.371-0.629-1.5-1.5C163.047,350.412,163.166,349.905,163.875,349.989z"/>
	</g>
	<g>
		<path fill-rule="evenodd" clip-rule="evenodd" d="M300.206,399.721C300.217,399.768,300.217,399.756,300.206,399.721
			L300.206,399.721z"/>
		<path fill-rule="evenodd" clip-rule="evenodd" d="M315.95,561.707c10.235-1.484,27.293,0.147,29.221-2.373
			c0.297-1.632,0.297-2.639-0.07-3.087c-1.112-1.354-3.45-1.023-6.375-1.5c-3.33-0.54-7.812-2.35-12-2.625
			c-1.518-1.606-2.832-3.419-4.5-4.875c-2.871-9.647-5.456-20.619-8.25-31.125c-0.424-1.592-0.996-3.037-1.125-4.5
			c-0.364-4.131,0.75-8.699,0.75-13.125c0-2.427-0.465-4.844-0.375-7.125c0.117-3.021,0.942-6.065,1.125-9
			c0.492-7.936-1.888-15.524-0.75-23.625c1.166-1.019,2.453-1.564,3.75-2.25c1.688-0.891,3.328-1.663,4.875-2.625
			c0.287-0.178,0.793-0.15,1.125-0.375c0.61-0.414,0.922-1.144,1.5-1.5c1.175-0.722,2.531-1.173,3.75-1.875
			c1.32-0.76,2.464-1.759,3.75-2.25c1.329-0.507,3.023-0.679,4.5-1.125c2.855-0.862,5.959-1.682,8.625-3
			c0.556-0.274,0.518-0.742,1.125-1.125c0.457-0.287,1.039-0.074,1.5-0.375c0.787-0.513,1.484-1.36,2.25-1.875
			c0.84-0.564,1.866-0.975,2.625-1.5c0.135-0.092,0.256-0.695,0.375-0.75c0.191-0.086,0.576,0.116,0.75,0
			c0.139-0.092,0.253-0.695,0.375-0.75c0.918-0.414,1.32-0.945,2.25-1.875c0.182-0.182,0.57-0.192,0.75-0.375
			c0.387-0.395,0.393-1.16,0.75-1.5c0.2-0.19,0.558-0.19,0.75-0.375c1.131-1.082,3.307-3.115,6-3
			c2.363,3.162,1.408,9.182,2.25,13.875c0.305,1.698,1.189,3.632,1.875,5.625c0.629,1.833,1.092,3.655,1.875,5.25
			c1.268,2.58,4.152,7.496,6.375,7.875c1.736,0.297,5.555-1.875,8.25-3c0.781-0.326,1.559-0.436,2.25-0.75
			c2.813-1.277,6.117-3.163,9-4.875c1.508-0.895,3-1.756,4.5-2.625c1.365-0.789,4.992-2.423,6-3.75
			c0.248-0.326,0.119-0.482,0.375-0.75c0.16-0.167,1.379-3.354,1.5-4.125c0.418-2.661-0.141-5.786,0.375-8.625
			c0.652-3.598,2.584-6.415,1.875-9.75c-2.654,0.346-1.07,4.932-3.375,5.625c0.09-1.589-0.344-2.655-0.75-3.75
			c-0.297-0.991-1.762,0.84-1.875-0.75c-1.059-0.067-0.467-1.782-1.875-1.5c-0.857,1.909,1.254,3.351,1.875,5.25
			c0.697,2.131,0.727,3.759,0,6.375c-2.514-0.986-1.752-5.248-5.25-5.25c-0.906,2.428,1.648,4.094,2.25,6.375
			c0.529,2.016,0.246,4.354,0,6.75c-0.785,1.974-3.209,1.972-4.875,2.625c-0.949,0.373-1.639,0.778-2.625,1.125
			c-4.043,1.421-8.697,2.779-13.875,3.75c-0.215-4.683-2.83-9.001-3.375-13.875c-0.646-5.777,0.736-10.591-1.5-15.375
			c-1.139-2.435-3.193-3.918-4.875-6.375c-0.549-0.8-1.072-1.523-1.5-2.25c-1.859-3.161-4.003-6.667-2.25-10.875
			c1.863-1.095,3.555,2.454,6.375,1.875c1.191-0.244,1.408-0.525,2.25-1.875c0.244-1.029,0.844,0.04,1.5-0.75
			c0.348-0.419-0.02-1.148,0.375-1.5c0.334-0.297,0.822-0.065,1.125-0.375c0.662-0.678,1.467-2.142,3.75-1.5
			c0.629-1.296-0.307-2.484,0-4.5c0.459,0.12,2.316-0.06,1.125-0.375c-0.461-0.163-0.771-0.479-0.75-1.125
			c0.619-1.005,2.047-1.203,2.625-2.25c0.557-2.642,0.936-4.862,0-7.875c-1.365-4.396-3.625-6.1-7.5-9
			c-0.215-0.159-0.586-0.66-0.75-0.75c-0.861-0.467-2.039-0.332-3-0.75c-1.629-0.709-3.414-2.787-5.625-3.375
			c-1.199-0.317-3.477,0.067-4.875,1.125c-0.99,0.75-1.177,2.34-2.25,2.625c-0.445,1.352-0.279,2.515-0.75,3.75
			c-0.339,0.89-1.194,1.643-1.5,2.625c-0.825,2.645-0.396,5.633-1.125,9.375c-0.225,0.975,0.15,1.35,1.125,1.125
			c-0.462,0.381,0.086,1.112,0,1.5c-0.514,2.3-4.32,5.264-7.875,4.875c0.701-6.345-0.397-12.065,0.375-17.25
			c0.27-1.813,0.922-3.521,1.5-5.25c0.978-2.923,2.312-5.889,3-9.75c3.908-1.979,8.635-2.731,13.5-3.75
			c2.527-0.528,5.016-0.821,7.5-1.125c3.879-0.473,7.588-0.836,9.75-3.375c0.254-0.299,0.453-1.035,0.75-1.5
			c0.809-1.263,1.328-2.702,2.25-4.5c0.445-0.867,1.297-1.87,1.5-2.625c0.408-1.526,0.332-4.093,0.375-6
			c0.041-1.881,0.174-3.881-0.375-5.625c-1.875,1.036-1.236,5.008-1.875,7.875c-1.984-1.767-3.117-4.382-4.5-6.75
			c-1.137,0.55-1.053,0.802-2.25,0c-1.238,0.903,0.477,1.994,0.75,2.625c1.031,0.579-1.594,0.622-0.75,2.25
			c0.531,1.996,1.375,3.569,1.125,5.625c-0.285,2.356-2.223,3.628-3,5.25c-4.994-0.217-9.926-0.683-14.625-0.375
			c-5.158,0.339-9.875,1.769-14.625,1.875c-1.075,0.336-1.002,1.47-1.5,2.25c-0.416,0.652-1.113,1.244-1.5,1.875
			c-1.721,2.806-3.061,5.783-4.5,9c-1.979,4.423-3.67,9.852-4.875,15.375c-0.389,1.78-0.62,3.802-1.125,5.625
			c-0.056,0.199-0.719,0.984-0.75,1.125c-0.272,1.212-0.256,2.979-0.75,4.125c-0.377,0.875-1.266,1.714-1.875,2.625
			c-1.314,1.966-2.853,4.578-4.125,7.125c-0.326,0.652-0.772,1.459-1.125,2.25c-0.404,0.906-0.359,1.949-0.75,2.625
			c-0.508,0.878-1.594,1.426-2.25,2.25c-0.422,0.531-0.321,1.01-0.75,1.5c-0.315,0.359-0.783,0.727-1.125,1.125
			c-0.234,0.271-0.136,0.511-0.375,0.75c-0.188,0.188-0.563,0.188-0.75,0.375c-0.419,0.419-0.436,1.2-0.75,1.5
			c-0.331,0.315-1.13,0.4-1.5,0.75c-0.316,0.299-0.521,0.737-0.75,1.125c-1.71-0.829-4.342-1.311-5.625-1.5
			c2.91-5.954,5.303-12.146,6.75-18.75c0.217-0.988,0.133-1.982,0.375-3c0.178-0.748,0.536-1.396,0.75-2.25
			c0.406-1.63,0.67-3.55,1.125-5.25c0.225-0.842,0.955-1.445,1.125-2.25c0.164-0.783,0.201-1.789,0.375-2.625
			c0.163-0.784,0.624-1.803,0.75-2.625c0.153-1.007-0.192-2.026,0-3c1.197-6.071,4.456-12.357,6.75-18.75
			c0.572-1.597,0.955-3.256,1.5-4.875c0.277-0.825,0.438-1.71,0.75-2.625c0.205-0.601,0.902-1.264,1.125-1.875
			c0.59-1.614,0.852-3.32,1.5-4.875c0.333-0.798,0.798-1.439,1.125-2.25c0.134-0.331,0.199-0.681,0.375-1.125
			c0.26-0.66,1.099-2.189,1.875-3c1.431-1.493,2.662-5.89,3.75-8.25c0.307-0.666,0.745-1.659,1.125-2.625
			c1.02-2.594,1.114-5.508,2.625-7.875c-0.506-1.105,0.092-2.694,0.375-4.5c0.461-2.945,1.538-5.515-0.75-7.125
			c-0.507-0.355-1.866-0.835-2.625-0.75c-2.008,0.225-2.209,2.205-3.375,4.125c-0.297,0.488-0.91,0.693-1.125,1.125
			c-0.192,0.384-0.288,0.937-0.375,1.125c-0.651,1.413-1.184,3.942-2.25,5.625c-1.896,2.996-4.912,4.49-8.625,6
			c0.25,1.751-0.604,2.397-1.125,3.375c0.495,1.115,0.594,2.282,1.125,3.75c0.422,1.168,1.569,2.297,1.5,3.375
			c-0.094,1.452-2.365,3.362-3.75,5.25c-1.434,1.954-2.56,4.072-3.375,5.25c-0.627,0.905-1.256,1.685-1.875,2.625
			c-0.267,0.403-0.486,1.089-0.75,1.5c-0.093,0.144-0.695,0.251-0.75,0.375c-0.462,1.024-1.17,2.111-1.875,3.375
			c-0.482,0.863-1.147,1.82-1.5,2.625c-0.403,0.92-0.421,2.098-0.75,3c-0.773,2.117-1.854,4.15-2.625,6.75
			c-0.527,1.778-0.947,4.609-1.5,7.125c-0.386,1.755-1.158,3.605-0.75,5.625c-0.615-0.463-0.566-0.268-0.75,0.375
			c-0.02,0.067,0.51,0.676,0.375,0.75c-0.244,0.135-0.438-0.206-0.375-0.375c-1.3,3.512-2.15,6.09-4.125,9.375
			c-0.469,0.781-0.701,1.603-1.125,2.25c-0.213,0.324-0.908,0.441-1.125,0.75c-0.516,0.737-0.807,2.487-1.875,3
			c-0.105,0.671,0.354,0.77,0.375,0.375c1.353,0.725-0.809,0.424-0.75,0.375c-0.543,0.45-0.242,1.455-1.125,1.5
			c-0.223,0.766,0.703,2.067,0,1.125c-0.93-0.771-0.62,1.716-0.375,0.75c-0.076,0.301,0.381-0.024,0,0.375
			c-0.181,0.189-0.807,0.002-0.75,0.375c0.014,0.099,0.235,0.614,0.375,0.375c-0.532,0.911-0.637-0.553-0.375,0.75
			c0.107,0.541-0.85-0.291-0.75,0.375c0.054,0.368,0.09,0.535,0.105,0.599c0.012,0.035,0.012,0.047,0,0
			c-0.037-0.11-0.191-0.448-0.48,0.151c-0.035,0.072,0.521,0.67,0.375,0.75c0.053-0.028-1.534-0.552-0.375,0.375
			c0.055,0.518-1.525-0.159-0.375,0.75c0.055,0.518-1.525-0.159-0.375,0.75c-0.376,0.518-0.619-0.159-1.125,0.75
			c-0.048,0.928,0.459,0.638,0.375,0c1.123,0.247-0.359,0.802,0,1.5c-0.305-0.071-0.374-0.376-0.75-0.375
			c1.237,1.323-0.93,0.688,0,1.125c-1.443,4.782-4.447,9.66-6.75,14.625c-0.284,0.611-0.104,1.021-0.375,1.5
			c-0.178,0.313-0.627,0.521-0.75,0.75c-0.112,0.208,0.17,0.976,0,1.125c-0.102,0.09-0.689-0.109-0.75,0
			c-0.457,0.816-0.426,1.841-0.75,3.375c-0.138,0.646-0.341,1.69-0.375,2.25c-0.21,3.422,1.146,6.677,1.5,10.125
			c0.359,3.519-0.414,6.926,0,10.5c0.548,4.743,2.313,9.443,3,14.25c0.744,5.211,0.419,10.511,1.125,15.75
			c0.936,6.957,3.693,14.167,4.5,22.125c0.413,4.089,0.687,8.37,1.125,12.375c0.445,4.068,0.559,8.07,1.5,11.625
			c1.206,4.559,3.604,8.598,5.625,12.75c1.641,3.375,3.366,6.855,5.25,10.5c1.088,2.106,1.496,5.817,1.5,9
			C312.127,558.133,314.625,561.898,315.95,561.707z"/>
	</g>
	<path fill-rule="evenodd" clip-rule="evenodd" d="M711.739,123.643c-0.445-0.623-0.668-1.395-1.125-1.875
		c-0.383-0.401-0.922-1.058-1.5-1.5c-0.328-0.249-0.766-0.122-1.125-0.375c-0.303-0.211-0.424-0.938-0.75-1.125
		c-2.127-1.209-4.902-1.602-6.75-2.625c-0.775-0.429-1.199-1.26-1.875-1.5c-0.535-0.189-1.496-0.215-2.25-0.375
		c-0.656-0.14-1.568-0.229-2.25-0.375c-1.326-0.283-2.854-0.852-4.125-1.125c-3.191-0.684-6.357-0.646-9.375-1.125
		c-2.723-0.431-5.645-1.414-8.25-2.25c-2.643-0.848-5.002-1.858-7.5-3c-5.146-2.35-10.039-4.154-14.625-6.375
		c-4.836-2.341-9.174-4.957-13.875-7.5c2.168-1.081,4.754-1.275,7.125-1.875c2.391-0.604,5.131-1.941,7.125-2.25
		c-0.018,0.003,0.615,0.441,1.125,0.375c0.234-0.031,0.418-0.542,1.125-0.375c1.967,0.467,2.574,2.323,4.125,3.375
		c1.09,0.741,2.582,0.774,3.75,1.5c1.867,1.16,3.047,3.927,5.625,3.75c1.344-3.203-4.525-4.174-3.75-6.375
		c4.367,0.28,6.23,3.156,8.25,5.25c0.703,0.73,1.234,2.128,2.625,1.875c1.262-0.609-0.656-1.502-0.375-2.25
		c0.018-0.047,0.783-0.284,0.75-0.375c-0.729-1.924-2.723-1.585-3.375-3.375c1.934,0.316,2.807,1.691,5.25,1.5
		c0.672-1.368-1.309-1.525-1.875-1.875c-1.053-0.647-2.053-1.021-3-1.5c-0.152-0.076-0.193-0.663-0.375-0.75
		c-0.309-0.146-0.816,0.142-1.125,0c-1.756-0.8-2.631-1.95-4.125-2.625c-1.025-0.462-2.174-0.331-3.375-0.75
		c-0.992-0.345-1.996-1.134-3-1.5c-2.252-0.82-4.727-1.099-6.375-2.625c-1.285,0.191-2.076,0.876-3.375,1.125
		c-1.314,0.252-3.068,0.257-4.5,0.375c-6.99,0.575-16.154-0.523-22.125,0.75c-1.549,0.33-2.932,1.367-4.5,1.875
		c-1.771,0.572-3.846,0.678-5.625,1.125c-3.422,0.859-6.975,2.602-10.125,3c-2.816,0.356-5.551-0.375-8.25-0.375
		c-1.918,0-3.914,0.454-6,0.75c-1.537,0.218-3.6,0.771-4.5,0.75c-0.543-0.013-0.674-0.525-1.5-0.375
		c-0.49,0.089-0.955,0.565-1.5,0.75c-2.148,0.727-3.816,0.61-5.25,1.875c-1.645,0.273,0.301-0.745-0.75-0.75
		c-1.975,0.391-4.201,0.443-6.375,0c-0.967-1.909-1.953-3.799-1.875-6.75c1.846-1.653,4.922-2.078,7.5-3
		c1.182-1.652-0.844-4.317,0.75-5.25c0.039-0.984-0.861-1.232-1.125-1.875c-0.158-0.381,0.521-0.569,0.375-1.125
		c-0.059-0.217-0.996-0.521-1.125-0.75c-0.428-1.682,1.963-1.675,0.75-3c-1.365-1.387-3.367-2.135-5.25-3
		c-0.527-2.399-1.295-4.086-2.625-5.625c-1.063-1.228-2.783-1.688-3.375-3.375c-9.648-3.433-17.805,2.44-21,9
		c0.205,1.424-1.619-0.386-1.875,1.125c-0.531,0.504-0.234,1.232-0.375,1.875c-0.275,1.249-0.613,1.179-0.75,1.875
		c-0.158,0.803-0.014,2.417,0,2.625c0.029,0.476-0.521,0.522-0.375,1.125c0.463,1.902,1.865,2.981,4.125,3.75
		c-0.043,1.995,2.041,4.024,3,4.875c0.135,0.121,0.621-0.128,0.75,0c0.098,0.1-0.117,0.684,0,0.75
		c0.764,0.446,1.803,0.729,2.625,0.375c0.338,0.825-0.201,1.756,1.875,1.5c-0.436,0.784,0.176,1.409-1.125,1.875
		c0.377,0.83,1.289-0.924,2.625-0.375c-0.045,1.832,0.201,3.952-0.375,5.25c-2.59,0.824-5.367,0.724-7.875,0.375
		c-2.189-0.304-4.438-1.399-6.75-1.875c-1.947-0.4-4.031-0.188-5.625-0.75c-2.23-0.786-4.828-3.258-6.75-4.125
		c-0.123-0.055-0.236-0.657-0.375-0.75c-0.174-0.115-0.559,0.086-0.75,0c-0.125-0.056-0.234-0.658-0.375-0.75
		c-0.697-0.45-1.484-0.67-2.25-1.125c-2.334-1.383-4.658-2.739-6.75-4.125c-0.844-2.172-0.832-4.406-1.125-6.75
		c-0.416-3.285-1.188-6.804-1.125-10.5c0.018-1.149,0.043-2.227,0-3.375c-0.094-2.47,0.135-5.233-0.75-7.125
		c-1.219-2.6-5.477-3.694-8.25-4.875c-1.131-0.479-2.107-1.246-3-1.5c-2.293-0.651-4.555-0.559-6.75-1.125
		c-2.203-0.567-4.068-1.957-6.375-1.875c-0.924,2.061,1.588,2.839,3,3.75c0.959,0.62,2.174,1.128,3,1.5
		c0.664,0.3,0.846,1.9,1.875,1.5c-0.174,1.328-0.836,2.166-0.75,3.75c0.545,0.58,1.918,0.33,3,0.375
		c1.039,0.085,1.061,1.189,1.875,1.5c2.002,0.373,4.049,0.7,6,1.125c-0.531,4.913-1.74,10.117-1.5,15.375
		c0.07,1.553,0.621,3.464,0.75,5.25c0.117,1.669-0.359,3.451,0,4.875c0.412,1.644,3.463,4.821,6,7.125
		c0.248,0.227,0.877,0.183,1.125,0.375c0.313,0.245,0.451,0.847,0.75,1.125c3.209,3.013,5.965,5.329,9.375,7.5
		c3.041,1.937,6.908,3.704,9.375,5.625c0.314,0.246,0.434,0.865,0.75,1.125c0.318,0.265,0.762,0.122,1.125,0.375
		c0.309,0.217,0.424,0.914,0.75,1.125c0.578,0.377,1.488,0.374,2.25,0.75c2.836,1.402,6.018,2.921,7.875,4.5
		c2.977,2.532,5.867,5.178,8.625,7.5c1.211,1.021,2.238,2.016,3.375,3c0.555,0.482,1.338,0.637,1.875,1.125
		c0.277,0.254,0.117,0.842,0.375,1.125c0.1,0.112,0.604-0.065,0.75,0c0.094,0.043,0.275,0.66,0.375,0.75
		c1.119,1.018,2.281,1.976,3.375,3c1.748,1.641,3.395,3.396,4.875,4.875c0.967,0.968,1.463,1.339,1.875,2.25
		c0.055,0.124,0.656,0.232,0.75,0.375c0.217,0.338,0.455,1.036,0.75,1.5c0.293,0.463,0.43,0.965,0.75,1.5
		c0.289,0.487,0.941,0.777,1.125,1.125c0.49,0.933,0.727,2.268,1.125,3.375c1.004,2.793,1.186,3.787,0.75,6.75
		c-0.172,1.156-0.254,2.345-0.375,3.375c-1.963,16.669-2.33,31.24-3,48.75c0.217,1.354,1.732,1.589,2.625,2.25
		c0.832,0.618,1.447,2.07,3,1.875c-0.123,1.378-0.43,2.57-1.125,3.375c0.643,0.245,0.855,0.82,1.125,1.125
		c1.256,1.423,2.996,1.949,4.5,3c-0.605,1.021-0.24,3.01-1.125,3.75c0.773,0.341,1.916,0.285,3,1.125
		c1.383,0.959-1.115,2.049,0,2.625c1.934,1.081,3.588,1.076,4.875,0.375c0.48-0.263,0.213,0.116,0.75,0
		c0.762-0.166,1.441-0.576,1.875-0.375c0.316,2.191-0.27,4.411-0.375,6.75c-0.336,7.378,0.539,15.449-0.375,22.125
		c-0.207,1.501-0.756,2.963-1.125,4.5c-0.402,1.668-0.59,3.287-1.125,4.5c-0.715,1.612-1.766,2.639-3,3.75
		c-1.344,3.406-3.467,6.035-5.25,9c-0.275,0.001,1.01,5.621,3,4.875c1.887-0.073,4.018,0.385,5.893-0.74
		c1.648-0.99,2.744-2.452,4.424-4.897c1.678-2.445,3.572-6.862,4.684-10.487c0.424-1.388,1.076-3.591,1.125-4.5
		c0.092-1.742-0.822-3.696-0.75-5.625c0.07-1.938,0.959-4.241,1.875-6.75c1.553-4.256,3.043-8.769,4.5-12.75
		c0.797-2.18,1.955-3.994,2.625-6c0.717-2.152,0.543-4.454,1.125-6.375c0.146-0.487,0.932-1.039,1.125-1.5
		c0.715-1.725,0.727-3.198,1.125-4.875c0.504-2.142,0.986-4.32,1.125-6.75c0.299-5.264-1.248-10.897,1.875-13.875
		c-0.631-5.005,2.816-5.933,3.75-9.375c2.223-1.025,3.572-2.928,5.625-4.125c0.416-2.333,1.85-3.649,3-5.25
		c1.088-0.663-1.305-1.861,0-2.625c0.908-1.201,0.455-1.322,0-2.625c1.504-0.301,2.469-2.222,3.375-3.375
		c0.393-0.503,0.938-0.747,1.125-1.125c0.252-0.514,0.346-1.862,0.75-3c0.328-0.931,0.934-1.82,1.125-2.625
		c0.541-2.287,0.305-4.691,0.75-6.75c0.732-3.387,2.74-5.797,0.75-7.875c-0.113-0.117-0.639-0.281-0.75-0.375
		c-0.299-0.245-0.496-0.473-0.75-0.75c0.258-1.365,1.52-1.729,1.5-3.375c0.252-1.179-1.344-1.936-1.5-2.25
		c-0.16-0.32,0.008-1.135,0-1.5c-0.041-1.576,1.576-3.243,1.875-4.875c0.189-1.043-0.439-2.268-0.375-3.375
		c0.027-0.472,0.627-1.275,0.75-1.875c0.494-2.454,0.588-4.672,1.125-6.75c0.777-3.013,2.063-5.514,3-7.5
		c2.953,1.543,4.828,4.05,8.625,5.25c2.402,0.76,5.795,0.688,9.375,1.125c2.875,0.352,5.789,0.725,8.625,1.125
		c4.174,0.589,8.859,1.185,12.375,1.875c1.564,0.308,2.881,0.584,3.75,1.125c0.4,0.25,0.861,0.008,1.125,0.375
		c0.201,0.282,0.242,0.919,0.375,1.125c0.342,0.536,0.561,1.303,0.75,1.5c1.266,1.322,2.264,3.138,4.125,3.375
		c3.58,0.458,5.455-2.796,7.5-3.375c1.557-0.359,4.035,0.338,4.5,0.375c0.707,0.058,0.832-0.449,1.5-0.375
		c1.846,0.205,3.365,1.032,4.5,1.125c0.381,0.031,0.641-0.365,0.75-0.375c0.479-0.044,0.51,0.459,1.125,0.375
		c1.271-0.174,1.219-0.896,1.5-0.375c1.342,0.206,3.668,0.839,4.875,0C713.499,123.823,712.006,124.018,711.739,123.643z
		 M623.239,101.143c-1.715,2.314-4.039,4.381-5.25,7.125c-0.715,0.161-0.943,0.808-1.875,0.75c-0.121,0.88-0.594,1.407-0.375,2.625
		c-1.482,1.976-2.799,3.941-4.125,6c-1.277,1.979-2.959,4.012-3.375,6.75c-0.988,0.514-1.422,1.579-2.625,1.875c0,0.75,0,1.5,0,2.25
		c-2.488-0.565-1.936,1.075-2.25,1.875c-2.559,0.095-3.51-2.286-4.875-4.125c-0.461-0.617-1.148-1.036-1.5-1.5
		c-0.254-0.332-0.137-0.812-0.375-1.125c-0.793-1.035-2.676-2.455-3.75-3.75c-0.258-0.311-0.111-0.84-0.375-1.125
		c-0.127-0.135-0.664-0.234-0.75-0.375c-0.17-0.272,0.137-0.834,0-1.125c-0.082-0.171-0.688-0.235-0.75-0.375
		c-0.27-0.594-0.16-1.033-0.375-1.5c-1.039-2.248-2.631-5.444-2.25-9c2.059-2.109,4.9-2.333,7.5-3
		c5.256-1.35,10.301-3.436,15.375-5.625c0.184-0.08,0.613-0.708,0.75-0.75c0.334-0.102,0.799,0.128,1.125,0
		c0.189-0.075,0.609-0.708,0.75-0.75c0.34-0.103,0.787,0.115,1.125,0c1.213-0.418,2.518-1.22,3.75-1.5
		c3.029-0.69,6.596-0.189,9.75-1.5c0.959-0.017,0.457,0.279,0.375,0.75C626.409,95.847,625.059,98.684,623.239,101.143z"/>
	<g>
		<path fill-rule="evenodd" clip-rule="evenodd" d="M632,328.265c0.563-0.813,1.877-0.873,1.875-2.25
			C632.522,325.808,631.026,327.386,632,328.265z"/>
		<path fill-rule="evenodd" clip-rule="evenodd" d="M560.596,429.7c-0.207,0.045-0.41,0.108-0.596,0.189
			C560.272,429.879,560.461,429.808,560.596,429.7z"/>
		<path fill-rule="evenodd" clip-rule="evenodd" d="M713,314.765c-2.67-0.83-5.543-1.457-7.875-2.625
			c1.996-1.628,6.346-0.904,7.125-3.75c-3.838-0.549-8.041,1.681-12.375,1.875c-2.715,2.231-6.059,3.506-9.375,4.875
			c-4.143,1.709-8.371,4.02-12,6c-1.799,0.982-3.027,1.384-4.875,2.25c-0.857,0.402-1.428,1.127-2.25,1.5
			c-0.865,0.392-1.838,0.396-2.625,0.75c-1.275,0.573-3.018,1.75-4.125,2.25c-0.129,0.058-0.225,0.66-0.375,0.75
			c-0.723,0.436-1.988,0.647-2.625,1.125c-0.508,0.38-1.141,1.169-1.5,1.5c-0.652,0.602-1.076,0.964-1.875,1.5
			c-2.596,1.741-5.779,2.875-8.25,4.5c-0.602,0.396-0.957,1.135-1.5,1.5c-0.326,0.22-0.844,0.209-1.125,0.375
			c-2.453,1.453-6.465,0.643-9.375,1.5c-0.148,0.044-0.889,0.613-1.125,0.75c-0.576,0.335-1.031,0.494-1.5,0.75
			c-0.723,0.394-2.174,0.073-2.932-0.026c-0.889-0.116-2.395-0.748-3.242-0.194c-0.688,0.447-0.77,1.483-0.934,2.206
			c-0.475,2.087-1.471,2.971-3.359,3.828c-0.406,0.185-0.844,0.351-1.236,0.563c-0.211,0.114-0.469,0.233-0.6,0.445
			c-0.092,0.146-0.051,0.423-0.129,0.53c-0.121,0.161-0.316,0.245-0.693,0.148c-0.303-1.573-1.318-2.432-1.5-4.125
			c1.98,0.765,0.49-0.945,1.125-2.249c-0.049,0.097,0.846-0.248,0.912-0.292c0.322-0.22,0.51-0.442,0.93-0.485
			c-0.189-0.541,0.021-1.505,0.23-2.016c0.133-0.323,0.326-0.612,0.541-0.886c0.143-0.181,0.734-0.618,0.762-0.822
			c0.271-2.013,1.082-3.605,1.5-4.875c0.156-0.479-0.166-1.53,0.75-1.5c0.859-0.1,1.227-0.129,1.301-0.146
			c0.227-0.05-2.162,0.015-1.676-1.354c2.121-0.772,1.861,2.075,3,1.125c0.314-0.436,0.494-1.006,0.375-1.875
			c0.773,0.33,1.42-1.235,0.75-1.125c-0.988,0.881,0.287-2.218-0.375-2.25c-0.002-1.001,1.186-0.814,1.125-1.875
			c-0.871-0.995-1.004,0.995-1.875,0c-0.063-1.187,0.996-1.253,0.75-2.625c-1.801-0.575-2.16-2.589-3.375-3.75
			c0.645,0.021,0.961-0.289,1.125-0.75c-0.9-1.191-2.236,1.513-3.375,0c0.602-0.422,2.793-1.172,1.5-2.25
			c-1.1,0.72-1.633,1.753-2.625,2.25c-0.338,0.169-0.801-0.637-1.5-0.375c-0.309,0.116-0.16,1.903-1.125,1.125
			c-1.084-0.292-1.381-1.369-2.25-1.875c-1.35,0.051-3.439,0.024-4.875-0.375c-0.617-0.172-0.838-0.697-1.5-0.75
			c-0.535-0.043-1.137,0.321-1.875,0.375c-3.199,0.231-4.309,0.51-6,1.5c-0.645,0.377-0.996,1.433-1.875,0.75
			c-0.113,0.737,0.506,0.743,0.75,1.125c-2.686,2.065-4.402,5.098-4.5,9.75c-0.992,1.883-3.383,2.368-3.75,4.875
			c0.316,1.184,1.934,1.067,2.25,2.25c0.002,2.477-1.209,7.518,0.75,8.625c1.957,1.107,8.225-1.212,9.375,2.25
			c0.811,2.441-0.367,6.046-0.375,9.375c-0.916,0.875-2.113,1.087-3,1.875c-1.369,1.218-1.553,2.706-3.375,3.375
			c-0.588,0.216-0.916-0.396-1.5-0.375c-1.354,0.049-3.141,0.924-4.5,1.125c-1.828-2.831-6.508-2.401-9.375-1.5
			c-5.025,1.58-8.6,4.214-10.875,7.875c-0.84,1.35-1.531,2.896-1.875,4.5c-5.09,2.3-10.846,2.471-15.375,4.5
			c-1.324,0.594-2.746,1.423-3.75,1.875c-0.131,0.059-0.223,0.66-0.375,0.75c-1.432,0.837-2.969,1.398-4.5,2.25
			c-3.121,1.735-6.016,3.194-9,4.5c-0.705,0.309-1.383,0.744-2.25,1.125c-0.848,0.373-1.938,0.307-2.625,0.75
			c-0.605,0.391-1.568,1.56-2.25,2.25c-1.693,1.715-2.754,3.255-4.125,4.875c-1.91,2.256-4.248,3.514-6.75,4.875
			c-0.23,1.205,1.35,0.514,0.375,1.5c-1.711,1.413-4.086,2.164-5.625,3.75c1.994,1.102,4.186-0.461,5.625-1.125
			c-0.115,1.762-2.869,2.457-1.875,4.125c1.896-0.237,2.852-3.386,4.125-3c-0.33,2.419-1.299,4.201-1.5,6.75
			c2.598-0.087,2.811-3.763,3.375-5.625c0.043-0.141,0.695-0.551,0.75-0.75c0.287-1.038-0.045-2.274,0.375-3
			c1.008-1.745,2.834-2.838,4.5-2.625c-0.537,1.8-1.266,5.116-0.375,7.125c3.393-0.475,1.984-4.026,2.625-6.375
			c0.197-0.725,0.992-1.771,1.5-3c0.371-0.9,0.611-2.718,1.125-3.375c0.916-1.17,3.293-1.971,4.875-2.25
			c0.732-0.129,1.439-0.201,2.25-0.375c1.984-0.425,4.412-1.156,5.625-1.5c0.723-0.204,1.412-0.148,2.25-0.375
			c4.271-1.156,9.08-2.963,12.75-4.125c0.342-0.107,0.781,0.104,1.125,0c0.139-0.042,0.561-0.674,0.75-0.75
			c0.602-0.242,1.354-0.127,1.875-0.375c0.568-0.271,0.916-0.907,1.5-1.125c2.639-0.982,5.436-0.953,7.5-1.875
			c1.35,1.024,2.318,2.432,4.5,2.625c1.252,0.001,1.279-1.22,2.625-1.125c1.508,0.707,2.65,1.839,3.375,3.375
			c0.551,1.165,0.25,2.729,0.75,3.75c0.34,0.695,1.074,1.165,1.875,1.875c2.445,2.17,4.395,2.412,8.25,3.375
			c-0.564,3.23,0.402,7.084-0.75,10.875c-1.92,0.823-4.613,1.865-6,1.5c-0.295-0.077-0.527,0.313-0.75,0.375
			c-3.051,0.848-5.619,2.077-8.25,2.25c-0.957,0.919-1.625,2.125-3.75,1.875c-1.584,1.372-2.895,2.832-4.875,3.75
			c-0.752,0.349-1.883,0.381-2.625,0.75c-1.643,0.815-2.83,2.622-4.875,2.625c-0.52,0.23-0.057,1.443-0.75,1.5
			c-0.043-0.457-0.113-0.888-0.75-0.75c-1.016,0.359-0.104,2.198-0.75,1.5c-0.877,0.499-1.074,1.676-1.5,2.625
			c-1.256,0.916-1.965,0.985-2.625,2.25c-0.139,0.265,0.461,1.566-0.154,2.061c1.355-0.297,3.029,0.19,3.154,1.689
			c0.066,1.316-1.268,1.233-1.5,2.25c-0.066,1.184-0.264,2.236-1.5,2.25c0.193-1.389,0.639-0.943-0.75-0.75
			c-1.047,0.732,0.543,0.479,0.75,1.125c0.305,0.952-0.223,2.049,0,3.375c-7.217,5.169-17.645,8.077-26.25,11.25
			c-2.301,0.848-5.064,1.964-6.75,2.625c-1.516,0.595-3.107,0.838-4.5,1.125c-3.471,0.717-6.471,0.764-10.125,1.125
			c-5.523,0.546-10.941,3.247-14.625,5.625c-1.631,1.053-3.17,2.249-4.5,3c-2.93,1.653-5.891,2.456-7.875,4.875
			c0.547,0.009,0.002,0.291,0,0.375c-0.057,1.858,1.111,3.977,2.625,4.875c4.645,0.257,8.531-1.459,11.625-2.25
			c1.59-0.406,3.141-0.967,4.875-0.75c1.01,0.127,2.053,1.021,3,1.5c0.619,0.314,0.863,0.372,1.5,0.75c3.375,2.007,5.51-1.64,6-4.5
			c2.367-0.953,1.982-3.044,4.125-3.75c0.781-0.257,1.82,0.367,2.625,0.375c1.963,0.019,3.637-0.614,5.25-0.75
			c5.477-0.462,10.488-0.653,15-1.125c2.854-0.298,6.123-0.592,7.875-1.125c2.713-0.825,5.682-2.182,7.875-3.375
			c2.779-1.512,5.076-3.732,7.875-5.25c1.971-1.069,4.051-1.961,6-3c6.584-3.514,13.393-3.998,22.5-5.25
			c0.211,8.69,4.303,16.523,5.625,25.5c0.338,2.304,0.592,4.618,1.125,6.75c1.537,6.145,4.434,12.008,5.25,18.375
			c0.568,4.432,0.881,9.003,1.5,13.5c0.613,4.46,1.572,8.971,1.875,13.5c0.365,5.444-0.686,11.984-0.375,16.5
			c0.059,0.862,0.605,1.907,0.75,3c0.391,2.948,0.295,5.061,1.125,6.75c0.756,1.536,1.813,3.083,1.875,4.875
			c0.686,0.583,1.438,2.999,1.406,2.998c-0.727,3.475,3.559,4.826,6.094,3.377c2.389-1.024,1.361-4.222,1.439-6.768
			c-0.26-2.647-1.254-5.067-0.689-7.482c0.023-0.099,0.674-0.601,0.75-0.75c0.818-1.599,0.734-1.568,1.875-2.625
			c-0.104,0.097-0.08-0.719,0.375-1.125c0.375-0.156,1.092-0.557,1.125-0.75c0.002-0.011,0.709-0.324,0.75-0.375
			c0.902-1.104,2.17-2.098,1.875-3.75c0.16-1.036-1.398-0.352-1.5-1.125c0.48-0.492,0.48-1.382,0-1.875
			c-1.438-0.677-2.291-1.79-4.125-1.125c0.221-0.951-0.857-1.394-1.125-1.875c-0.285-0.51-0.701-1.446-0.75-1.875
			c0.006,0.052,0.736-0.348,0.75-0.375c0.17-0.342-0.035-1.112,0-1.5c0.482-5.392,0.406-10.634,0.75-15.75
			c0.254-3.762,1.426-6.761,1.5-9.75c0.035-1.403-0.531-3.086-0.75-4.5c-0.631-4.074-1.313-6.658-2.25-9.75
			c-0.969-3.192-1.662-5.751-2.25-9.375c-0.246-1.52-0.662-3.301-0.75-4.875c-0.383-6.816,1.93-13.777,1.875-20.625
			c-0.02-2.302-0.656-4.723-0.375-7.125c0.16-1.362,1.068-2.275,0.75-3.75c2.918-1.789,5.924-4.338,8.25-6.375
			c0.396-0.348,1.355-0.589,1.5-0.75c0.131-0.146,0.314-1.026,0.375-1.125c0.666-1.095,1.467-2.319,2.25-3
			c0.576-0.501,2.031-0.644,2.25-1.125c-0.037,0.08-0.564-0.366,0-0.375c2.066,0.058,3.436,0.813,5.25,1.125
			c0.602-1.506-2.721-0.989-1.5-1.875c0.893,0.583,2.389,0.042,4.125,0.375c1.205,0.232,4.033,2.207,4.125,0.75
			c-0.291-0.084-0.74-0.011-0.75-0.375c1.359,0.016,1.205,1.545,2.25,1.875c1.533,0.368,1.516-0.041,3.375,0
			c1.07,0.93,2.273,1.727,3.375,2.625c1.213,0.464,0.287-1.214,1.5-0.75c1.789,0.485,4.377,0.63,6.75,0.75
			c0.619-0.006,0.209-1.04,0.75-1.125c1.803,0.645,2.688-0.005,4.5,0.75c-0.379-1.128,0.836-0.664,1.5-0.75
			c-0.27-0.972,0.781-1.393,1.125-1.875c0.48-0.674,0.572-1.656,1.5-1.875c0.33-1.205-1.236-0.514-1.125-1.5
			c0.654-0.345,0.828-1.172,0.75-2.25c-0.52-0.872-3.439-1.288-2.625-2.25c0.367,0.605,1,0.863,1.5,0.375
			c0.094,0.361,0.396,0.662,0.75,0.75c1.545,0.387-2.078-1.273,0-0.75c1.146-0.271,1.104,0.647,2.25,0.375
			c-0.447-0.989,1.803-0.967,0-1.125c-0.83-1.086,0.473,0.575-0.375,0.375c-3.408-1.29-5.721-3.402-9-4.875
			c-0.309-0.139-0.799,0.099-1.125,0c-0.139-0.042-0.563-0.673-0.75-0.75c-0.803-0.329-1.547-0.409-2.25-0.75
			c-2.689-1.303-4.873-3.089-7.125-4.5c-1.193-0.746-2.521-1.208-3.75-1.875c-0.139-0.075-0.227-0.639-0.375-0.75
			c-0.244-0.184-0.91-0.271-1.125-0.375c-3.408-1.656-6.471-2.523-10.5-3c-0.162-0.589-1.18-0.32-0.75-1.5
			c-2.994,0.604-5.783,0.253-8.25-1.125c0.561-1.509-1.137-3.459,0.375-4.5c-0.227-0.647-1.779,0.028-1.875-0.75
			c0.846-2.14-0.764-3.822-0.75-6c0.004-0.772,0.561-1.895,0.75-3c0.186-1.074,0.121-2.428,0.375-3.375
			c0.037-0.143,0.643-0.45,0.75-0.75c0.184-0.518-0.225-1.417,0.375-1.5c0.496,0.004,0.342,0.657,0.75,0.75
			c-0.801-1.373-0.512-1.743,0.375-3c0.516,1.187,0.082,1.253,0,2.625c1.949-0.925,3.486-2.263,4.125-4.5
			c0.881,0.37,1.842,0.657,3,0.75c1.982-0.495,2.727-0.729,4.125-1.5c1.713-0.944,5.135-3.474,5.625-4.875
			c0.875-2.504,1.346-5.573,3.375-7.5c0.947-1.132,1.674-0.151,3-0.75c2.398-4.695,3.91-12.663,2.25-19.125
			c2.789-2.313,5.395-5.292,8.625-7.5c4.367-2.986,10.127-5.431,14.625-8.25c2.439-1.528,5.482-3.911,7.5-5.25
			c0.717-0.475,1.373-0.742,1.875-1.125c1.736-1.327,2.326-2.735,4.125-3.375c0.744-0.265,1.943,0.127,2.625,0
			c0.547-0.102,1.137-0.499,1.875-0.75c2.422-0.823,4.176-2.092,6.375-2.625c1.857-0.45,4.598,0.09,6.375-0.375
			c0.615-0.16,1.184-0.67,1.875-1.125C711.965,315.959,713.364,315.833,713,314.765z"/>
	</g>
</g>
</svg>
