<?xml version="1.0" encoding="UTF-8" standalone="no"?>
<!-- Created with Inkscape (http://www.inkscape.org/) -->
<svg
   xmlns:dc="http://purl.org/dc/elements/1.1/"
   xmlns:cc="http://creativecommons.org/ns#"
   xmlns:rdf="http://www.w3.org/1999/02/22-rdf-syntax-ns#"
   xmlns:svg="http://www.w3.org/2000/svg"
   xmlns="http://www.w3.org/2000/svg"
   xmlns:xlink="http://www.w3.org/1999/xlink"
   xmlns:sodipodi="http://sodipodi.sourceforge.net/DTD/sodipodi-0.dtd"
   xmlns:inkscape="http://www.inkscape.org/namespaces/inkscape"
   width="740"
   height="120"
   id="svg3172"
   sodipodi:version="0.32"
   inkscape:version="0.46"
   version="1.0"
   sodipodi:docname="well_being_factory_logo.svg"
   inkscape:output_extension="org.inkscape.output.svg.inkscape">
  <defs
     id="defs3174">
    <linearGradient
       id="linearGradient3702">
      <stop
         style="stop-color:#6633cc;stop-opacity:1;"
         offset="0"
         id="stop3704" />
      <stop
         style="stop-color:#6633cc;stop-opacity:0;"
         offset="1"
         id="stop3706" />
    </linearGradient>
    <inkscape:perspective
       sodipodi:type="inkscape:persp3d"
       inkscape:vp_x="0 : 526.18109 : 1"
       inkscape:vp_y="0 : 1000 : 0"
       inkscape:vp_z="744.09448 : 526.18109 : 1"
       inkscape:persp3d-origin="372.04724 : 350.78739 : 1"
       id="perspective3180" />
    <linearGradient
       inkscape:collect="always"
       xlink:href="#linearGradient3702"
       id="linearGradient3708"
       x1="1.6095659"
       y1="44.148994"
       x2="739.59757"
       y2="44.148994"
       gradientUnits="userSpaceOnUse"
       gradientTransform="matrix(-1,0,0,1,741.20714,0)" />
  </defs>
  <sodipodi:namedview
     id="base"
     pagecolor="#ffffff"
     bordercolor="#666666"
     borderopacity="1.0"
     gridtolerance="10000"
     guidetolerance="10"
     objecttolerance="10"
     inkscape:pageopacity="0.0"
     inkscape:pageshadow="2"
     inkscape:zoom="2.4851351"
     inkscape:cx="298.69603"
     inkscape:cy="60"
     inkscape:document-units="px"
     inkscape:current-layer="layer1"
     showgrid="true"
     width="744.09px">
    <inkscape:grid
       type="xygrid"
       id="grid2507" />
  </sodipodi:namedview>
  <metadata
     id="metadata3177">
    <rdf:RDF>
      <cc:Work
         rdf:about="">
        <dc:format>image/svg+xml</dc:format>
        <dc:type
           rdf:resource="http://purl.org/dc/dcmitype/StillImage" />
      </cc:Work>
    </rdf:RDF>
  </metadata>
  <g
     inkscape:label="Layer 1"
     inkscape:groupmode="layer"
     id="layer1">
    <path
       style="opacity:0.59999999999999998;fill:url(#linearGradient3708);fill-opacity:1;stroke:#6633cc;stroke-width:0;stroke-miterlimit:4;stroke-opacity:1;"
       d="M 1.6095659,0.89179 L 739.59757,0.89179 L 739.59757,87.406198 L 1.6095659,0.89179 z"
       id="rect3182"
       sodipodi:nodetypes="cccc" />
    <g
       id="g2502"
       transform="translate(62.773247,1.6095704)">
      <path
         style="opacity:1"
         d="M 469.12397,63.65348 C 469.22904,63.653691 469.32827,63.756008 469.23622,63.101094 C 469.39694,63.34526 469.55728,63.34526 469.64915,63.34526 C 469.62633,63.165147 469.32808,62.689711 469.32808,62.689711 C 469.45409,62.702606 470.07341,63.65348 469.97003,62.805135 C 470.21092,62.920982 470.22224,62.895614 469.74083,62.034374 C 470.37146,62.150221 470.48615,61.841789 470.48615,61.73905 C 470.48615,61.63631 470.36014,61.597624 470.19941,61.597624 C 470.37127,61.314983 470.62273,59.825043 470.55463,58.385204 C 470.54293,58.141461 471.07961,57.852267 472.38879,57.794555 C 473.54685,57.743185 474.2235,56.714939 474.77396,56.843259 C 475.32442,56.972001 475.95466,57.704499 476.32176,58.154144 C 476.68867,58.604213 477.03275,59.336288 477.27364,59.490609 C 477.51435,59.644719 477.62621,59.587219 477.6979,59.618717 C 478.01896,59.760354 477.83561,61.636521 477.77826,62.613185 C 477.72091,63.589426 477.78958,65.105791 477.6979,65.465381 C 477.60641,65.82497 477.44569,66.197456 477.45719,66.274828 C 477.3425,66.249037 477.2278,66.403147 477.2395,66.50631 C 477.25082,66.608626 477.2278,67.456971 477.13612,67.700926 C 477.04444,67.945091 476.29724,68.72748 476.20763,68.973125 C 476.00126,69.538406 475.92071,71.735899 475.82922,71.877114 C 475.73754,72.018751 475.53098,72.596293 475.86355,72.699245 C 476.19612,72.801774 476.67772,72.121068 476.70074,70.849081 C 477.21687,70.772131 477.68696,70.257586 477.72129,70.026527 C 477.91634,70.052317 478.29476,69.897785 478.37493,69.782361 C 478.47812,69.782361 478.8222,69.795468 478.98255,69.654041 C 479.14289,69.512616 479.39529,68.947123 479.4068,68.420528 C 479.4183,67.89351 479.78521,67.777875 479.76239,67.58529 C 479.73956,67.392706 479.62487,67.392706 479.56733,67.418285 C 479.61317,67.225278 480.48507,63.57653 480.51921,62.921405 C 480.55355,62.265856 480.69125,59.375608 480.58807,58.925751 C 480.48507,58.476105 480.15231,57.653763 480.09496,57.589497 C 480.14099,57.422492 480.15872,57.00371 480.06063,56.780051 C 479.75107,56.073555 479.15477,55.880336 478.83371,55.508062 C 478.51282,55.134943 478.26099,54.659718 477.87126,54.146018 C 477.48115,53.631684 475.83016,52.244273 475.3944,51.254502 C 474.95864,50.265155 474.44271,47.490119 474.35103,47.28464 C 474.25935,47.07916 474.40819,46.834782 474.32782,46.732043 C 474.24784,46.629302 474.04128,46.539458 474.04128,46.4234 C 474.04128,46.308188 474.87451,46.12427 474.92431,45.845435 C 474.97411,45.566811 473.84151,42.654789 473.3533,42.363058 C 473.18108,42.260107 472.9747,42.273002 472.87171,42.285686 C 472.91754,42.003046 472.80285,40.243149 472.8602,40.114407 C 473.04355,40.127725 473.15825,39.972769 473.15825,39.651866 C 473.41046,39.857345 474.71718,40.128148 474.9809,39.729449 C 475.24443,39.331384 475.29122,38.097448 475.19916,37.699172 C 475.46307,37.583114 475.53173,36.902409 475.33687,36.799246 C 475.14181,36.696717 477.60735,35.076978 477.73298,35.013558 C 477.96822,34.896021 478.93557,34.794972 479.1244,34.676166 C 479.37548,34.518462 481.17248,34.114267 481.43639,33.973052 C 481.7001,33.831626 482.03173,33.421089 482.18076,33.279664 C 482.32979,33.138449 483.26997,32.586063 483.70573,32.187365 C 484.1415,31.788666 485.04264,30.549444 485.42557,30.324305 C 485.80889,30.099376 486.14222,30.174846 486.52592,29.990717 C 486.90999,29.806588 487.80642,29.33094 488.05862,29.20241 C 488.31084,29.074091 489.05616,28.855504 489.59907,28.602671 C 490.14198,28.350261 490.60283,27.577386 490.98633,27.382476 C 491.36984,27.187143 493.00423,26.932407 493.1076,26.688664 C 493.21079,26.444287 493.26833,26.046222 492.04141,23.785098 C 492.14082,23.569894 494.03609,22.284164 494.79311,22.217363 C 495.36639,22.371472 496.1002,22.178888 496.3179,22.165992 C 496.53578,22.153097 498.45048,21.973196 499.27617,22.860016 C 500.10166,23.746623 501.03053,23.476456 501.17955,22.94986 C 501.32839,22.423266 499.96452,19.763654 497.33863,18.27329 C 496.74215,17.322207 495.03401,16.101377 494.6439,16.127167 C 494.25417,16.152747 494.09363,17.296627 493.99026,17.643745 C 493.88726,17.99065 492.79766,19.301113 493.0844,19.519699 C 492.82087,19.699388 491.12366,21.164384 490.83693,21.087223 C 489.97899,20.560628 486.7553,22.751779 485.4867,23.453836 C 484.21809,24.156315 483.45692,24.691366 483.15849,24.859005 C 482.85987,25.02601 481.69463,25.34332 480.88989,25.761891 C 480.08515,26.180672 479.64882,26.617 478.99952,26.855457 C 478.34965,27.093916 477.35288,27.384378 476.84524,27.618608 C 476.33799,27.852839 474.50213,29.14047 473.71116,29.358 C 472.92018,29.575529 470.71309,30.244396 470.19074,30.428524 C 469.6682,30.612441 468.92024,31.164193 468.4577,31.164193 C 467.99496,31.164193 466.70484,30.408019 466.03309,30.156877 C 465.36134,29.906157 463.83108,29.15717 463.41306,28.922941 C 462.99503,28.688922 460.1788,27.353725 459.62213,26.966019 C 459.06545,26.578102 458.89529,26.483395 458.2939,26.296941 C 457.69233,26.110699 456.32166,25.239735 455.65218,24.891983 C 454.98269,24.544443 448.36894,19.89155 446.68249,19.523504 C 446.45838,19.473403 446.47366,19.590095 446.44367,19.623708 C 446.37009,19.546124 445.91132,19.668312 444.04094,18.107554 C 443.96134,17.817514 443.20507,17.126028 442.94645,16.323346 C 442.68763,15.520453 442.58841,14.807192 442.23018,14.784784 C 441.87214,14.762587 440.75745,15.119429 439.64315,16.992424 C 438.66826,16.992424 436.45927,18.932433 435.98182,21.2741 C 436.20083,22.098979 437.09631,21.786743 437.25533,21.697744 C 437.41455,21.608533 438.70787,20.203787 440.2202,20.62743 C 441.45788,20.974125 442.01116,20.738626 442.429,20.471417 C 442.60821,20.649627 444.83682,22.098979 444.87681,22.210598 C 444.83701,22.389019 443.80231,24.663884 443.84193,25.154541 C 443.88173,25.644986 445.29465,25.020303 445.7921,25.422172 C 446.28974,25.823408 446.68758,27.116958 447.46365,27.429195 C 448.23972,27.741219 449.39382,27.941837 449.81185,28.232089 C 450.22969,28.521705 450.58773,29.324599 450.90634,29.636835 C 451.22477,29.949072 452.5579,30.662755 452.75691,30.908189 C 452.95593,31.153201 454.05042,32.401935 455.74178,33.026619 C 457.43314,33.651303 458.70684,35.234682 459.32388,35.568692 C 459.94074,35.903549 460.53779,35.836324 460.71681,35.903549 C 460.89564,35.97035 462.06975,39.248516 462.48777,39.605146 C 462.90561,39.962199 463.28365,39.694568 463.40325,39.738962 C 463.52266,39.78399 463.38325,41.768392 463.30383,41.946602 C 463.22423,42.125446 462.26895,42.593483 462.24914,42.905508 C 462.22933,43.217533 462.26895,43.418573 462.24914,43.574375 C 462.22933,43.73081 462.08239,43.593612 462.06993,43.819598 C 462.05767,44.046006 461.86752,47.291615 461.8113,47.454816 C 461.7549,47.617805 461.05504,48.748155 461.25406,49.72947 C 461.13446,50.019298 460.63702,51.335045 460.4778,51.535874 C 460.31878,51.73628 457.37353,53.7655 456.61745,55.126064 C 456.27921,55.081459 455.58276,55.593891 455.48315,56.508403 C 455.22434,56.61981 454.44827,57.757348 454.30905,58.091993 C 454.16983,58.426426 454.26925,63.131535 456.19961,68.416934 C 456.0204,68.706762 456.04021,68.885183 456.06021,68.996379 C 456.08001,69.107998 456.51785,69.063604 456.51785,69.063604 C 456.51785,69.063604 456.91588,69.509445 457.61235,69.375629 C 457.77156,69.665669 458.52782,70.290141 458.74664,70.356943 C 458.66704,70.602166 458.94943,71.890221 459.52441,71.736957 C 459.90961,71.634216 459.71098,70.289084 459.58194,69.821892 C 459.43292,69.282402 458.97433,68.20321 458.48123,67.920358 C 458.37785,67.8043 457.64404,65.067528 457.42615,64.168025 C 457.47218,62.29207 456.96738,59.529718 457.04774,59.195285 C 457.12791,58.861274 457.48331,58.771219 457.60951,58.8228 C 457.73553,58.873958 458.29749,59.092333 458.50386,58.989593 C 458.71042,58.887276 460.29256,56.843682 460.56778,56.843682 C 460.84301,56.843682 461.10654,56.856789 461.3131,56.766732 C 461.51948,56.676676 461.80602,56.317087 461.93222,56.330193 C 462.05824,56.343089 462.49023,57.244706 462.89524,57.255276 C 463.30044,57.266057 463.36552,56.895475 463.48021,56.895475 C 463.59491,56.895475 463.66168,57.19545 463.9503,57.24238 C 464.23874,57.289733 465.34927,57.024217 465.33776,57.486335 C 465.06235,57.614865 464.46605,60.621806 465.40643,62.150855 C 465.3487,62.395021 465.3487,62.498395 465.41756,62.587817 C 465.50924,62.626503 465.72711,62.575133 465.76164,62.626503 C 465.72711,62.716559 465.64713,63.076149 465.64713,63.152887 C 465.77333,63.166205 465.97952,63.114412 466.00253,63.178888 C 466.01404,63.397475 465.96801,63.43595 466.1974,63.332998 C 466.18589,63.59006 466.679,64.142657 467.02289,64.129973 C 467.36697,64.116654 467.33264,64.155552 467.33264,64.746835 C 467.34414,64.874943 467.7567,64.978106 467.71086,64.194027 C 467.82537,64.027022 467.96308,64.245397 468.06645,64.348348 C 468.16945,64.450877 468.22698,64.30945 468.21529,63.910963 C 468.42185,64.271187 468.63973,64.232501 468.68557,64.219818 C 468.49071,64.039705 468.44468,63.808435 468.43336,63.718802 C 468.54824,63.783067 468.79121,63.832957 468.87119,63.821331 C 468.95175,63.808858 468.7946,63.425803 469.12397,63.65348 z"
         id="path4216" />
      <path
         style="fill-rule:evenodd"
         id="path4379"
         d="M 554.84015,76.983272 C 554.97916,76.485524 554.70114,76.115953 554.64672,76.112858 C 554.59024,75.605051 554.33956,75.104207 554.25987,74.662167 C 554.21448,74.410455 554.15053,74.0904 554.16316,73.888464 C 554.2168,73.021918 554.80379,72.659052 555.227,72.244348 C 555.38252,72.091929 555.48155,71.895408 555.61385,71.760784 C 555.76344,71.608107 555.67445,71.087663 555.61385,70.890369 C 555.66002,70.586047 555.47613,70.512287 555.42043,70.310092 C 555.03951,69.981785 554.43679,69.875014 554.25987,69.342966 C 554.51622,68.868686 554.54563,68.297952 554.64672,67.795561 C 554.86748,66.697679 555.13339,65.693929 555.42043,64.700754 C 555.63036,63.974247 555.92514,63.274563 556.0007,62.573073 C 556.16344,61.062034 555.80444,60.014183 555.51714,58.994702 C 555.36059,58.439442 555.10631,57.840597 555.03357,57.253872 C 554.8386,55.680162 555.04285,54.774416 555.32371,53.482076 C 555.4653,52.829329 555.66156,52.133255 555.71056,51.451108 C 555.77556,50.544329 555.6025,49.719305 555.61385,48.936577 C 555.62262,48.324579 555.97001,47.990597 556.0007,47.582598 C 556.20599,47.433274 556.4314,47.304582 556.6777,47.195747 C 557.14089,46.580138 557.71832,45.993157 558.03167,45.068067 C 558.10492,44.85143 558.14489,44.651815 558.2251,44.391077 C 558.28647,44.191205 558.36178,43.930983 558.41852,43.714089 C 558.74348,42.472555 558.67926,40.833855 558.90209,39.555441 C 558.97842,39.116494 559.21079,38.65253 559.28894,38.201462 C 559.495,37.012282 559.43388,35.644119 559.57907,34.526378 C 559.6175,34.229276 559.76863,34.017282 559.7725,33.752676 C 559.77688,33.455058 559.62653,33.25596 559.67578,32.978974 C 559.7921,32.323907 560.42087,31.581152 560.73962,31.141432 C 560.8464,30.994171 560.87038,30.637752 561.12648,30.754581 C 561.14169,30.868315 561.10997,31.028987 561.22319,31.044719 C 561.34647,30.802809 561.17393,30.741944 561.3199,30.657868 C 561.50121,30.766702 561.52519,31.032598 561.70676,31.141432 C 561.80811,30.867799 561.54711,30.478111 561.70676,30.464443 C 561.88935,30.475016 561.7738,30.783982 561.99689,30.754581 C 561.98709,30.480432 561.57548,30.114987 561.99689,29.980879 C 562.3417,30.054896 562.16891,30.646779 562.38374,30.851294 C 562.59084,30.365667 562.15859,30.071403 562.28704,29.787454 C 562.53745,29.699768 562.64655,29.738711 562.96402,29.787454 C 562.82939,30.248837 563.00193,30.711254 563.15745,31.141432 C 563.3813,30.978439 563.39471,30.604999 563.64101,30.464443 C 563.62192,30.689848 563.8904,30.739622 564.02786,30.851294 C 564.9367,31.587342 565.78674,32.664851 566.63911,33.269112 C 566.74665,33.34545 566.95426,33.582204 567.12267,33.462538 C 566.73582,33.149963 565.98585,32.591608 566.05883,32.205273 C 566.20944,32.455435 566.53594,32.512174 566.83253,32.688836 C 567.34447,32.993417 567.66864,33.300834 568.08979,33.075687 C 567.33466,32.960405 566.99604,32.428356 566.73582,31.818421 C 567.26683,32.061106 567.82699,32.274648 568.47664,32.398698 C 568.63654,32.534611 568.96743,32.996511 569.15363,32.785548 C 569.04841,32.762338 568.92153,32.626424 569.05692,32.592124 C 569.09613,32.778585 569.43191,32.668462 569.34706,32.978974 C 569.47549,32.964789 569.70683,33.304187 569.73391,33.075687 C 569.63205,33.070271 569.65783,32.951895 569.83062,32.978974 C 569.85925,33.17601 570.02405,33.236617 570.12076,33.365825 C 570.78588,33.435458 571.30659,33.843973 571.86159,34.139527 C 572.13729,34.286273 572.44419,34.388401 572.73201,34.526378 C 573.03659,34.67235 573.29191,34.882539 573.60242,35.009941 C 573.90648,35.134765 574.25001,35.18093 574.56955,35.30008 C 575.55627,35.667846 576.45532,36.077134 577.37422,36.460632 C 577.78764,37.981731 579.39332,38.310039 579.79203,39.845579 C 580.13427,39.793741 580.29055,39.927591 580.37231,40.135718 C 580.71816,40.273436 580.51235,40.963062 581.0493,40.909419 C 581.28193,40.191681 580.75143,39.403279 580.66246,38.685026 C 581.23138,39.020039 581.41965,40.29871 582.11314,40.135718 C 582.2065,39.895353 582.03062,39.678202 581.91971,39.458728 C 581.5602,38.746149 580.9954,38.149366 580.75916,37.42776 C 579.7371,36.809831 579.07455,35.671199 578.24463,35.009941 C 578.12368,34.913487 577.91685,34.915808 577.76107,34.816516 C 577.71929,34.789952 577.7082,34.656102 577.66436,34.62309 C 577.59008,34.567385 577.44154,34.567642 577.37422,34.526378 C 576.88421,34.224376 576.24306,33.912059 575.82681,33.655964 C 575.59109,33.510765 575.376,33.402189 575.14982,33.269112 C 574.91359,33.130104 574.69308,32.900572 574.56955,32.785548 C 574.49167,32.713079 574.37148,32.754084 574.27941,32.688836 C 574.23454,32.657114 574.23041,32.531001 574.1827,32.49541 C 574.10197,32.435061 573.96529,32.45002 573.89256,32.398698 C 573.84768,32.366975 573.8433,32.240863 573.79585,32.205273 C 573.71718,32.146213 573.57663,32.156786 573.5057,32.108559 C 573.295,31.96594 573.04149,31.712166 572.92543,31.624996 C 572.85297,31.570579 572.70028,31.56671 572.63529,31.528283 C 572.46998,31.430281 572.32478,31.325831 572.15173,31.238145 C 571.84018,31.08031 571.60498,31.061483 571.37803,30.948006 C 570.93444,30.726212 571.54514,30.71048 571.47474,30.657868 C 571.41955,30.616604 571.25192,30.67979 571.18461,30.657868 C 571.08789,30.626662 571.0554,30.52866 570.99118,30.464443 C 570.81916,30.292681 570.81013,30.362056 570.89446,30.077592 C 570.56023,30.097708 570.43876,30.215052 570.21747,29.980879 C 570.26879,29.709567 570.67396,29.792869 570.70103,29.497315 C 570.71239,29.398281 570.28376,29.301569 570.60433,29.207177 C 570.97519,29.224714 570.63914,29.128001 570.70103,28.917039 C 571.10491,28.903628 571.5779,29.324522 571.9583,29.013752 C 571.57532,28.960882 572.17881,28.720519 571.66817,28.626901 C 571.72671,28.460039 572.12671,28.63438 572.15173,28.433475 C 572.00704,28.416969 571.7948,28.468292 571.76488,28.336763 C 572.17236,28.131731 572.98372,28.330831 573.31228,28.046624 C 572.98656,27.985502 572.41402,28.17119 572.24845,27.949912 C 572.66857,27.914321 572.54012,27.782276 572.63529,27.563061 C 572.30802,27.525923 572.48313,27.991175 572.05502,27.853198 C 572.08958,27.551971 571.88274,27.80884 571.57145,27.659773 C 571.37416,27.565382 571.20756,27.364219 571.08789,27.272922 C 571.28518,27.355967 571.62071,27.120761 571.37803,27.079497 C 571.34657,27.236817 571.25423,27.056802 571.18461,26.982784 C 571.09098,26.883235 571.03941,26.788585 570.89446,26.692646 C 570.82741,26.648287 570.67757,26.727463 570.60433,26.692646 C 570.57106,26.676656 570.54501,26.524236 570.50762,26.499221 C 570.42818,26.446351 570.09471,26.478073 570.31419,26.305795 C 570.97028,26.327974 571.52323,26.964731 571.9583,26.886072 C 571.54076,26.734941 571.15624,26.430619 570.70103,26.209082 C 570.3031,26.01514 569.6127,26.013593 569.54049,25.43538 C 569.95158,25.724229 570.4109,25.776067 570.79775,25.725518 C 570.92361,25.709271 571.06596,25.823004 571.08789,25.822231 C 571.34399,25.813463 571.57507,25.710302 571.76488,25.725518 C 572.08106,25.750792 572.32246,26.120364 572.63529,25.822231 C 572.17288,25.930033 572.22729,25.521003 571.76488,25.628805 C 571.58899,25.245049 571.14746,25.101399 570.89446,24.951816 C 570.61129,24.784955 570.48775,24.593077 570.31419,24.468253 C 570.1935,24.38134 570.03256,24.338528 569.92734,24.274827 C 569.69884,24.136335 569.443,24.091202 569.25035,23.887976 C 569.49586,23.930787 569.94978,23.697388 569.73391,23.597837 C 569.53223,23.902419 569.33984,23.655608 569.05692,23.791263 C 569.34087,23.268241 570.16228,22.770493 570.02405,22.147146 C 569.96963,22.382868 569.94101,22.644637 569.63719,22.630711 C 569.17607,22.732839 568.93957,22.108978 568.67007,22.340572 C 568.85396,22.348052 568.60998,22.791125 568.47664,22.533998 C 568.66852,22.334899 568.66852,22.4427 568.47664,22.24386 C 568.69354,22.202853 568.78483,22.03625 568.96021,21.953721 C 568.62545,21.852366 568.44544,22.395763 568.18651,22.050434 C 568.19527,21.898015 568.43332,21.974869 568.37994,21.760295 C 568.08387,21.766227 567.87599,22.115425 567.60623,21.857009 C 567.54846,21.684731 567.88966,21.455199 567.60623,21.373445 C 567.53685,21.626445 567.46078,21.872998 567.02595,21.760295 C 567.02982,21.37164 567.03421,21.052617 567.12267,20.986594 C 567.27303,21.011868 567.18972,21.198847 567.12267,21.276732 C 567.28901,21.314644 567.37051,21.133081 567.4128,21.276732 C 567.88863,21.241142 567.16316,21.109097 567.21938,20.889881 C 566.96097,20.825922 566.61512,20.84939 566.44568,20.696455 C 566.31156,20.637139 566.43123,20.324305 566.25225,20.309604 C 566.27031,20.737204 566.35748,21.087175 566.34896,21.373445 C 566.34845,21.390983 566.16198,21.384019 566.15554,21.470158 C 566.15477,21.482536 566.38997,21.583634 566.34896,21.663583 C 566.03201,21.668999 565.9794,21.938505 565.57527,21.857009 C 565.51568,20.788268 565.04966,20.12598 564.51143,19.535903 C 564.49491,19.680585 564.54598,19.892837 564.41471,19.922753 C 564.07608,18.842924 563.26886,18.231441 562.28704,17.795073 C 561.95253,17.718476 561.87877,17.902618 561.70676,17.988499 C 561.05427,17.50674 559.92131,17.838916 559.28894,18.181924 C 558.94954,18.069995 558.76694,17.801263 558.32181,17.795073 C 558.13587,17.931761 558.1467,18.264968 558.03167,18.472062 C 557.46429,18.485216 557.28221,18.883414 556.96783,19.149052 C 556.72102,19.160399 556.47008,19.167105 556.48427,19.43919 C 556.13171,20.38517 556.93172,21.043332 556.96783,21.953721 C 556.98537,22.400405 556.78523,22.751924 556.7744,23.3077 C 556.29007,23.564826 556.4185,24.434726 555.80728,24.564965 C 555.12539,23.89004 555.00469,22.607499 554.55001,21.760295 C 554.46258,21.597303 554.26735,21.450815 554.16316,21.276732 C 554.10462,21.178988 554.11674,21.067575 554.06644,20.986594 C 554.03008,20.928308 553.91274,20.857901 553.87303,20.793169 C 553.52486,20.225787 553.63575,19.934102 553.58288,19.052339 C 553.55606,18.606945 553.50216,18.044464 553.38945,17.601648 C 553.31544,17.31151 553.12976,17.076562 553.09932,16.827946 C 552.9812,15.864945 553.22646,15.635671 553.48617,15.087117 C 553.89881,14.215671 554.27638,13.2537 554.64672,12.475873 C 555.06607,11.594368 555.63371,10.521759 556.19412,9.9613414 C 556.3628,9.792674 556.53404,9.6113694 556.7744,9.5744895 C 557.29562,9.8844868 557.72425,10.293002 558.2251,10.541617 C 558.42187,10.639362 558.60395,10.711574 558.80537,10.831756 C 559.17262,11.050971 559.50119,11.366126 559.96593,11.412033 C 560.18798,11.033692 559.68558,10.824534 559.38565,10.541617 C 559.12336,10.29429 558.43838,10.134135 558.90209,9.7679154 C 559.2322,9.5388995 559.44161,10.256896 559.67578,10.444905 C 559.97934,10.492616 559.93111,10.111697 560.15935,10.348192 C 560.56425,10.58804 560.79094,11.005839 561.41661,11.025181 C 561.2624,10.552192 560.35665,10.215631 560.44949,9.8646279 C 561.10172,9.7846785 561.4847,10.407767 561.99689,10.154766 C 562.01443,9.9559247 561.74234,9.845801 561.61004,9.7679154 C 560.85697,9.3253577 559.73948,9.110527 559.28894,8.5106493 C 558.29241,8.3767989 557.04159,7.9218629 556.0007,8.1237984 C 555.53441,8.2145802 555.33558,8.6112305 554.93686,9.0909261 C 554.68128,9.3983436 554.40636,9.757341 554.16316,10.058054 C 553.5705,10.791007 552.93426,11.286177 552.51904,11.798884 C 552.44425,11.890953 552.42465,12.137764 552.32561,12.282447 C 552.29802,12.32268 552.16804,12.340733 552.1322,12.379159 C 552.05895,12.457819 552.10021,12.57568 552.03548,12.669298 C 552.00453,12.713914 551.87713,12.719073 551.84205,12.76601 C 551.78197,12.846218 551.79563,12.984195 551.74534,13.056149 C 551.32471,13.659636 550.4543,14.575958 550.39136,15.087117 C 550.35293,15.399176 550.54533,15.642892 550.58478,15.957531 C 550.71426,16.990423 550.50638,18.199462 550.58478,19.43919 C 550.64642,20.413022 550.87209,21.419351 551.06836,22.050434 C 551.24682,22.624521 551.38711,23.126395 551.55192,23.694551 C 551.64012,23.999132 551.775,24.305259 551.84205,24.564965 C 552.01949,25.253302 551.86733,26.11108 551.93877,26.982784 C 551.95837,27.2216 552.06076,27.489043 552.03548,27.659773 C 551.96017,28.168095 551.46707,28.558041 551.35849,28.917039 C 550.84552,30.608867 551.82426,32.673104 551.64863,34.429666 C 550.99588,33.734881 550.15874,32.978458 549.23081,32.205273 C 548.8731,31.907139 548.36787,31.598432 547.87683,31.238145 C 547.38501,30.877599 546.94298,30.308671 546.52286,30.174305 C 545.46675,29.836971 544.62754,30.49668 543.71819,30.561156 C 543.51934,30.57534 543.26943,30.48069 543.04119,30.464443 C 542.73275,30.442521 542.42713,30.49797 542.17078,30.464443 C 541.7682,30.411831 541.39553,30.236201 541.01023,30.174305 C 540.54781,30.100287 540.10886,30.129172 539.65625,30.077592 C 537.31631,29.810148 534.97329,29.297443 533.2732,28.530188 C 533.13007,28.465712 532.94026,28.288277 532.78964,28.240049 C 532.64393,28.193112 532.45618,28.273319 532.30608,28.240049 C 532.27075,28.232313 532.06623,28.057972 532.01594,28.046624 C 531.75082,27.987565 531.43076,28.012323 531.14552,27.949912 C 530.6256,27.836177 530.0871,27.638368 529.59812,27.563061 C 528.89999,27.455774 528.15311,27.438494 527.47044,27.369635 C 526.71531,27.293554 525.99499,27.172599 525.24605,27.176209 C 524.79446,27.401615 524.59614,27.880278 524.56906,28.530188 C 525.2953,28.992604 526.23226,29.58397 527.0836,29.787454 C 527.31235,29.842129 527.63266,29.798285 527.85729,29.884166 C 527.87999,29.892935 527.92667,30.057217 527.95401,30.077592 C 528.1691,30.239038 528.59231,30.270243 528.72771,30.36773 C 529.35828,30.822667 529.64248,31.637117 530.37183,31.915134 C 530.39865,32.143634 530.62998,31.804237 530.75868,31.818421 C 530.87782,31.957172 531.09137,32.00153 531.33895,32.011847 C 531.9525,31.876448 532.2153,31.179085 532.88635,31.141432 C 533.1079,31.128795 533.33072,31.298493 533.66006,31.43157 C 533.93086,31.541178 534.26071,31.616485 534.53047,31.721708 C 535.74312,32.194956 536.6793,32.694252 537.72199,33.172399 C 538.51194,33.535008 539.21163,33.926501 540.0431,34.139527 C 541.73622,34.573316 543.22663,34.138237 545.45902,34.429666 C 545.74915,35.107428 546.28507,35.712463 546.52286,36.267208 C 546.62395,36.503186 546.60874,36.77914 546.71627,37.040909 C 546.74516,37.111058 546.87127,37.233045 546.9097,37.331048 C 547.16657,37.985341 547.4384,38.484895 547.68341,38.975164 C 547.80565,39.219912 547.84459,39.542545 547.97354,39.748867 C 548.05968,39.887101 548.26755,40.012183 548.36039,40.135718 C 548.62758,40.49162 548.8437,40.718057 549.03738,41.006132 C 549.30405,41.403041 549.52843,41.942053 549.71437,42.263398 C 549.95809,42.684291 550.32482,42.963082 550.48808,43.423951 C 550.17164,45.013908 549.80206,46.767891 549.9078,48.259587 C 549.94932,48.84657 549.86886,49.527943 549.9078,50.097129 C 549.97511,51.084631 550.17137,52.050985 550.29465,52.998512 C 550.35913,53.496518 550.38388,53.984724 550.48808,54.449203 C 550.59176,54.911619 550.7777,55.331739 550.87493,55.803181 C 550.92161,56.030391 550.84243,56.284682 550.87493,56.480171 C 550.93295,56.829368 551.17589,57.170828 551.26177,57.544011 C 551.33012,57.84137 551.28189,58.150335 551.35849,58.414425 C 551.44695,58.71978 551.68035,58.976649 551.74534,59.28484 C 551.9955,60.468862 551.62207,61.730512 551.74534,62.959924 C 551.92768,64.777093 551.96842,66.912768 551.84205,68.665976 C 551.79873,69.266885 551.5906,69.925047 551.55192,70.503518 C 551.45882,71.890766 551.62207,73.315151 551.84205,74.178602 C 552.05302,75.006206 552.28383,75.591641 552.61576,76.20957 C 552.36121,76.17888 554.4631,78.332608 554.84015,76.983272 z M 571.47474,27.659773 C 571.41104,27.789755 571.2679,27.839788 571.08789,27.853198 C 570.98447,27.762933 571.05771,27.496522 570.79775,27.563061 C 570.93263,27.311607 571.29834,27.633725 571.47474,27.659773 z M 570.50762,24.855104 C 570.22572,25.035892 569.86028,24.473926 569.44378,24.468253 C 569.87344,24.139687 570.15119,24.789339 570.50762,24.855104 z M 568.47664,23.210987 C 568.53519,23.377849 568.93519,23.203508 568.96021,23.404412 C 569.10386,23.362117 568.92204,23.280621 568.96021,23.114274 C 569.18458,23.145222 569.33133,23.098542 569.44378,23.017562 C 569.40147,22.873911 569.31998,23.055472 569.15363,23.017562 C 569.21321,22.931423 569.27072,22.84451 569.15363,22.824136 C 569.23565,22.478807 569.39168,22.81253 569.73391,22.727423 C 569.26169,23.125879 569.2261,23.960446 568.18651,23.791263 C 568.2791,23.593712 568.38406,23.408539 568.47664,23.210987 z M 568.28322,23.114274 C 568.2791,23.677271 567.67251,23.263083 567.60623,23.597837 C 567.38314,23.394354 567.93041,22.756565 568.28322,23.114274 z M 567.50952,23.210987 C 567.57735,23.545742 567.17038,23.557864 567.02595,23.404412 C 567.10771,23.26102 567.33724,23.26463 567.50952,23.210987 z M 566.73582,21.760295 C 566.50706,21.634441 566.54935,21.237531 566.44568,20.986594 C 566.88128,20.973441 566.88128,21.453136 566.73582,21.760295 z M 566.83253,22.824136 C 566.83253,22.985323 566.83253,23.146512 566.83253,23.3077 C 566.50835,23.374238 566.47895,23.14548 566.44568,22.920849 C 566.61899,22.933228 566.64968,22.802472 566.83253,22.824136 z"
         clip-rule="evenodd" />
      <path
         id="path6045"
         d="M 399.6158,60.764971 C 399.47636,60.764971 397.43347,60.254966 396.68995,60.16137 C 395.94643,60.068729 395.06443,59.649932 394.18243,59.604089 C 394.18243,59.604089 393.43891,59.185771 392.04595,58.30329 C 388.98066,56.352569 386.79738,52.404328 385.86858,51.429206 C 384.93978,50.454085 383.54682,47.527763 383.08266,46.59944 C 382.61802,45.670161 381.9213,45.531677 381.2709,45.206477 C 380.89986,45.206477 380.57466,44.973918 380.01737,44.509757 C 378.94961,43.302554 377.64881,42.697997 376.20857,41.814562 C 376.44065,37.124713 376.34801,34.523592 376.48745,33.17695 C 377.88042,34.616711 379.13442,34.801516 380.0637,35.08135 C 380.9925,35.358797 383.45418,36.891677 383.68626,37.031116 C 383.91834,37.171511 385.17234,38.239752 385.72962,39.214396 C 386.2869,40.18904 386.79738,40.375278 387.2157,40.235361 C 387.63354,40.097354 388.05186,39.353358 388.5165,38.889196 C 388.98066,38.425034 390.32826,37.402637 390.88459,36.891677 C 391.44187,36.566955 391.67395,35.917032 391.81387,35.777115 C 391.95331,35.638153 391.81387,34.988709 391.81387,34.988709 C 391.81387,34.988709 391.39602,34.430951 390.79242,34.337832 C 390.79242,34.337832 390.6993,33.68791 390.6993,33.502149 C 390.6993,33.316389 390.14202,33.316389 389.90994,33.316389 C 389.72371,33.316389 389.53842,33.687432 389.12058,34.152071 C 388.70226,34.617188 387.81978,35.219835 387.07626,35.219835 C 386.3337,35.219835 385.4517,34.616233 384.80082,34.291511 C 384.1509,33.965834 382.66482,31.82983 381.5493,31.087266 C 380.43474,30.342793 378.48449,29.64655 377.97353,29.275507 C 377.46257,28.904942 376.53425,28.067827 375.65129,27.789425 C 374.76881,27.510069 374.16521,27.742627 373.28273,28.299908 C 372.40025,28.857189 372.16817,29.600707 371.98193,31.36519 C 371.98193,31.36519 371.79665,31.412466 371.56409,31.458309 C 371.56409,31.458309 371.56409,31.039991 371.33201,30.808387 C 370.82105,30.715268 369.79913,31.178953 369.14968,31.876628 C 369.14968,31.876628 369.10289,31.50463 369.05609,31.319825 C 369.00929,31.132632 368.68457,31.039991 368.59193,31.178953 C 368.59193,31.36519 368.35985,32.433431 368.12729,33.037033 C 367.89521,33.641111 367.6168,34.24519 367.6168,35.358797 C 367.24528,35.777115 366.22384,38.053036 365.66608,39.864318 C 365.66608,39.864318 363.99424,39.075434 363.5764,38.889196 C 363.15808,38.703914 361.95088,38.240229 360.37168,37.356794 C 358.83928,36.102793 356.28495,34.848314 354.84519,33.73423 C 355.07727,32.805907 355.44879,31.69039 355.72719,30.62215 C 355.86663,30.342793 356.09872,29.368149 356.09872,28.625108 C 356.14504,28.485191 356.28448,27.231667 356.19183,25.651989 C 356.09872,24.073266 355.40199,21.194221 355.35615,19.196701 C 355.82079,18.268378 355.77399,16.966623 355.77399,16.735498 C 355.77399,16.502939 356.09919,15.527817 356.42391,15.248938 C 356.74911,14.970537 357.21375,14.459577 357.21375,14.227018 C 357.21375,13.99446 355.91343,14.134377 355.49511,14.413256 C 355.07727,14.691657 353.54487,16.456141 353.49807,16.642379 C 353.45175,16.828139 353.54487,18.9183 353.54487,19.660863 C 353.54487,20.404859 353.17287,23.097666 353.08071,23.934304 C 352.98711,24.769986 352.52295,26.069352 352.75503,27.74215 C 352.75503,27.74215 353.21919,28.625108 352.75503,29.321828 C 352.29087,30.018071 351.87255,31.272072 351.87255,31.272072 L 351.36159,31.64407 L 350.85111,31.457832 C 350.85111,31.457832 350.43327,31.086789 349.73655,31.039513 C 349.03983,30.993192 348.85359,30.714313 347.55374,30.667993 C 346.25295,30.621672 344.53478,32.20135 344.34902,34.940956 C 344.16326,37.681516 346.81023,38.980883 346.81023,38.980883 C 346.81023,38.980883 349.41135,39.724879 349.68975,39.260717 C 349.68975,39.260717 350.33967,40.003758 350.47959,40.14272 C 351.40839,41.768719 352.66239,43.673119 355.07727,45.483923 C 357.49263,47.29616 362.27656,47.063602 363.34432,47.248884 C 363.71584,47.29616 364.41208,48.177208 365.5276,49.385843 C 366.64216,50.593047 369.28865,51.336565 369.93952,51.336565 C 370.58945,51.336565 371.88977,51.104007 373.46945,50.035765 C 374.81609,50.222004 378.76433,50.267847 380.01785,50.222004 L 380.57513,50.360488 C 382.06074,54.587608 384.4761,56.305771 386.42682,57.791853 C 388.11824,59.080713 389.5389,60.068251 390.23514,61.228656 C 390.76234,62.106361 391.30338,63.551852 391.86066,63.969216 C 392.41794,64.387057 392.92843,63.877052 393.30043,63.643061 C 393.67242,63.411935 394.27602,62.854655 394.8801,62.946341 C 396.22627,63.225698 396.4593,63.133056 397.06291,62.715215 C 397.06291,62.715215 397.75915,62.715215 397.89859,62.436813 C 397.89859,62.436813 398.36275,62.297374 398.40907,61.971697 C 398.59531,61.971697 398.78059,61.879533 398.96635,61.461214 C 398.96635,61.461214 399.24523,61.508012 399.52411,61.461214 C 399.80156,61.415371 399.8942,60.99753 399.6158,60.764971 z M 370.73509,39.529568 C 370.33397,39.930218 369.54795,40.347104 369.21081,40.73295 C 368.80968,40.845648 368.37608,40.395812 368.37608,40.395812 C 368.35985,40.027157 368.48878,39.128918 368.61676,38.759307 C 368.74521,38.390652 369.11435,37.138561 369.1941,37.010582 C 369.77191,36.528752 370.55841,35.935179 370.71886,35.533096 C 370.87931,35.132446 371.1367,34.699324 371.18397,34.474884 C 371.16822,34.619099 371.20021,34.747077 371.20021,34.747077 C 371.20021,34.747077 370.95953,37.860591 370.73509,39.529568 z M 371.3769,33.367485 C 371.18397,33.559453 370.95906,33.672151 370.95906,33.672151 C 370.95906,33.480183 371.1515,33.142567 371.45665,33.046583 L 371.3769,33.367485 z" />
    </g>
  </g>
</svg>
