<?xml version="1.0" encoding="UTF-8" standalone="no"?>
<!-- Created with Inkscape (http://www.inkscape.org/) -->
<svg
   xmlns:dc="http://purl.org/dc/elements/1.1/"
   xmlns:cc="http://creativecommons.org/ns#"
   xmlns:rdf="http://www.w3.org/1999/02/22-rdf-syntax-ns#"
   xmlns:svg="http://www.w3.org/2000/svg"
   xmlns="http://www.w3.org/2000/svg"
   xmlns:sodipodi="http://sodipodi.sourceforge.net/DTD/sodipodi-0.dtd"
   xmlns:inkscape="http://www.inkscape.org/namespaces/inkscape"
   height="687.99103"
   id="svg2"
   inkscape:version="0.46"
   sodipodi:docbase="/home/ff/Desktop"
   sodipodi:docname="sun_ff77_01.svg"
   sodipodi:version="0.32"
   width="687.35657"
   inkscape:output_extension="org.inkscape.output.svg.inkscape"
   version="1.0"
   inkscape:export-filename="C:\joanna\Gfx\drawings_vector\admin\thumbs\ff77\sun_ff77_01.png"
   inkscape:export-xdpi="26.187283"
   inkscape:export-ydpi="26.187283">
  <metadata
     id="metadata3">
    <rdf:RDF>
      <cc:Work
         rdf:about="">
        <dc:title>sun</dc:title>
        <dc:description>sun</dc:description>
        <dc:subject>
          <rdf:Bag>
            <rdf:li>symbol</rdf:li>
            <rdf:li>weather</rdf:li>
            <rdf:li>sun</rdf:li>
          </rdf:Bag>
        </dc:subject>
        <dc:publisher>
          <cc:Agent
             rdf:about="http://www.openclipart.org">
            <dc:title>Open Clip Art Library</dc:title>
          </cc:Agent>
        </dc:publisher>
        <dc:creator>
          <cc:Agent>
            <dc:title>ff77</dc:title>
          </cc:Agent>
        </dc:creator>
        <dc:rights>
          <cc:Agent>
            <dc:title>ff77</dc:title>
          </cc:Agent>
        </dc:rights>
        <dc:date />
        <dc:format>image/svg+xml</dc:format>
        <dc:type
           rdf:resource="http://purl.org/dc/dcmitype/StillImage" />
        <cc:license
           rdf:resource="http://creativecommons.org/licenses/publicdomain/" />
        <dc:language>en</dc:language>
      </cc:Work>
      <cc:License
         rdf:about="http://creativecommons.org/licenses/publicdomain/">
        <cc:permits
           rdf:resource="http://creativecommons.org/ns#Reproduction" />
        <cc:permits
           rdf:resource="http://creativecommons.org/ns#Distribution" />
        <cc:permits
           rdf:resource="http://creativecommons.org/ns#DerivativeWorks" />
      </cc:License>
    </rdf:RDF>
  </metadata>
  <defs
     id="defs3">
    <inkscape:perspective
       sodipodi:type="inkscape:persp3d"
       inkscape:vp_x="0 : 526.18109 : 1"
       inkscape:vp_y="0 : 1000 : 0"
       inkscape:vp_z="744.09448 : 526.18109 : 1"
       inkscape:persp3d-origin="372.04724 : 350.78739 : 1"
       id="perspective8" />
  </defs>
  <sodipodi:namedview
     bordercolor="#666666"
     borderopacity="1.0"
     id="base"
     inkscape:current-layer="svg2"
     inkscape:cx="99.291661"
     inkscape:cy="585.71483"
     inkscape:document-units="px"
     inkscape:pageopacity="0.0"
     inkscape:pageshadow="2"
     inkscape:window-height="774"
     inkscape:window-width="1145"
     inkscape:window-x="66"
     inkscape:window-y="0"
     inkscape:zoom="0.4235"
     pagecolor="#ffffff"
     showgrid="false" />
  <path
     d="M 338.46389,681.84192 C 327.85928,669.98813 322.68557,662.70024 317.79718,652.72999 C 313.78232,644.54136 311.64849,636.40342 310.20606,623.77894 C 308.65155,610.17342 309.23639,601.00587 313.469,572.63202 C 315.40761,559.63631 315.82686,545.67773 314.47385,539.17742 C 313.54132,534.69734 308.30709,518.40294 307.3439,516.98159 C 306.56531,515.83263 305.87659,516.55632 299.95785,524.7428 C 294.38699,532.4481 286.97505,539.57971 274.79219,548.95667 C 268.90779,553.48579 262.59349,558.34948 260.76042,559.76487 C 232.11605,581.88228 219.3751,599.39863 214.72955,623.0484 C 214.35669,624.94657 213.89246,633.63195 213.69793,642.34913 C 213.33007,658.83318 213.09169,661.67494 212.15819,660.70417 C 211.39118,659.90656 206.07091,643.86857 204.49755,637.61112 C 201.18818,624.44938 200.53591,615.1278 202.18985,604.63212 C 204.59203,589.38822 212.87136,568.24892 221.97201,554.123 C 223.28724,552.08151 224.36334,550.27503 224.36334,550.10859 C 224.36334,549.94216 225.59376,547.83557 227.09761,545.42728 C 236.88643,529.75128 240.58457,521.00958 242.64957,508.66541 C 243.64165,502.73498 244.06687,488.67386 243.25413,488.67386 C 243.02867,488.67386 240.78497,490.03333 238.26812,491.69489 C 227.25809,498.96347 219.86296,501.89263 196.25018,508.3379 C 170.37253,515.40139 160.78443,518.68273 150.05555,524.1471 C 132.39754,533.14059 120.74298,544.866 113.3741,561.05158 C 112.08531,563.88235 110.21884,567.9355 109.22637,570.05859 C 108.23391,572.18167 106.1868,576.58698 104.67724,579.84817 C 103.16768,583.10937 101.68645,585.6255 101.38563,585.43958 C 100.50418,584.89481 100.75485,578.53345 102.10582,567.16348 C 103.79491,552.94783 105.79653,545.29658 110.10043,536.60399 C 118.38344,519.87468 131.35489,506.0245 155.84577,487.7597 C 177.25718,471.79147 183.72058,465.01395 190.87085,451.03231 C 193.70568,445.48909 195.82635,439.97833 195.31965,439.47163 C 195.00082,439.15281 191.171,439.71346 184.26525,441.08988 C 178.98213,442.14289 163.04594,441.80565 152.62898,440.42038 C 123.62959,436.56402 120.6153,436.29572 105.98555,436.26866 C 94.352393,436.24714 90.400843,436.47353 85.861313,437.42163 C 75.161543,439.65632 66.866493,442.82461 59.171541,447.6158 C 54.159061,450.73676 53.240141,451.5133 39.196291,464.49593 C 33.423771,469.83224 28.429701,474.29482 28.098371,474.41277 C 26.109291,475.12083 28.250381,470.07609 35.818551,456.2228 C 42.683081,443.65748 51.995781,432.97185 61.915561,426.2784 C 74.822863,417.56908 92.161623,410.4668 112.1857,405.6868 C 123.30187,403.03323 136.67446,399.34621 139.44014,398.17237 C 146.51,395.17166 151.04314,392.57223 156.46257,388.41123 C 162.09624,384.08572 170.44978,375.9567 169.86094,375.37295 C 169.58336,375.09779 167.08345,374.40423 164.30555,373.83169 C 153.00169,371.50192 141.60539,366.71942 127.00477,358.17828 C 123.88071,356.35075 121.23232,354.8555 121.11947,354.8555 C 121.00662,354.8555 118.9305,353.64636 116.50587,352.16852 C 108.46978,347.27043 88.405513,337.62068 80.894613,335.04155 C 69.706903,331.19987 63.417431,330.08623 52.908561,330.08623 C 40.833491,330.08623 36.867991,330.95217 20.419004,337.18099 C 5.597591,342.79347 2.177515,343.96895 1.212543,343.78231 C -0.24310497,343.50075 12.733706,332.09954 22.097341,325.43328 C 33.421981,317.37091 44.303111,313.15436 59.092841,311.09712 C 75.092393,308.87159 87.072123,309.43427 114.02752,313.67741 C 125.19992,315.43609 139.83904,316.03243 146.32986,314.99326 C 151.32674,314.19327 165.5403,310.17775 166.77569,309.21703 C 167.13347,308.93881 168.22235,308.52099 169.19543,308.28853 C 170.16851,308.05607 170.96467,307.46443 170.96467,306.97376 C 170.96467,306.48309 168.14194,304.06409 164.69193,301.59821 C 155.949,295.34922 148.05112,287.28206 138.73133,275.08117 C 125.30391,257.50282 116.78218,247.44124 108.47074,239.35261 C 99.270043,230.39857 94.861043,227.09905 85.025743,221.8073 C 79.165413,218.65422 69.073443,215.57952 61.445051,214.623 C 58.537781,214.25846 50.650801,213.92594 43.918431,213.88408 C 31.385011,213.80614 27.817611,213.46524 27.817611,212.34549 C 27.817611,211.99511 31.862361,210.36278 36.805941,208.71808 C 57.802151,201.73277 71.427503,200.17036 86.307023,203.04181 C 92.414483,204.22042 106.6241,208.63741 111.40103,210.84213 C 121.02523,215.28406 131.62674,220.89622 137.04005,224.41476 C 139.08154,225.74168 140.86139,226.82734 140.99528,226.82734 C 141.12916,226.82734 143.12008,227.97032 145.41952,229.36727 C 151.1617,232.85578 161.53989,238.15903 165.58985,239.67431 C 171.08499,241.7303 181.68153,243.57558 190.42623,243.9993 C 200.00624,244.46349 199.93625,244.52948 196.01559,238.72946 C 192.09246,232.92579 186.83635,222.1173 184.59616,215.24691 C 183.50007,211.88537 180.97514,203.05529 178.98519,195.62451 C 175.18566,181.43641 169.72424,163.95647 167.72864,159.59648 C 167.0808,158.1811 165.7928,155.28599 164.86641,153.16291 C 158.03045,137.49632 144.46418,122.58726 130.73958,115.6582 C 128.62488,114.59056 123.85481,112.36462 120.13942,110.71166 C 113.27431,107.65741 104.48982,103.6127 102.80705,102.7312 C 99.028463,100.75183 106.14154,100.61867 120.78278,102.39467 C 138.82149,104.5828 147.95472,107.58648 159.75591,115.21193 C 172.92651,123.72224 184.89122,135.81226 198.58346,154.44612 C 213.35593,174.55009 218.04209,179.62405 227.76976,186.04781 C 232.61934,189.25027 245.8885,195.94619 247.38517,195.94619 C 248.42509,195.94619 248.45352,196.36064 246.57256,184.10012 C 245.24959,175.47676 245.34588,166.63932 246.8886,155.09298 C 250.80736,125.76356 251.48344,117.64007 251.19888,103.3027 C 250.83637,85.037929 249.2836,77.897189 242.84108,64.867349 C 238.9055,56.907759 235.51684,52.541299 223.48959,39.931989 C 214.52062,30.528939 211.99626,27.386519 213.41166,27.386519 C 213.78239,27.386519 218.49712,29.594089 223.88886,32.292239 C 241.12575,40.917979 250.78252,48.181179 258.51024,58.332239 C 263.09221,64.351059 264.65159,66.955259 269.06569,75.960019 C 274.49049,87.026589 277.5286,95.831489 282.273,114.23679 C 288.91231,139.99311 290.49632,144.20195 297.27345,154.09406 C 300.52903,158.846 310.8711,170.21189 311.93943,170.21189 C 312.23609,170.21189 312.65444,169.41573 312.86911,168.44265 C 316.37192,152.56442 319.64206,143.9085 326.51417,132.3248 C 328.11175,129.6319 330.05673,126.27056 330.83634,124.85518 C 331.61596,123.43979 333.34639,120.39993 334.68177,118.09993 C 351.37204,89.353059 357.54557,71.822839 357.53349,53.210579 C 357.53081,49.091979 357.22971,43.880029 356.86436,41.628489 C 356.21433,37.622369 353.08784,27.036119 351.42318,23.204699 C 349.60158,19.012029 343.38448,2.0203891 343.38448,1.2345291 C 343.38448,-0.35038085 354.92203,12.421839 361.19674,20.952939 C 373.00138,37.002509 377.48243,52.704449 377.48243,78.019179 C 377.48243,87.750189 377.15481,92.402199 375.85719,101.09749 C 374.9633,107.08729 373.94047,114.15936 373.58422,116.81321 C 373.22797,119.46706 372.66546,123.66497 372.33422,126.14189 C 371.37773,133.29403 371.59288,141.34613 372.92395,148.21263 C 374.3563,155.60159 378.47019,168.41344 380.0283,170.33761 C 381.07938,171.63565 381.20193,171.52611 385.65523,165.30884 C 391.54463,157.08666 399.81968,148.68457 408.68528,141.92527 C 428.1812,127.06121 437.22797,119.59018 445.25057,111.72887 C 459.12882,98.129669 465.46595,88.538849 470.37271,73.708259 C 472.46922,67.371619 473.26313,60.322879 473.60346,45.025349 C 473.793,36.503599 474.21632,28.831559 474.54418,27.976379 L 475.14025,26.421479 L 475.87008,28.285759 C 479.12848,36.609109 483.01211,50.027479 484.64077,58.589359 C 488.87388,80.843349 481.77095,106.86142 463.12542,137.40065 C 449.90667,159.05143 446.92471,165.76363 444.83316,178.57553 C 443.4399,187.11016 442.78413,198.24543 443.64346,198.77655 C 444.01809,199.00807 446.36255,197.89121 448.85331,196.29465 C 454.88735,192.42695 466.32297,186.73179 471.45362,185.03932 C 473.73104,184.28804 480.51614,182.35574 486.53153,180.74532 C 505.72676,175.60645 520.58671,171.18417 521.9162,170.21496 C 522.27005,169.957 523.36363,169.55377 524.34643,169.31886 C 525.32922,169.08398 527.64531,168.19875 529.49329,167.35172 C 531.34127,166.50469 534.15609,165.22122 535.7484,164.49957 C 542.01174,161.66101 549.26887,156.88542 555.84206,151.27688 C 564.65696,143.75563 570.51402,134.94557 577.89874,118.09993 C 582.00284,108.73785 584.93114,103.06732 585.80335,102.79306 C 586.47225,102.58271 586.56058,103.87401 586.24077,109.18884 C 585.43946,122.50338 583.45053,134.61723 580.66498,143.14747 C 575.02016,160.43407 559.2377,179.32279 535.95755,196.65412 C 520.85435,207.89796 512.10604,214.86886 509.49954,217.73646 C 503.62073,224.20419 498.17361,232.5618 494.55942,240.65954 C 493.45388,243.13646 492.25723,245.70381 491.90023,246.36476 C 491.53699,247.03721 491.49517,247.81062 491.8054,248.1208 C 492.11556,248.43098 495.75156,248.08966 500.06102,247.34581 C 506.60487,246.2163 509.50282,246.067 519.34277,246.35244 C 525.71202,246.5372 533.81833,247.13541 537.35679,247.6818 C 544.40085,248.76949 557.02635,250.26017 568.55963,251.3659 C 588.72484,253.29918 607.443,250.6104 621.90684,243.7028 C 630.18858,239.74759 635.95776,235.12202 651.94198,219.62132 C 657.72673,214.01161 660.55975,212.13022 660.55975,213.8984 C 660.55975,214.88623 654.80878,225.72338 647.7617,238.01506 C 640.44968,250.76876 627.27328,262.12599 611.02122,269.68303 C 604.60341,272.66723 603.65543,273.0782 600.08414,274.42429 C 598.13799,275.15783 595.96666,276.02725 595.25897,276.35632 C 593.13016,277.34617 583.79433,279.96492 569.92123,283.46365 C 548.5662,288.8493 544.4417,290.41674 534.48612,296.93006 C 528.64122,300.75402 516.70604,311.65922 517.54665,312.40764 C 517.82684,312.65709 520.77225,313.49343 524.09198,314.2662 C 529.60723,315.55 536.0343,317.46942 539.28686,318.80407 C 542.41268,320.08672 551.82925,324.75921 555.17457,326.68754 C 557.18977,327.84912 560.80865,329.93531 563.21654,331.3235 C 576.76938,339.13686 581.01542,341.48117 587.217,344.57447 C 590.57854,346.25119 595.21071,348.41885 597.51071,349.3915 C 599.81072,350.36414 602.67205,351.58909 603.86928,352.1136 C 608.88991,354.3132 623.43667,357.43416 630.5441,357.83663 C 640.23847,358.38559 651.78584,356.76686 658.24997,353.9528 C 661.30341,352.62352 670.73593,349.06528 671.20623,349.06528 C 671.43604,349.06528 672.53631,348.65947 673.65137,348.16347 C 678.85118,345.85045 684.93291,343.80974 686.00879,344.01693 C 686.8945,344.1875 685.4867,345.72864 680.47257,350.07754 C 659.54229,368.23093 647.84296,374.07388 626.46181,377.0519 C 612.71551,378.96652 599.18698,378.22361 573.06313,374.11954 C 568.2862,373.36908 559.74563,372.60963 554.08409,372.43186 C 542.74774,372.07592 538.05335,372.78917 526.33865,376.64736 C 518.20043,379.32767 515.78726,380.45651 516.19117,381.39416 C 516.38166,381.83638 518.32679,383.35323 520.51356,384.76496 C 530.28777,391.07476 538.5284,399.27833 548.63285,412.75767 C 563.39867,432.4554 575.792,446.74452 584.12798,453.68255 C 594.46023,462.28212 602.06305,466.7392 611.81732,469.91525 C 621.31089,473.00642 623.89063,473.34139 641.70127,473.79547 C 650.96762,474.03171 658.74104,474.41688 658.97548,474.65138 C 659.98504,475.6609 657.96632,476.61063 647.74768,479.93357 C 634.3928,484.27634 627.80494,485.58269 617.4548,485.94053 C 608.69137,486.24351 603.01464,485.5785 593.75653,483.16434 C 588.52173,481.79932 574.94643,476.83371 571.87518,475.16055 C 571.2901,474.84179 568.7848,473.58945 566.30787,472.37758 C 560.59228,469.58113 557.92653,468.09959 549.40037,462.98099 C 545.60714,460.70377 540.47707,457.6279 538.00015,456.14572 C 524.03671,447.79003 513.61226,444.63013 497.45408,443.85519 C 490.23844,443.50914 488.78348,443.59106 488.78458,444.34329 C 488.78528,444.84046 490.08622,447.22553 491.67556,449.64345 C 494.84114,454.45932 500.14485,465.09274 502.15811,470.65985 C 502.86194,472.60601 504.79788,479.26476 506.46019,485.45707 C 517.74795,527.50453 523.24384,540.61804 535.78963,555.43818 C 543.74359,564.83405 551.07934,569.76484 569.84634,578.32983 C 582.6083,584.15422 585.93029,585.79457 585.93029,586.27195 C 585.93029,587.36454 569.40944,586.12465 557.39641,584.13048 C 532.24338,579.95509 512.62214,565.3055 487.87988,532.22821 C 471.7623,510.68098 467.36676,506.25981 454.68534,498.84016 C 448.83497,495.41722 440.02129,491.54299 439.42999,492.13435 C 439.19355,492.37074 439.48081,495.66961 440.06832,499.46517 C 442.25734,513.60688 442.16187,521.21449 439.56612,539.49911 C 438.2143,549.02093 436.22342,568.12205 435.71035,576.49216 C 434.71758,592.68741 437.94312,610.18874 444.24751,622.81383 C 447.87437,630.07716 450.66873,633.68047 462.95641,646.93976 C 473.0855,657.86973 475.66883,661.09361 474.29783,661.09361 C 473.90744,661.09361 460.34573,654.2044 455.53966,651.56472 C 433.9359,639.69882 422.27846,625.01555 411.26076,595.79289 C 410.32687,593.31596 407.69502,583.965 405.41213,575.01297 C 398.56783,548.17383 396.05379,541.62129 389.00716,532.25602 C 384.59552,526.39277 376.18452,517.52145 375.31267,517.81207 C 374.9252,517.94122 374.36745,519.32714 374.07322,520.89187 C 371.99282,531.95536 366.97988,544.86815 360.23094,556.54808 C 359.20863,558.31731 357.28,561.64668 355.94507,563.94669 C 353.23017,568.62431 352.11932,570.59559 347.24409,579.38727 C 342.04206,588.76828 341.03842,590.68738 340.29674,592.67147 C 339.91954,593.68056 338.69121,596.6775 337.56711,599.33135 C 334.54584,606.46427 331.9302,614.98416 330.75293,621.52713 C 329.36496,629.24113 329.39694,641.24674 330.82403,648.22646 C 331.75057,652.75812 336.23103,666.20025 338.97277,672.67407 C 339.82426,674.6846 344.02784,686.25068 344.02784,686.58298 C 344.02784,687.59975 342.29061,686.11942 338.46389,681.84192 z"
     id="path2881"
     sodipodi:nodetypes="cccccccccccccccccccccccccccccccccccccccccccccccccccccccccccccccccccccccccccccccccccccccccccccccccccccccccccccccccccccccccccccccccccccccccccccccccccccccccccccccccccccccccccccccccccccccccccccccccccccccccccccccccccccccccccccc"
     style="fill:#fefe98;stroke:#ff0000;stroke-width:2.20000005;stroke-miterlimit:4;stroke-dasharray:none;stroke-opacity:1" />
</svg>
