<?xml version="1.0" encoding="UTF-8" standalone="no"?>
<!-- Created with Inkscape (http://www.inkscape.org/) -->

<svg
   xmlns:dc="http://purl.org/dc/elements/1.1/"
   xmlns:cc="http://creativecommons.org/ns#"
   xmlns:rdf="http://www.w3.org/1999/02/22-rdf-syntax-ns#"
   xmlns:svg="http://www.w3.org/2000/svg"
   xmlns="http://www.w3.org/2000/svg"
   xmlns:sodipodi="http://sodipodi.sourceforge.net/DTD/sodipodi-0.dtd"
   xmlns:inkscape="http://www.inkscape.org/namespaces/inkscape"
   width="252.77272"
   height="491.86533"
   id="svg2"
   version="1.1"
   inkscape:version="0.47 r22583"
   sodipodi:docname="Novo documento 1">
  <defs
     id="defs4">
    <inkscape:perspective
       sodipodi:type="inkscape:persp3d"
       inkscape:vp_x="0 : 526.18109 : 1"
       inkscape:vp_y="0 : 1000 : 0"
       inkscape:vp_z="744.09448 : 526.18109 : 1"
       inkscape:persp3d-origin="372.04724 : 350.78739 : 1"
       id="perspective10" />
    <inkscape:perspective
       id="perspective2824"
       inkscape:persp3d-origin="0.5 : 0.33333333 : 1"
       inkscape:vp_z="1 : 0.5 : 1"
       inkscape:vp_y="0 : 1000 : 0"
       inkscape:vp_x="0 : 0.5 : 1"
       sodipodi:type="inkscape:persp3d" />
  </defs>
  <sodipodi:namedview
     id="base"
     pagecolor="#ffffff"
     bordercolor="#666666"
     borderopacity="1.0"
     inkscape:pageopacity="0.0"
     inkscape:pageshadow="2"
     inkscape:zoom="0.7"
     inkscape:cx="160.29632"
     inkscape:cy="158.01386"
     inkscape:document-units="px"
     inkscape:current-layer="layer1"
     showgrid="false"
     inkscape:window-width="1600"
     inkscape:window-height="838"
     inkscape:window-x="-8"
     inkscape:window-y="-8"
     inkscape:window-maximized="1" />
  <metadata
     id="metadata7">
    <rdf:RDF>
      <cc:Work
         rdf:about="">
        <dc:format>image/svg+xml</dc:format>
        <dc:type
           rdf:resource="http://purl.org/dc/dcmitype/StillImage" />
        <dc:title></dc:title>
      </cc:Work>
    </rdf:RDF>
  </metadata>
  <g
     inkscape:label="Camada 1"
     inkscape:groupmode="layer"
     id="layer1"
     transform="translate(-455.40849,-257.65808)">
    <path
       style="fill:#000000;fill-opacity:1;stroke:none"
       d="m 473.85714,444.1479 c -1.86391,-11.54091 0.0153,-23.51677 -5.12043,-34.18233 -3.08254,-6.40162 -4.24369,-12.52492 -7.25213,-19.0516 -5.66246,-12.28448 -0.14353,-25.99635 1.00174,-39.01379 0.82261,-9.35004 2.45364,-19.43706 -0.77203,-28.46657 -3.77076,-2.1943 -9.58554,-13.67253 -3.98185,-20.11198 7.04409,-7.10401 -0.75852,-13.92316 0.0662,-22.14381 -1.08676,-12.18709 5.56478,-11.96169 7.54372,-6.08362 4.68384,13.91251 10.86091,27.77631 11.01476,42.62512 -1.84119,12.42678 -2.10934,24.82655 0.53572,37.32143 2.84359,13.43273 4.77363,27.32968 7.01951,40.76694 3.06837,3.20044 7.49782,16.27576 11.55192,9.76878 1.83075,-5.50097 -1.77668,-13.42229 5.62223,-14.59101 5.23919,-0.82757 6.27361,11.62167 12.05831,15.21167 7.29717,8.54323 6.73182,21.21213 10.12639,31.63173 0.84805,4.34091 5.48472,16.25233 10.1261,9.22827 1.02319,-14.00645 2.16595,-28.35424 4.38839,-42.37352 -5.50498,-15.85832 -8.24949,-32.40197 -8.91814,-49.10177 -0.31379,-7.83701 -2.88475,-14.85713 -4.83995,-22.35462 -2.27748,-8.7333 -5.33612,-17.14992 -5.27988,-26.43893 0.0475,-7.84113 -2.06763,-14.87113 -6.63138,-21.22722 -0.35816,-5.95419 -8.46066,-10.48441 -7.18866,-15.47502 8.52167,6.17721 4.85123,2.87634 0.24418,-4.34216 -3.85777,-10.76088 12.72745,9.07491 4.87615,-3.06572 -3.52156,-10.23195 2.9515,-2.56624 4.96179,3.11152 2.66547,7.5282 7.47546,14.74916 9.47217,22.37212 4.78682,18.27491 13.07432,39.11729 17.46416,53.46566 4.38983,14.34838 0.87263,25.02633 6.79598,32.78357 5.92335,7.75725 9.46876,14.98559 13.86501,22.77257 4.94288,0.12695 16.16399,-5.61626 10.67047,-10.75811 -6.37391,-5.96588 -7.79945,-14.60998 -5.54988,-23.08508 2.52996,-9.53142 11.22921,-17.38484 20.49984,-19.29613 8.584,-1.76973 16.34988,2.31018 21.51175,9.53542 5.53647,7.7496 3.86325,17.7456 1.62238,25.19738 -1.48049,4.9232 -3.1036,16.52002 -9.88242,12.88422 -7.37219,-3.95405 -5.17603,5.50735 -6.72928,10.34373 5.79767,4.2441 9.55841,10.1425 14.63567,14.90898 3.94022,3.69903 5.78614,4.31122 12.26357,10.60557 6.47743,6.29435 12.16253,22.45205 20.94479,31.92289 9.06505,9.7758 20.16219,19.65815 24.93431,32.55722 2.89198,7.81704 9.35271,13.62854 12.53439,21.21803 5.58181,8.19417 13.42824,13.87959 20.7587,20.21588 4.50324,3.89249 10.55609,10.02601 5.35714,11.07143 5.77751,14.36262 -12.41875,-11.81119 -18.30141,-11.07143 -3.85603,0.48491 2.09055,17.48162 -3.37788,10.69927 -0.47132,-8.17849 -8.26157,-13.73551 -7.60642,-22.12784 -13.91555,-15.95507 -28.89654,-31.06211 -41.78572,-47.85714 -7.56487,-9.85727 -17.42336,-18.02581 -24.46428,-28.39286 -7.67736,-2.25484 -12.82972,9.66533 -13.92857,15 -1.38219,6.7102 -10.04182,9.22189 -14.19629,14.34454 -4.38937,5.4123 -12.13497,8.35874 -16.03284,13.30038 -5.91444,7.4982 -3.67934,18.52431 0.4077,27.71222 5.22846,11.75387 10.64156,23.95919 11.00836,37.35258 0.23579,8.60951 3.21321,17.3478 1.84878,25.86171 -7.06428,-1.46568 -7.46302,-10.21702 -14.62139,-12.03191 -5.95245,-1.50915 -9.54624,-6.13451 -13.63277,-10.53918 -8.06739,-8.69543 -6.38908,0.54903 -6.10582,7.15482 0.52475,12.23775 -2.10159,24.06588 -7.05423,35.23749 -2.40324,12.80323 -2.45086,25.95491 0.73889,38.55975 1.7365,17.58599 -1.114,35.17646 -1.62805,52.75165 -2.11478,8.55956 1.43418,16.6544 -0.19663,25.29595 0.73967,6.72777 6.07154,12.55887 4.51489,19.02257 -0.10147,5.91139 -0.71313,16.36903 -9.008,14.5324 -6.23979,0.61854 -8.54594,-9.00621 -8.42774,-14.26448 -1.12571,-6.07846 2.10097,-14.30115 -2.79344,-18.75478 -6.71457,-1.45012 -6.66965,-14.65635 1.04656,-15.36762 3.47285,-7.73043 -0.82457,-17.05846 -1.67657,-25.29301 -2.67695,-12.67798 -7.87608,-25.04767 -5.84708,-38.29811 0.57931,-8.44104 2.85822,-16.91977 -0.52285,-25.01282 0.50407,-24.32818 -5.38424,-48.09757 -6.27095,-72.33496 -1.2288,-7.4216 -0.26465,-15.85691 -2.89968,-22.67035 -7.64014,-6.78075 -16.23649,-13.28975 -18.33217,-23.9577 -4.05115,-12.86744 -8.06141,-25.78866 -12.09774,-38.69306 -1.40823,-3.40269 -1.0712,-6.92563 -1.07809,-10.51522 l 2e-5,0 z"
       id="path2830"
       sodipodi:nodetypes="cssscccscsccsccccsssccccsszzcsssssscazsscscsccscssssscssscccccccccccccccccc" />
  </g>
</svg>
