<?xml version="1.0" standalone="no"?>
<!DOCTYPE svg PUBLIC "-//W3C//DTD SVG 20010904//EN"
 "http://www.w3.org/TR/2001/REC-SVG-20010904/DTD/svg10.dtd">
<svg version="1.0" xmlns="http://www.w3.org/2000/svg"
 width="468pt" height="539pt" viewBox="0 0 468 539"
 preserveAspectRatio="xMidYMid meet">
<metadata>
Created by potrace 1.8, written by Peter Selinger 2001-2007
</metadata>
<g transform="translate(0,539) scale(0.191803,-0.191803)"
fill="#000000" stroke="none">
<path d="M13 2803 c9 -2 23 -2 30 0 6 3 -1 5 -18 5 -17 0 -22 -2 -12 -5z"/>
<path d="M1647 2713 c-9 -2 -15 -9 -12 -14 4 -5 -2 -9 -11 -9 -10 0 -14 -3
-11 -6 4 -4 -3 -16 -16 -27 -15 -14 -18 -21 -9 -24 16 -6 -3 -33 -23 -33 -8 0
-23 -12 -34 -26 -12 -15 -21 -24 -21 -20 0 3 -9 -3 -21 -15 -11 -11 -27 -18
-35 -15 -8 3 -14 1 -14 -5 0 -6 -4 -7 -10 -4 -8 5 -65 -28 -80 -46 -3 -4 -14
-8 -24 -10 -11 -2 -18 -8 -17 -13 2 -5 -4 -13 -13 -18 -9 -5 -16 -15 -16 -22
0 -7 -11 -19 -25 -26 -35 -19 -33 -55 3 -69 l27 -11 -29 5 c-15 3 -35 13 -43
20 -17 18 -43 20 -43 4 0 -8 -13 -10 -37 -6 -21 3 -32 3 -25 0 6 -2 12 -20 12
-38 0 -40 -9 -67 -20 -60 -5 3 -21 -8 -37 -25 -15 -16 -34 -30 -40 -30 -7 0
-12 -6 -10 -12 1 -7 -13 -17 -30 -22 -43 -13 -42 -24 3 -24 19 0 38 -3 41 -6
4 -3 -3 -6 -15 -6 -12 0 -45 -9 -73 -19 -42 -16 -50 -17 -45 -5 7 17 -3 13
-51 -22 -17 -13 -33 -20 -36 -16 -2 4 -2 1 -1 -5 2 -7 -4 -16 -12 -21 -10 -6
-20 -43 -30 -118 -17 -118 -13 -204 12 -241 l14 -23 -397 -2 -398 -3 399 -5
c307 -4 400 -8 404 -17 3 -10 -82 -14 -400 -15 l-403 -3 398 -2 c337 -3 401
-6 414 -18 8 -8 20 -15 28 -15 7 0 16 -8 20 -17 3 -10 5 -18 3 -18 -1 0 16
-18 40 -40 39 -37 41 -42 29 -65 -9 -18 -21 -25 -40 -24 -15 1 -27 -2 -27 -7
0 -4 -10 -10 -22 -12 -14 -3 -9 -5 15 -6 39 -1 46 -11 24 -33 -7 -7 -24 -36
-38 -65 l-24 -52 -407 -1 c-225 0 -408 -4 -408 -8 0 -5 178 -7 395 -5 266 2
395 0 395 -7 0 -5 -5 -10 -10 -10 -6 0 -9 -6 -8 -12 2 -7 -3 -12 -10 -10 -8 1
-11 -2 -7 -7 5 -9 -33 -68 -78 -121 -6 -8 -11 -16 -9 -17 16 -18 -25 -36 -76
-34 -24 1 -33 -2 -29 -11 4 -13 13 -14 55 -4 16 3 22 1 19 -7 -3 -7 -10 -11
-16 -9 -7 1 -10 -2 -7 -7 3 -5 -16 -30 -43 -56 -27 -26 -55 -59 -62 -74 -20
-37 -55 -70 -124 -116 -33 -22 -64 -46 -68 -53 -4 -6 -13 -12 -19 -12 -12 0
-48 -38 -48 -51 0 -12 -77 -89 -84 -84 -3 3 -4 2 -1 -2 3 -3 -2 -15 -11 -25
-14 -15 -15 -20 -4 -33 22 -26 -3 -39 -83 -44 -52 -3 -65 -6 -47 -12 14 -4
276 -7 583 -8 l557 -1 0 108 c0 59 3 238 7 398 l6 291 -36 -2 c-31 -2 -34 0
-25 15 9 14 23 17 72 14 42 -3 56 -1 46 6 -8 5 -25 10 -37 10 -34 0 -30 39 8
74 17 16 38 40 46 53 l15 23 272 -1 c714 -2 906 1 906 14 0 12 -95 13 -557 11
-307 -2 -544 1 -528 5 l30 9 -32 1 c-18 0 -33 -3 -33 -9 0 -5 -9 -10 -20 -10
-24 0 -24 0 -3 50 10 22 23 40 30 40 17 0 103 77 95 85 -4 4 -2 6 3 5 6 -1
236 -2 513 -1 327 1 502 4 502 11 0 7 -171 10 -492 11 -343 0 -485 4 -465 11
15 5 27 13 27 18 0 14 63 80 71 75 4 -3 17 8 29 25 12 17 26 28 31 25 5 -4 9
-1 9 5 0 6 4 9 8 6 5 -3 16 9 26 25 15 26 20 28 34 17 13 -11 15 -10 10 9 -6
22 12 48 25 38 4 -3 5 -2 3 1 -5 7 73 159 111 214 17 25 45 72 63 105 18 33
46 76 63 95 39 45 97 91 107 85 4 -2 5 7 2 21 -4 20 2 31 22 48 25 19 38 52
53 129 6 30 18 35 31 11 8 -15 10 -15 15 0 3 8 -1 23 -10 32 -16 16 -16 16 6
9 20 -6 21 -5 10 13 -10 17 -10 23 1 37 10 13 15 13 21 3 6 -8 9 -2 9 19 0 17
-5 35 -11 38 -6 4 -9 0 -7 -10 2 -10 -3 -20 -9 -22 -12 -4 -17 11 -16 45 1 13
-25 16 -43 4 -6 -4 -14 -20 -18 -35 -4 -15 -11 -25 -16 -22 -6 4 -13 -2 -16
-12 -24 -74 -65 -123 -96 -115 -5 1 -8 -3 -8 -9 0 -6 -7 -17 -15 -25 -8 -9
-15 -26 -15 -38 0 -42 -12 -86 -24 -86 -6 0 -19 -9 -29 -20 -10 -12 -12 -20
-5 -20 6 0 -6 -15 -27 -32 -21 -18 -41 -33 -45 -33 -4 0 -33 -26 -64 -57 -31
-32 -59 -58 -61 -58 -10 0 -43 -39 -37 -44 3 -3 0 -6 -7 -6 -7 0 -9 -4 -6 -10
3 -5 -1 -10 -10 -10 -10 0 -15 -8 -14 -22 4 -41 -12 -86 -33 -91 -13 -4 -17
-10 -12 -18 4 -7 3 -10 -3 -6 -5 3 -22 -6 -38 -21 -16 -15 -34 -27 -40 -27
-20 0 -55 -26 -49 -37 4 -6 -1 -8 -13 -4 -11 4 -31 2 -44 -3 -21 -9 -22 -10
-4 -11 16 0 17 -2 5 -9 -8 -6 -18 -7 -22 -5 -4 3 -8 1 -8 -4 0 -8 -55 -38 -55
-30 0 1 -11 -7 -24 -19 -13 -12 -28 -20 -33 -17 -4 3 -8 0 -8 -5 0 -14 -37
-14 -42 -1 -2 6 -29 14 -61 17 -31 3 -57 11 -57 17 0 6 -4 5 -9 -3 -14 -22
-40 -22 -38 0 1 10 5 19 10 19 4 0 6 4 3 9 -7 11 32 91 44 91 6 0 10 7 10 15
0 8 4 15 9 15 5 0 11 10 15 23 3 14 13 23 26 23 11 0 20 -3 20 -7 0 -3 11 -4
24 -2 20 4 24 2 20 -14 -4 -14 1 -19 18 -22 47 -6 82 -3 86 8 2 6 9 11 17 11
7 0 18 7 25 15 9 11 9 15 1 15 -15 0 13 56 31 62 15 5 13 151 -2 156 -6 2 -8
8 -4 13 3 5 -1 9 -8 9 -9 0 -9 3 2 10 12 8 12 10 -5 11 -19 0 -18 1 3 11 12 6
22 15 22 20 0 4 7 8 15 8 9 0 18 7 21 15 4 8 10 12 15 10 4 -3 41 26 80 65 39
38 76 70 80 70 5 0 8 4 7 9 -2 5 1 8 6 8 5 -1 12 8 17 20 6 15 15 21 33 19 14
-2 23 1 20 5 -6 10 9 41 19 40 20 -3 27 0 25 12 -2 7 5 11 17 9 11 -2 17 -1
13 4 -5 4 2 14 13 22 17 12 18 16 8 23 -11 7 -10 9 4 9 16 0 18 6 14 36 -3 19
-7 36 -8 38 -2 1 -16 7 -31 14 -22 9 -28 9 -28 -1 0 -9 -2 -9 -9 1 -6 10 -11
9 -22 -4 -8 -10 -9 -15 -3 -12 6 4 10 -3 10 -18 0 -18 -5 -24 -20 -24 -19 1
-20 2 -4 13 15 12 15 14 -3 25 -16 11 -19 9 -19 -8 0 -11 -6 -20 -14 -20 -10
0 -14 9 -13 26 2 28 -6 35 -36 27z m168 -33 c-19 -8 -19 -9 -1 -9 11 -1 17 -4
13 -7 -3 -3 -15 -3 -28 1 -17 6 -19 9 -8 16 8 5 21 8 29 8 10 0 8 -3 -5 -9z
m-135 -94 c0 -2 -8 -10 -17 -17 -16 -13 -17 -12 -4 4 13 16 21 21 21 13z
m-463 -872 c-24 -13 -31 -13 -45 -2 -13 11 -15 11 -7 -2 8 -13 7 -13 -11 0
-10 8 -21 16 -23 17 -2 2 22 3 55 3 59 -1 59 -1 31 -16z m-58 -491 c0 -11 -3
-13 -6 -5 -2 6 -10 9 -15 6 -7 -4 -8 -2 -4 4 11 18 26 14 25 -5z m-24 -83
c-15 -6 -16 -9 -4 -9 13 -1 17 -19 23 -97 4 -53 4 -99 1 -102 -3 -3 -5 11 -5
32 0 33 -2 36 -19 27 -25 -14 -94 -2 -106 18 -5 9 -10 25 -10 35 0 11 -8 20
-20 22 -18 2 -18 1 -4 -9 15 -11 14 -15 -10 -42 -21 -24 -35 -30 -69 -31 -41
-1 -42 0 -25 18 10 11 39 36 66 55 39 29 50 33 62 23 13 -11 14 -10 9 4 -8 20
14 49 32 42 8 -3 13 -2 13 2 -3 17 3 20 44 20 31 0 37 -2 22 -8z m-125 -138
c0 -4 -10 -9 -22 -9 -18 -2 -20 0 -8 7 18 12 30 13 30 2z m-86 -63 c13 11 24
10 68 -3 29 -9 76 -15 103 -14 l50 3 3 -266 2 -266 -81 -2 c-49 -1 -85 2 -89
9 -4 6 -71 12 -167 15 -89 2 -172 9 -186 16 -19 9 -36 8 -78 -4 -38 -12 -57
-13 -66 -5 -7 5 -19 8 -28 5 -8 -4 -17 -2 -20 3 -4 6 1 10 10 10 9 0 13 5 10
11 -5 7 -14 4 -26 -7 -12 -11 -39 -18 -74 -20 -34 -1 -60 -8 -70 -18 -9 -9
-23 -16 -32 -16 -9 0 3 15 28 35 42 33 65 41 134 47 21 2 30 8 29 20 -1 14 2
15 17 7 17 -9 18 -6 12 23 -3 18 -10 36 -15 39 -7 5 48 69 83 94 34 26 108 75
112 75 2 0 21 16 42 35 21 19 42 32 47 29 4 -3 8 0 8 6 0 6 5 8 10 5 6 -3 10
2 10 12 1 29 75 128 94 125 9 -2 16 3 16 9 0 7 6 4 14 -6 12 -16 16 -17 30 -6z"/>
<path d="M966 1045 c4 -8 10 -12 15 -9 11 6 2 24 -11 24 -5 0 -7 -7 -4 -15z"/>
<path d="M580 620 c0 -5 5 -10 10 -10 6 0 10 5 10 10 0 6 -4 10 -10 10 -5 0
-10 -4 -10 -10z"/>
<path d="M500 610 c0 -5 5 -10 10 -10 6 0 10 5 10 10 0 6 -4 10 -10 10 -5 0
-10 -4 -10 -10z"/>
<path d="M487 564 c6 -15 23 -19 23 -5 0 5 -7 11 -14 14 -10 4 -13 1 -9 -9z"/>
<path d="M557 456 c-4 -10 -1 -13 8 -9 8 3 12 9 9 14 -7 12 -11 11 -17 -5z"/>
<path d="M360 446 c0 -2 9 -6 20 -9 11 -3 18 -1 14 4 -5 9 -34 13 -34 5z"/>
<path d="M2191 2505 c0 -31 2 -36 9 -23 6 10 7 25 1 40 -9 20 -10 18 -10 -17z"/>
<path d="M2110 2380 c0 -5 5 -10 10 -10 6 0 10 5 10 10 0 6 -4 10 -10 10 -5 0
-10 -4 -10 -10z"/>
<path d="M1879 2293 l-24 -28 28 24 c25 23 32 31 24 31 -2 0 -14 -12 -28 -27z"/>
<path d="M920 2100 c-9 -6 -10 -10 -3 -10 6 0 15 5 18 10 8 12 4 12 -15 0z"/>
<path d="M1630 2020 c0 -5 5 -10 10 -10 6 0 10 5 10 10 0 6 -4 10 -10 10 -5 0
-10 -4 -10 -10z"/>
<path d="M1525 1620 c-3 -5 1 -10 10 -10 9 0 13 5 10 10 -3 6 -8 10 -10 10 -2
0 -7 -4 -10 -10z"/>
<path d="M2258 1613 c7 -3 16 -2 19 1 4 3 -2 6 -13 5 -11 0 -14 -3 -6 -6z"/>
<path d="M192 1563 c108 -2 288 -2 400 0 112 1 23 2 -197 2 -220 0 -311 -1
-203 -2z"/>
<path d="M1678 1493 c6 -2 18 -2 25 0 6 3 1 5 -13 5 -14 0 -19 -2 -12 -5z"/>
<path d="M880 1466 c0 -2 8 -10 18 -17 15 -13 16 -12 3 4 -13 16 -21 21 -21
13z"/>
<path d="M7 1433 c7 -2 19 -2 26 0 6 3 1 5 -13 5 -14 0 -19 -2 -13 -5z"/>
<path d="M2 1415 c7 -8 567 -9 575 -1 3 3 -126 6 -287 6 -161 0 -291 -2 -288
-5z"/>
<path d="M765 1410 c-3 -5 1 -10 10 -10 9 0 13 5 10 10 -3 6 -8 10 -10 10 -2
0 -7 -4 -10 -10z"/>
<path d="M860 1410 c0 -6 7 -10 15 -10 8 0 15 2 15 4 0 2 -7 6 -15 10 -8 3
-15 1 -15 -4z"/>
<path d="M905 1410 c-3 -5 -1 -10 4 -10 6 0 11 5 11 10 0 6 -2 10 -4 10 -3 0
-8 -4 -11 -10z"/>
<path d="M1738 1403 c7 -3 16 -2 19 1 4 3 -2 6 -13 5 -11 0 -14 -3 -6 -6z"/>
<path d="M1873 1403 c9 -2 25 -2 35 0 9 3 1 5 -18 5 -19 0 -27 -2 -17 -5z"/>
<path d="M2403 1403 c9 -2 23 -2 30 0 6 3 -1 5 -18 5 -16 0 -22 -2 -12 -5z"/>
<path d="M1418 1393 c7 -3 16 -2 19 1 4 3 -2 6 -13 5 -11 0 -14 -3 -6 -6z"/>
<path d="M1468 1393 c7 -3 16 -2 19 1 4 3 -2 6 -13 5 -11 0 -14 -3 -6 -6z"/>
<path d="M1563 1393 c9 -2 23 -2 30 0 6 3 -1 5 -18 5 -16 0 -22 -2 -12 -5z"/>
<path d="M0 1369 c0 -20 4 -21 46 -15 26 3 81 7 123 8 47 1 60 3 34 5 -24 2
-43 8 -43 14 0 5 -36 9 -80 9 -75 0 -80 -1 -80 -21z"/>
<path d="M838 1343 c6 -2 18 -2 25 0 6 3 1 5 -13 5 -14 0 -19 -2 -12 -5z"/>
<path d="M2198 1343 c12 -2 32 -2 45 0 12 2 2 4 -23 4 -25 0 -35 -2 -22 -4z"/>
<path d="M2323 1344 c7 -8 108 -7 115 1 3 3 -23 5 -58 5 -35 0 -60 -3 -57 -6z"/>
<path d="M2335 1270 c-3 -5 -3 -10 1 -10 4 0 -1 -6 -11 -14 -18 -13 -17 -15
20 -21 22 -4 46 -12 53 -18 9 -7 18 -6 30 6 15 16 14 17 -22 17 -30 0 -37 3
-32 15 3 8 0 15 -7 15 -8 0 -6 4 3 10 12 8 11 10 -7 10 -12 0 -25 -4 -28 -10z"/>
<path d="M1803 1203 c9 -2 23 -2 30 0 6 3 -1 5 -18 5 -16 0 -22 -2 -12 -5z"/>
<path d="M1868 1203 c12 -2 30 -2 40 0 9 3 -1 5 -23 4 -22 0 -30 -2 -17 -4z"/>
<path d="M2108 1183 c12 -2 30 -2 40 0 9 3 -1 5 -23 4 -22 0 -30 -2 -17 -4z"/>
<path d="M2393 1183 c9 -2 25 -2 35 0 9 3 1 5 -18 5 -19 0 -27 -2 -17 -5z"/>
<path d="M1207 1163 c-3 -5 151 -8 341 -8 l347 1 -325 -3 c-225 -2 -327 -7
-335 -15 -7 -7 -7 -9 0 -5 6 3 249 7 540 9 579 3 665 5 665 19 0 11 -1227 13
-1233 2z"/>
<path d="M7 1133 c7 -2 19 -2 26 0 6 3 1 5 -13 5 -14 0 -19 -2 -13 -5z"/>
<path d="M1212 1120 c0 -14 2 -19 5 -12 2 6 2 18 0 25 -3 6 -5 1 -5 -13z"/>
<path d="M2370 1136 c0 -10 28 -13 41 -5 10 6 7 9 -13 9 -16 0 -28 -2 -28 -4z"/>
<path d="M1510 1110 c8 -5 20 -10 25 -10 6 0 3 5 -5 10 -8 5 -19 10 -25 10 -5
0 -3 -5 5 -10z"/>
<path d="M1678 1113 c6 -2 18 -2 25 0 6 3 1 5 -13 5 -14 0 -19 -2 -12 -5z"/>
<path d="M1791 1116 c2 -2 42 -6 89 -8 47 -3 74 -2 60 2 -25 8 -157 13 -149 6z"/>
<path d="M1455 1100 c-13 -6 -15 -9 -5 -9 8 0 22 4 30 9 18 12 2 12 -25 0z"/>
<path d="M2070 1100 c20 -13 97 -13 105 0 4 6 -17 10 -57 10 -44 0 -59 -3 -48
-10z"/>
<path d="M2200 1100 c0 -5 9 -10 20 -10 11 0 20 5 20 10 0 6 -9 10 -20 10 -11
0 -20 -4 -20 -10z"/>
<path d="M1212 1065 c0 -16 2 -22 5 -12 2 9 2 23 0 30 -3 6 -5 -1 -5 -18z"/>
<path d="M1730 1080 c0 -5 21 -10 47 -10 55 0 54 5 -4 14 -27 4 -43 2 -43 -4z"/>
<path d="M1953 1083 c9 -2 23 -2 30 0 6 3 -1 5 -18 5 -16 0 -22 -2 -12 -5z"/>
<path d="M1468 1073 c7 -3 16 -2 19 1 4 3 -2 6 -13 5 -11 0 -14 -3 -6 -6z"/>
<path d="M1888 1073 c7 -3 16 -2 19 1 4 3 -2 6 -13 5 -11 0 -14 -3 -6 -6z"/>
<path d="M1600 1060 c-18 -12 -2 -12 25 0 13 6 15 9 5 9 -8 0 -22 -4 -30 -9z"/>
<path d="M1650 1060 c0 -6 25 -10 58 -9 41 0 51 3 37 9 -28 12 -95 12 -95 0z"/>
<path d="M0 961 c0 -29 3 -31 34 -31 21 0 36 6 40 15 6 16 82 22 88 6 5 -13
68 -1 68 14 0 9 -24 13 -82 14 -46 1 -98 4 -115 7 -31 6 -33 5 -33 -25z"/>
<path d="M328 963 c7 -3 16 -2 19 1 4 3 -2 6 -13 5 -11 0 -14 -3 -6 -6z"/>
<path d="M480 953 c0 -11 3 -14 8 -7 4 6 14 14 22 17 10 4 8 6 -7 6 -16 1 -23
-5 -23 -16z"/>
<path d="M2246 953 c-6 -14 -5 -15 5 -6 7 7 10 15 7 18 -3 3 -9 -2 -12 -12z"/>
<path d="M2350 960 c0 -12 34 -12 70 0 20 7 16 8 -22 9 -27 1 -48 -3 -48 -9z"/>
<path d="M1207 914 c-4 -4 -7 -128 -7 -276 0 -208 3 -268 13 -268 9 0 11 59 9
267 -1 148 -4 272 -5 276 -1 5 -6 5 -10 1z"/>
<path d="M1699 883 c-9 -10 -2 -13 35 -13 51 0 55 15 6 22 -18 3 -35 -1 -41
-9z"/>
<path d="M1609 881 c18 -11 -1 -17 -87 -26 -35 -4 -61 -9 -58 -12 10 -11 136
-15 136 -5 0 6 15 12 33 14 45 4 43 32 -3 36 -24 2 -31 0 -21 -7z"/>
<path d="M1846 852 c-3 -5 -20 -7 -38 -6 -30 3 -30 2 -6 -4 39 -10 21 -34 -27
-35 -21 -1 -33 -3 -26 -5 6 -2 11 -11 11 -19 0 -13 9 -15 52 -10 28 4 55 11
60 17 4 5 5 8 2 5 -11 -8 -36 25 -30 40 8 21 27 18 33 -5 5 -17 13 -20 67 -19
56 1 58 2 22 9 -21 4 -42 13 -46 20 -4 7 -15 10 -24 7 -8 -3 -18 -2 -21 3 -8
12 -22 13 -29 2z m64 -22 c0 -5 -2 -10 -4 -10 -3 0 -8 5 -11 10 -3 6 -1 10 4
10 6 0 11 -4 11 -10z"/>
<path d="M1410 834 c0 -9 10 -14 27 -14 21 0 24 3 15 12 -17 17 -42 19 -42 2z"/>
<path d="M1948 843 c7 -3 16 -2 19 1 4 3 -2 6 -13 5 -11 0 -14 -3 -6 -6z"/>
<path d="M2043 825 c0 -9 4 -14 9 -13 5 2 10 8 10 13 0 5 -5 11 -10 13 -5 1
-9 -4 -9 -13z"/>
<path d="M1561 809 c8 -5 10 -9 4 -9 -5 0 3 -7 19 -15 30 -16 92 -22 67 -6 -7
5 -22 6 -32 4 -14 -4 -18 -1 -13 10 3 9 13 18 22 20 10 2 -5 4 -32 5 -33 0
-45 -3 -35 -9z"/>
<path d="M1415 802 c-12 -12 -4 -22 18 -20 12 0 27 0 32 -2 6 -1 19 -2 30 -1
20 2 20 2 0 14 -21 12 -70 18 -80 9z"/>
<path d="M2027 794 c-8 -8 1 -24 14 -24 5 0 9 7 9 15 0 15 -12 20 -23 9z"/>
<path d="M1530 780 c8 -5 24 -10 34 -10 26 0 18 6 -19 14 -22 5 -26 4 -15 -4z"/>
<path d="M1251 614 c0 -11 3 -14 6 -6 3 7 2 16 -1 19 -3 4 -6 -2 -5 -13z"/>
<path d="M200 560 c0 -5 5 -10 10 -10 6 0 10 5 10 10 0 6 -4 10 -10 10 -5 0
-10 -4 -10 -10z"/>
<path d="M1823 528 c-6 -10 56 -9 82 1 14 6 4 8 -28 7 -27 -1 -51 -4 -54 -8z"/>
<path d="M1261 484 c0 -11 3 -14 6 -6 3 7 2 16 -1 19 -3 4 -6 -2 -5 -13z"/>
<path d="M1230 421 c0 -6 4 -13 10 -16 6 -3 7 1 4 9 -7 18 -14 21 -14 7z"/>
<path d="M2408 383 c6 -2 18 -2 25 0 6 3 1 5 -13 5 -14 0 -19 -2 -12 -5z"/>
<path d="M1539 369 c-10 -6 -7 -9 14 -9 29 0 35 5 14 13 -8 3 -20 1 -28 -4z"/>
<path d="M1600 370 c-10 -6 103 -10 328 -10 221 0 342 4 342 10 0 13 -649 13
-670 0z"/>
<path d="M1180 290 c0 -5 5 -10 10 -10 6 0 10 5 10 10 0 6 -4 10 -10 10 -5 0
-10 -4 -10 -10z"/>
<path d="M331 266 c-10 -11 -25 -14 -64 -9 -29 3 -50 3 -47 0 3 -3 30 -8 60
-10 30 -2 56 -9 58 -16 2 -7 -7 -9 -29 -4 -21 4 -30 3 -26 -4 8 -12 48 -11 86
1 14 5 21 4 18 -1 -3 -5 10 -9 29 -9 20 0 29 3 21 8 -9 6 -9 8 0 8 6 0 15 -4
18 -10 3 -5 31 -10 61 -10 34 0 53 4 49 10 -3 6 0 10 9 10 8 0 22 3 32 7 12 4
15 3 10 -5 -5 -8 0 -12 13 -12 11 0 22 -4 26 -10 7 -11 35 -2 35 12 0 6 -7 7
-16 4 -8 -3 -13 -2 -10 2 10 16 -110 32 -204 28 -75 -3 -97 -1 -105 11 -10 13
-13 13 -24 -1z m172 -43 c-7 -2 -19 -2 -25 0 -7 3 -2 5 12 5 14 0 19 -2 13 -5z"/>
<path d="M1206 272 c-3 -5 -33 -10 -68 -11 -68 -2 -82 -7 -55 -22 9 -6 15 -14
12 -20 -4 -5 3 -9 14 -9 13 0 18 5 15 14 -3 9 2 13 18 12 13 -1 28 2 35 7 7 5
19 4 30 -1 28 -15 101 -23 108 -12 3 5 12 7 20 4 7 -3 21 -1 31 4 14 8 10 10
-20 14 -26 3 -40 0 -47 -11 -9 -14 -10 -13 -5 2 5 16 1 18 -40 13 -37 -4 -45
-2 -40 10 6 15 0 19 -8 6z"/>
<path d="M10 256 c0 -2 9 -6 20 -9 11 -3 18 -1 14 4 -5 9 -34 13 -34 5z"/>
<path d="M73 253 c9 -2 25 -2 35 0 9 3 1 5 -18 5 -19 0 -27 -2 -17 -5z"/>
<path d="M158 253 c6 -2 18 -2 25 0 6 3 1 5 -13 5 -14 0 -19 -2 -12 -5z"/>
<path d="M818 253 c12 -2 32 -2 45 0 12 2 2 4 -23 4 -25 0 -35 -2 -22 -4z"/>
<path d="M923 253 c15 -2 39 -2 55 0 15 2 2 4 -28 4 -30 0 -43 -2 -27 -4z"/>
<path d="M1485 250 c-11 -5 -33 -9 -50 -10 -20 -1 -8 -6 35 -15 40 -8 72 -9
82 -4 9 5 38 9 64 9 26 0 45 3 42 6 -3 3 -24 5 -47 6 -23 0 -41 4 -41 9 0 11
-58 10 -85 -1z"/>
<path d="M1860 249 c0 -5 5 -7 10 -4 6 3 10 8 10 11 0 2 -4 4 -10 4 -5 0 -10
-5 -10 -11z"/>
<path d="M1817 243 c-16 -4 -15 -6 5 -23 22 -18 38 -18 38 0 0 5 -8 6 -17 3
-12 -5 -15 -2 -10 10 3 9 5 16 4 16 -1 -1 -10 -3 -20 -6z"/>
<path d="M1968 243 c7 -3 16 -2 19 1 4 3 -2 6 -13 5 -11 0 -14 -3 -6 -6z"/>
<path d="M2055 236 l-30 -14 30 3 c17 1 36 3 43 4 7 0 10 6 7 11 -8 13 -13 12
-50 -4z"/>
<path d="M2128 243 c6 -2 18 -2 25 0 6 3 1 5 -13 5 -14 0 -19 -2 -12 -5z"/>
<path d="M2188 243 c7 -3 16 -2 19 1 4 3 -2 6 -13 5 -11 0 -14 -3 -6 -6z"/>
<path d="M2278 243 c6 -2 18 -2 25 0 6 3 1 5 -13 5 -14 0 -19 -2 -12 -5z"/>
<path d="M2353 243 c9 -2 23 -2 30 0 6 3 -1 5 -18 5 -16 0 -22 -2 -12 -5z"/>
<path d="M2400 239 c0 -5 5 -7 10 -4 6 3 10 8 10 11 0 2 -4 4 -10 4 -5 0 -10
-5 -10 -11z"/>
<path d="M0 225 c0 -19 26 -36 44 -29 24 9 19 26 -6 19 -16 -6 -20 -4 -15 7 3
9 -1 15 -9 15 -8 0 -14 -6 -14 -12z"/>
<path d="M80 231 c0 -13 63 -26 67 -14 2 4 22 7 46 6 l42 -3 -35 11 c-26 8
-40 8 -54 -1 -13 -8 -21 -9 -29 -1 -13 13 -37 14 -37 2z"/>
<path d="M893 229 c-10 -3 -45 -4 -78 -2 -33 2 -71 1 -85 -3 -23 -5 -24 -6 -5
-16 14 -8 20 -8 23 0 5 16 20 15 37 -2 10 -10 26 -11 65 -5 60 9 80 4 75 -20
-3 -16 7 -19 77 -25 93 -8 117 -1 34 9 -31 4 -58 11 -61 15 -3 5 -14 6 -25 3
-16 -4 -19 -2 -14 11 4 11 1 16 -12 16 -9 0 -15 2 -12 5 8 9 88 -6 83 -15 -3
-4 6 -7 19 -6 23 1 23 2 7 17 -18 17 -99 29 -128 18z"/>
<path d="M1180 225 c0 -8 5 -15 10 -15 6 0 10 7 10 15 0 8 -4 15 -10 15 -5 0
-10 -7 -10 -15z"/>
<path d="M1055 220 c3 -5 8 -10 11 -10 2 0 4 5 4 10 0 6 -5 10 -11 10 -5 0 -7
-4 -4 -10z"/>
<path d="M1245 192 c-38 -13 -50 -22 -50 -37 0 -11 -4 -23 -10 -27 -6 -5 -5
-8 3 -8 18 0 15 -47 -4 -54 -26 -10 -30 -6 -9 11 16 12 16 14 3 10 -15 -5 -17
0 -13 42 3 43 1 50 -20 59 -17 8 -26 8 -31 1 -3 -6 -18 -8 -33 -5 l-26 6 25
-15 c14 -8 35 -14 48 -15 21 0 22 -4 23 -72 1 -40 1 -76 0 -81 0 -4 17 -7 39
-7 29 0 40 4 40 15 0 8 -4 15 -10 15 -5 0 -10 23 -10 50 0 28 4 50 10 50 5 0
7 6 5 13 -4 9 77 12 387 11 216 0 445 -4 508 -8 63 -4 161 -9 218 -10 102 -3
102 -3 102 20 0 17 -6 24 -20 24 -11 0 -20 5 -20 11 0 8 -4 8 -14 0 -9 -7 -45
-12 -88 -11 -40 0 -104 -2 -143 -5 -42 -3 -81 0 -98 6 -20 8 -31 8 -40 0 -8
-6 -16 -9 -19 -6 -2 3 -156 6 -340 8 -230 2 -340 6 -349 14 -11 8 -27 7 -64
-5z"/>
<path d="M105 180 c-122 -7 -104 -9 165 -16 102 -3 203 -1 225 4 34 8 28 9
-45 8 -47 0 -119 2 -160 5 -41 3 -124 2 -185 -1z"/>
<path d="M740 180 c-17 -5 4 -9 63 -15 48 -4 91 -5 94 -1 4 3 -11 6 -33 6 -21
0 -53 4 -69 8 -17 5 -41 6 -55 2z"/>
<path d="M575 170 c19 -8 73 -14 64 -6 -2 2 -22 6 -44 9 -28 5 -34 4 -20 -3z"/>
<path d="M2377 20 c3 -11 9 -20 14 -20 5 0 9 9 9 20 0 11 -6 20 -14 20 -9 0
-12 -7 -9 -20z"/>
</g>
</svg>
