<?xml version="1.0" standalone="no"?>
<!DOCTYPE svg PUBLIC "-//W3C//DTD SVG 20010904//EN"
 "http://www.w3.org/TR/2001/REC-SVG-20010904/DTD/svg10.dtd">
<svg version="1.0" xmlns="http://www.w3.org/2000/svg"
 width="468pt" height="571pt" viewBox="0 0 468 571"
 preserveAspectRatio="xMidYMid meet">
<metadata>
Created by potrace 1.8, written by Peter Selinger 2001-2007
</metadata>
<g transform="translate(0,571) scale(0.234000,-0.234000)"
fill="#000000" stroke="none">
<path d="M1180 1706 c0 -3 4 -16 9 -29 9 -23 4 -29 -59 -77 -38 -28 -86 -71
-107 -97 -20 -25 -39 -40 -41 -34 -2 7 1 18 7 25 6 7 9 20 6 28 -6 15 39 43
62 40 15 -3 103 86 103 104 0 9 -5 12 -10 9 -6 -4 -17 -2 -24 4 -14 12 -27 0
-58 -50 -9 -14 -45 -40 -81 -57 -68 -34 -92 -54 -167 -141 -25 -29 -58 -59
-73 -67 -36 -19 -49 -54 -49 -129 0 -47 7 -73 31 -122 17 -34 31 -66 31 -70 0
-4 -48 -59 -107 -121 -74 -77 -135 -130 -193 -167 -47 -30 -91 -55 -98 -55 -7
0 -39 -13 -71 -29 -65 -33 -118 -88 -102 -104 7 -7 14 -7 23 0 17 14 75 26
116 25 26 -1 35 4 41 22 9 23 132 86 170 86 10 0 40 21 67 47 27 25 72 60 99
77 130 82 174 114 221 163 27 29 57 53 66 53 8 0 35 13 59 30 24 16 48 30 52
30 24 0 167 95 192 127 46 57 112 121 153 147 43 27 52 37 81 89 38 68 19 98
-32 49 -18 -17 -44 -35 -60 -41 -18 -7 -29 -20 -33 -39 -4 -21 -19 -34 -62
-57 -31 -17 -76 -51 -100 -76 -73 -79 -246 -123 -325 -83 -18 9 -33 18 -35 19
-7 6 55 85 77 97 13 7 37 36 53 64 24 44 107 128 195 201 27 21 43 106 19 97
-8 -3 -17 -1 -21 5 -6 11 -25 15 -25 7z m-225 -276 c-10 -11 -21 -18 -23 -15
-3 3 3 12 14 20 27 20 30 18 9 -5z"/>
</g>
</svg>
