<?xml version="1.0" standalone="no"?>
<!DOCTYPE svg PUBLIC "-//W3C//DTD SVG 20010904//EN"
 "http://www.w3.org/TR/2001/REC-SVG-20010904/DTD/svg10.dtd">
<svg version="1.0" xmlns="http://www.w3.org/2000/svg"
 width="468pt" height="571pt" viewBox="0 0 468 571"
 preserveAspectRatio="xMidYMid meet">
<metadata>
Created by potrace 1.8, written by Peter Selinger 2001-2007
</metadata>
<g transform="translate(0,571) scale(0.234000,-0.234000)"
fill="#000000" stroke="none">
<path d="M70 1220 l0 -1150 930 0 930 0 0 1150 0 1150 -930 0 -930 0 0 -1150z
m1151 442 c9 -24 5 -30 -41 -73 -27 -26 -59 -51 -71 -54 -11 -4 -18 -9 -15
-12 3 -4 -11 -25 -32 -47 -21 -23 -49 -60 -62 -84 -13 -23 -32 -44 -41 -47
-23 -7 -79 -83 -79 -106 0 -30 64 -52 131 -44 104 12 188 48 239 102 25 26 71
62 103 78 44 23 57 35 57 53 0 15 9 26 28 33 15 6 42 24 59 41 38 37 51 32 33
-14 -20 -50 -49 -87 -79 -102 -28 -15 -105 -88 -178 -169 -38 -42 -166 -117
-200 -117 -7 0 -24 -11 -39 -25 -15 -14 -36 -25 -46 -25 -29 0 -13 16 24 25
18 4 27 9 20 12 -7 3 -26 0 -42 -5 -22 -8 -31 -7 -40 3 -10 12 -17 11 -43 -6
-18 -10 -43 -18 -57 -18 -17 1 -19 3 -7 6 9 2 17 8 17 12 0 11 -74 23 -94 15
-10 -4 -22 10 -41 51 -24 49 -26 64 -20 113 4 31 11 65 16 74 9 16 60 49 74
48 6 -1 59 67 88 113 10 15 23 27 29 27 6 0 21 8 32 19 12 10 32 22 46 25 l25
7 -25 -19 c-19 -16 -22 -23 -12 -34 15 -18 6 -29 -16 -20 -15 5 -15 4 -3 -11
11 -14 11 -20 0 -33 -14 -17 -58 -11 -71 9 -5 8 -8 8 -8 1 0 -6 9 -19 20 -29
11 -10 17 -22 14 -26 -3 -5 1 -9 8 -9 7 0 49 38 93 84 44 45 104 100 133 121
49 34 53 41 48 67 -7 35 11 28 25 -10z m-127 -51 c3 -5 0 -11 -7 -14 -8 -3
-14 1 -14 9 0 16 13 19 21 5z m-277 -567 c-3 -3 -12 -4 -19 -1 -8 3 -5 6 6 6
11 1 17 -2 13 -5z m108 -5 c10 -15 -1 -23 -20 -15 -9 3 -13 10 -10 16 8 13 22
13 30 -1z m-72 -29 c34 -7 57 -17 57 -24 0 -13 -189 -146 -207 -146 -4 0 -40
-29 -78 -65 -39 -36 -78 -65 -87 -65 -33 0 -166 -68 -172 -88 -5 -16 -18 -20
-71 -25 -36 -2 -72 -10 -80 -17 -27 -22 -30 -1 -4 26 28 31 117 84 140 84 8 0
58 27 109 60 86 55 153 116 235 210 35 40 75 69 90 64 6 -1 36 -8 68 -14z"/>
<path d="M759 1343 c-13 -16 -12 -17 4 -4 9 7 17 15 17 17 0 8 -8 3 -21 -13z"/>
</g>
</svg>
