<?xml version="1.0" encoding="UTF-8" standalone="no"?>
<!-- Created with Inkscape (http://www.inkscape.org/) -->
<svg
   xmlns:dc="http://purl.org/dc/elements/1.1/"
   xmlns:cc="http://creativecommons.org/ns#"
   xmlns:rdf="http://www.w3.org/1999/02/22-rdf-syntax-ns#"
   xmlns:svg="http://www.w3.org/2000/svg"
   xmlns="http://www.w3.org/2000/svg"
   xmlns:xlink="http://www.w3.org/1999/xlink"
   xmlns:sodipodi="http://sodipodi.sourceforge.net/DTD/sodipodi-0.dtd"
   xmlns:inkscape="http://www.inkscape.org/namespaces/inkscape"
   width="905.26758"
   height="633.25336"
   id="svg2"
   sodipodi:version="0.32"
   inkscape:version="0.46"
   inkscape:export-filename="C:\Users\Ari\Documents\Eos\logo.png"
   inkscape:export-xdpi="90"
   inkscape:export-ydpi="90"
   sodipodi:docname="Logo + details.svg"
   inkscape:output_extension="org.inkscape.output.svg.inkscape"
   version="1.0">
  <defs
     id="defs4">
    <inkscape:perspective
       sodipodi:type="inkscape:persp3d"
       inkscape:vp_x="0 : 256.0625 : 1"
       inkscape:vp_y="0 : 1000 : 0"
       inkscape:vp_z="905.375 : 256.0625 : 1"
       inkscape:persp3d-origin="452.6875 : 170.70833 : 1"
       id="perspective2510" />
    <linearGradient
       id="linearGradient3981">
      <stop
         style="stop-color:#ff9955;stop-opacity:1;"
         offset="0"
         id="stop3983" />
      <stop
         style="stop-color:#ff9955;stop-opacity:0;"
         offset="1"
         id="stop3985" />
    </linearGradient>
    <linearGradient
       inkscape:collect="always"
       xlink:href="#linearGradient3981"
       id="linearGradient3987"
       x1="300"
       y1="10"
       x2="0"
       y2="10"
       gradientUnits="userSpaceOnUse"
       gradientTransform="matrix(1.7681008,0,0,1.1810074,-393.26758,0)" />
    <linearGradient
       id="MyGradient"
       x1="0"
       y1="0"
       x2="1"
       y2="0">
      <stop
         offset="100%"
         stop-color="#ff9955"
         id="stop2992" />
      <stop
         offset="0%"
         stop-color="#ffffff"
         id="stop2994" />
    </linearGradient>
    <linearGradient
       inkscape:collect="always"
       id="linearGradient3349">
      <stop
         style="stop-color:#ffffff;stop-opacity:1;"
         offset="0"
         id="stop3351" />
      <stop
         style="stop-color:#ffffff;stop-opacity:0;"
         offset="1"
         id="stop3353" />
    </linearGradient>
    <linearGradient
       inkscape:collect="always"
       id="linearGradient3315">
      <stop
         style="stop-color:#ffff00;stop-opacity:1;"
         offset="0"
         id="stop3317" />
      <stop
         style="stop-color:#ffff00;stop-opacity:0;"
         offset="1"
         id="stop3319" />
    </linearGradient>
    <filter
       inkscape:collect="always"
       id="filter3711"
       x="-0.22641508"
       width="1.4528302"
       y="-0.22641508"
       height="1.4528302"
       color-interpolation-filters="sRGB">
      <feGaussianBlur
         inkscape:collect="always"
         stdDeviation="2.6954178"
         id="feGaussianBlur3713" />
    </filter>
    <radialGradient
       inkscape:collect="always"
       xlink:href="#linearGradient3315"
       id="radialGradient3254"
       gradientUnits="userSpaceOnUse"
       gradientTransform="matrix(0.8760331,-3.8310067e-7,3.794865e-7,0.8677686,6.1981603,65.10578)"
       cx="49.999996"
       cy="493.58667"
       fx="49.999996"
       fy="493.58667"
       r="14.285714" />
    <radialGradient
       inkscape:collect="always"
       xlink:href="#linearGradient3349"
       id="radialGradient3256"
       gradientUnits="userSpaceOnUse"
       cx="50"
       cy="492.36218"
       fx="50"
       fy="492.36218"
       r="14.285714" />
  </defs>
  <sodipodi:namedview
     id="base"
     pagecolor="#ffffff"
     bordercolor="#666666"
     borderopacity="1.0"
     gridtolerance="10000"
     guidetolerance="10"
     objecttolerance="10"
     inkscape:pageopacity="0.0"
     inkscape:pageshadow="2"
     inkscape:zoom="1.2408854"
     inkscape:cx="451.46738"
     inkscape:cy="347.79773"
     inkscape:document-units="px"
     inkscape:current-layer="layer1"
     showgrid="false"
     inkscape:window-width="1264"
     inkscape:window-height="988"
     inkscape:window-x="0"
     inkscape:window-y="0"
     showguides="true"
     inkscape:guide-bbox="true"
     inkscape:window-maximized="0"
     fit-margin-top="0"
     fit-margin-left="0"
     fit-margin-right="0"
     fit-margin-bottom="0" />
  <metadata
     id="metadata7">
    <rdf:RDF>
      <cc:Work
         rdf:about="">
        <dc:format>image/svg+xml</dc:format>
        <dc:type
           rdf:resource="http://purl.org/dc/dcmitype/StillImage" />
        <dc:title />
      </cc:Work>
    </rdf:RDF>
  </metadata>
  <g
     inkscape:label="Layer 1"
     inkscape:groupmode="layer"
     id="layer1"
     transform="translate(393.26758,28.577567)">
    <rect
       x="-393.26758"
       y="0"
       width="905.26758"
       height="604.67578"
       id="rect3197"
       style="fill:url(#linearGradient3987);fill-opacity:1;stroke:#000000;stroke-width:0" />
<!--
    <rect fill="url(#MyGradient)" stroke="black" stroke-width="0"  
          x="0" y="0" width="512" height="512"/>
    <rect
       y="0"
       x="0"
       height="512"
       width="512"
       id="rect3361"
       style="fill:#ff9955;fill-opacity:1;stroke:none" />
-->    <g
       id="g3246"
       transform="translate(-19.341028,-88.64638)">
      <g
         transform="translate(184.54565,-161.17523)"
         id="g5091">
        <g
           id="g3009">
          <path
             sodipodi:type="arc"
             style="fill:url(#radialGradient3254);fill-opacity:1;stroke:none;filter:url(#filter3711)"
             id="path2543"
             sodipodi:cx="50"
             sodipodi:cy="492.36218"
             sodipodi:rx="14.285714"
             sodipodi:ry="14.285714"
             d="M 64.285714,492.36218 A 14.285714,14.285714 0 1 1 35.714286,492.36218 A 14.285714,14.285714 0 1 1 64.285714,492.36218 z"
             transform="matrix(12.096495,0,0,12.097684,-432.81077,-5562.374)" />
        </g>
        <path
           transform="matrix(2.5548947,0,0,2.9028868,39.949747,-1029.1022)"
           d="M 64.285714,492.36218 A 14.285714,14.285714 0 1 1 35.714286,492.36218 A 14.285714,14.285714 0 1 1 64.285714,492.36218 z"
           sodipodi:ry="14.285714"
           sodipodi:rx="14.285714"
           sodipodi:cy="492.36218"
           sodipodi:cx="50"
           id="path3333"
           style="fill:url(#radialGradient3256);fill-opacity:1;stroke:none"
           sodipodi:type="arc" />
      </g>
      <g
         style="fill:#000000;stroke:none"
         transform="matrix(0.2925,0,0,-0.2925,-3.4753482,658.87397)"
         id="g3223">
        <path
           inkscape:connector-curvature="0"
           d="M 1180,1706 C 1180,1703 1184,1690 1189,1677 C 1198,1654 1193,1648 1130,1600 C 1092,1572 1044,1529 1023,1503 C 1003,1478 984,1463 982,1469 C 980,1476 983,1487 989,1494 C 995,1501 998,1514 995,1522 C 989,1537 1034,1565 1057,1562 C 1072,1559 1160,1648 1160,1666 C 1160,1675 1155,1678 1150,1675 C 1144,1671 1133,1673 1126,1679 C 1112,1691 1099,1679 1068,1629 C 1059,1615 1023,1589 987,1572 C 919,1538 895,1518 820,1431 C 795,1402 762,1372 747,1364 C 711,1345 698,1310 698,1235 C 698,1188 705,1162 729,1113 C 746,1079 760,1047 760,1043 C 760,1039 712,984 653,922 C 579,845 518,792 460,755 C 413,725 369,700 362,700 C 355,700 323,687 291,671 C 226,638 173,583 189,567 C 196,560 203,560 212,567 C 229,581 287,593 328,592 C 354,591 363,596 369,614 C 378,637 501,700 539,700 C 549,700 579,721 606,747 C 633,772 678,807 705,824 C 835,906 879,938 926,987 C 953,1016 983,1040 992,1040 C 1000,1040 1027,1053 1051,1070 C 1075,1086 1099,1100 1103,1100 C 1127,1100 1270,1195 1295,1227 C 1341,1284 1407,1348 1448,1374 C 1491,1401 1500,1411 1529,1463 C 1567,1531 1548,1561 1497,1512 C 1479,1495 1453,1477 1437,1471 C 1419,1464 1408,1451 1404,1432 C 1400,1411 1385,1398 1342,1375 C 1311,1358 1266,1324 1242,1299 C 1169,1220 996,1176 917,1216 C 899,1225 884,1234 882,1235 C 875,1241 937,1320 959,1332 C 972,1339 996,1368 1012,1396 C 1036,1440 1119,1524 1207,1597 C 1234,1618 1250,1703 1226,1694 C 1218,1691 1209,1693 1205,1699 C 1199,1710 1180,1714 1180,1706 z M 955,1430 C 945,1419 934,1412 932,1415 C 929,1418 935,1427 946,1435 C 973,1455 976,1453 955,1430 z"
           id="path3225" />
      </g>
    </g>
    <text
       xml:space="preserve"
       style="font-size:187.68896484px;font-style:normal;font-variant:normal;font-weight:normal;font-stretch:normal;text-align:start;line-height:100%;letter-spacing:0px;word-spacing:0px;writing-mode:lr-tb;text-anchor:start;fill:#000000;fill-opacity:1;stroke:none;font-family:Bradley Hand ITC;-inkscape-font-specification:Bradley Hand ITC"
       x="-296.94296"
       y="155.48593"
       id="text3017"
       sodipodi:linespacing="100%"
       transform="scale(0.8541096,1.1708099)"><tspan
         sodipodi:role="line"
         id="tspan3019"
         x="-296.94296"
         y="155.48593">EOS</tspan></text>
    <text
       xml:space="preserve"
       style="font-size:72px;font-style:normal;font-variant:normal;font-weight:normal;font-stretch:normal;text-align:start;line-height:100%;letter-spacing:0px;word-spacing:0px;writing-mode:lr-tb;text-anchor:start;fill:#000000;fill-opacity:1;stroke:none;font-family:Bradley Hand ITC;-inkscape-font-specification:Bradley Hand ITC"
       x="-247.44891"
       y="266.27026"
       id="text3021"
       sodipodi:linespacing="100%"><tspan
         sodipodi:role="line"
         id="tspan3023"
         x="-247.44891"
         y="266.27026">Dance School</tspan></text>
    <text
       xml:space="preserve"
       style="font-size:14px;font-style:normal;font-variant:normal;font-weight:normal;font-stretch:normal;text-align:start;line-height:100%;writing-mode:lr-tb;text-anchor:start;fill:#000000;fill-opacity:1;stroke:none;stroke-width:1px;stroke-linecap:butt;stroke-linejoin:miter;stroke-opacity:1;font-family:Calibri;-inkscape-font-specification:Calibri"
       x="248.97081"
       y="350.08139"
       id="text2570"
       sodipodi:linespacing="100%"><tspan
         sodipodi:role="line"
         id="tspan2572"
         x="248.97081"
         y="350.08139"
         style="font-size:22px;font-style:normal;font-variant:normal;font-weight:normal;font-stretch:normal;text-align:start;line-height:100%;writing-mode:lr-tb;text-anchor:start;font-family:Calibri;-inkscape-font-specification:Calibri">Arianna Casciaro </tspan><tspan
         sodipodi:role="line"
         x="248.97081"
         y="372.08139"
         id="tspan2580"
         style="font-size:22px;font-style:normal;font-variant:normal;font-weight:normal;font-stretch:normal;text-align:start;line-height:100%;writing-mode:lr-tb;text-anchor:start;font-family:Calibri;-inkscape-font-specification:Calibri">Tel. 07833 148510</tspan><tspan
         sodipodi:role="line"
         x="248.97081"
         y="394.08139"
         id="tspan2574"
         style="font-size:22px;font-style:normal;font-variant:normal;font-weight:normal;font-stretch:normal;text-align:start;line-height:100%;writing-mode:lr-tb;text-anchor:start;font-family:Calibri;-inkscape-font-specification:Calibri">Email: ari@eosdance.co.uk</tspan><tspan
         sodipodi:role="line"
         x="248.97081"
         y="416.08139"
         id="tspan2576"
         style="font-size:22px;font-style:normal;font-variant:normal;font-weight:normal;font-stretch:normal;text-align:start;line-height:100%;writing-mode:lr-tb;text-anchor:start;font-family:Calibri;-inkscape-font-specification:Calibri">          </tspan><tspan
         sodipodi:role="line"
         x="248.97081"
         y="438.08139"
         id="tspan2578" /></text>
  </g>
</svg>
