<?xml version="1.0" encoding="UTF-8" standalone="no"?>
<!-- Created with Inkscape (http://www.inkscape.org/) -->
<svg
   xmlns:dc="http://purl.org/dc/elements/1.1/"
   xmlns:cc="http://creativecommons.org/ns#"
   xmlns:rdf="http://www.w3.org/1999/02/22-rdf-syntax-ns#"
   xmlns:svg="http://www.w3.org/2000/svg"
   xmlns="http://www.w3.org/2000/svg"
   xmlns:xlink="http://www.w3.org/1999/xlink"
   xmlns:sodipodi="http://sodipodi.sourceforge.net/DTD/sodipodi-0.dtd"
   xmlns:inkscape="http://www.inkscape.org/namespaces/inkscape"
   width="905.375"
   height="512.125"
   id="svg2"
   sodipodi:version="0.32"
   inkscape:version="0.46"
   inkscape:export-filename="H:\sunset.png"
   inkscape:export-xdpi="90"
   inkscape:export-ydpi="90"
   sodipodi:docname="Logo.svg"
   inkscape:output_extension="org.inkscape.output.svg.inkscape"
   version="1.0">
  <defs
     id="defs4">
    <inkscape:perspective
       sodipodi:type="inkscape:persp3d"
       inkscape:vp_x="0 : 256.0625 : 1"
       inkscape:vp_y="0 : 1000 : 0"
       inkscape:vp_z="905.375 : 256.0625 : 1"
       inkscape:persp3d-origin="452.6875 : 170.70833 : 1"
       id="perspective2510" />
    <linearGradient
       id="linearGradient3981">
      <stop
         style="stop-color:#ff9955;stop-opacity:1;"
         offset="0"
         id="stop3983" />
      <stop
         style="stop-color:#ff9955;stop-opacity:0;"
         offset="1"
         id="stop3985" />
    </linearGradient>
    <linearGradient
       inkscape:collect="always"
       xlink:href="#linearGradient3981"
       id="linearGradient3987"
       x1="300"
       y1="10"
       x2="0"
       y2="10"
       gradientUnits="userSpaceOnUse"
       gradientTransform="matrix(1.7681008,0,0,1,-393.26758,0)" />
    <linearGradient
       id="MyGradient"
       x1="0"
       y1="0"
       x2="1"
       y2="0">
      <stop
         offset="100%"
         stop-color="#ff9955"
         id="stop2992" />
      <stop
         offset="0%"
         stop-color="#ffffff"
         id="stop2994" />
    </linearGradient>
    <linearGradient
       inkscape:collect="always"
       id="linearGradient3349">
      <stop
         style="stop-color:#ffffff;stop-opacity:1;"
         offset="0"
         id="stop3351" />
      <stop
         style="stop-color:#ffffff;stop-opacity:0;"
         offset="1"
         id="stop3353" />
    </linearGradient>
    <linearGradient
       inkscape:collect="always"
       id="linearGradient3315">
      <stop
         style="stop-color:#ffff00;stop-opacity:1;"
         offset="0"
         id="stop3317" />
      <stop
         style="stop-color:#ffff00;stop-opacity:0;"
         offset="1"
         id="stop3319" />
    </linearGradient>
    <filter
       inkscape:collect="always"
       id="filter3711"
       x="-0.22641508"
       width="1.4528302"
       y="-0.22641508"
       height="1.4528302"
       color-interpolation-filters="sRGB">
      <feGaussianBlur
         inkscape:collect="always"
         stdDeviation="2.6954178"
         id="feGaussianBlur3713" />
    </filter>
    <radialGradient
       inkscape:collect="always"
       xlink:href="#linearGradient3315"
       id="radialGradient3254"
       gradientUnits="userSpaceOnUse"
       gradientTransform="matrix(0.8760331,-3.8310067e-7,3.794865e-7,0.8677686,6.1981603,65.10578)"
       cx="49.999996"
       cy="493.58667"
       fx="49.999996"
       fy="493.58667"
       r="14.285714" />
    <radialGradient
       inkscape:collect="always"
       xlink:href="#linearGradient3349"
       id="radialGradient3256"
       gradientUnits="userSpaceOnUse"
       cx="50"
       cy="492.36218"
       fx="50"
       fy="492.36218"
       r="14.285714" />
  </defs>
  <sodipodi:namedview
     id="base"
     pagecolor="#ffffff"
     bordercolor="#666666"
     borderopacity="1.0"
     gridtolerance="10000"
     guidetolerance="10"
     objecttolerance="10"
     inkscape:pageopacity="0.0"
     inkscape:pageshadow="2"
     inkscape:zoom="1.2408854"
     inkscape:cx="451.46738"
     inkscape:cy="298.11338"
     inkscape:document-units="px"
     inkscape:current-layer="layer1"
     showgrid="false"
     inkscape:window-width="1264"
     inkscape:window-height="988"
     inkscape:window-x="0"
     inkscape:window-y="0"
     showguides="true"
     inkscape:guide-bbox="true"
     inkscape:window-maximized="0"
     fit-margin-top="0"
     fit-margin-left="0"
     fit-margin-right="0"
     fit-margin-bottom="0" />
  <metadata
     id="metadata7">
    <rdf:RDF>
      <cc:Work
         rdf:about="">
        <dc:format>image/svg+xml</dc:format>
        <dc:type
           rdf:resource="http://purl.org/dc/dcmitype/StillImage" />
        <dc:title />
      </cc:Work>
    </rdf:RDF>
  </metadata>
  <g
     inkscape:label="Layer 1"
     inkscape:groupmode="layer"
     id="layer1"
     transform="translate(393.3125,0.0625)">
    <rect
       x="-393.26758"
       y="0"
       width="905.26758"
       height="512"
       id="rect3197"
       style="fill:url(#linearGradient3987);fill-opacity:1;stroke:#000000;stroke-width:0" />
<!--
    <rect fill="url(#MyGradient)" stroke="black" stroke-width="0"  
          x="0" y="0" width="512" height="512"/>
    <rect
       y="0"
       x="0"
       height="512"
       width="512"
       id="rect3361"
       style="fill:#ff9955;fill-opacity:1;stroke:none" />
-->    <g
       id="g3246"
       transform="translate(-19.341028,-88.64638)">
      <g
         transform="translate(184.54565,-161.17523)"
         id="g5091">
        <g
           id="g3009">
          <path
             sodipodi:type="arc"
             style="fill:url(#radialGradient3254);fill-opacity:1;stroke:none;filter:url(#filter3711)"
             id="path2543"
             sodipodi:cx="50"
             sodipodi:cy="492.36218"
             sodipodi:rx="14.285714"
             sodipodi:ry="14.285714"
             d="m 64.285714,492.36218 c 0,7.88978 -6.395932,14.28572 -14.285714,14.28572 -7.889782,0 -14.285714,-6.39594 -14.285714,-14.28572 0,-7.88978 6.395932,-14.28571 14.285714,-14.28571 7.889782,0 14.285714,6.39593 14.285714,14.28571 z"
             transform="matrix(12.096495,0,0,12.097684,-432.81077,-5562.374)" />
        </g>
        <path
           transform="matrix(2.5548947,0,0,2.9028868,39.949747,-1029.1022)"
           d="m 64.285714,492.36218 c 0,7.88978 -6.395932,14.28572 -14.285714,14.28572 -7.889782,0 -14.285714,-6.39594 -14.285714,-14.28572 0,-7.88978 6.395932,-14.28571 14.285714,-14.28571 7.889782,0 14.285714,6.39593 14.285714,14.28571 z"
           sodipodi:ry="14.285714"
           sodipodi:rx="14.285714"
           sodipodi:cy="492.36218"
           sodipodi:cx="50"
           id="path3333"
           style="fill:url(#radialGradient3256);fill-opacity:1;stroke:none"
           sodipodi:type="arc" />
      </g>
      <g
         style="fill:#000000;stroke:none"
         transform="matrix(0.2925,0,0,-0.2925,-3.4753482,658.87397)"
         id="g3223">
        <path
           inkscape:connector-curvature="0"
           d="m 1180,1706 c 0,-3 4,-16 9,-29 9,-23 4,-29 -59,-77 -38,-28 -86,-71 -107,-97 -20,-25 -39,-40 -41,-34 -2,7 1,18 7,25 6,7 9,20 6,28 -6,15 39,43 62,40 15,-3 103,86 103,104 0,9 -5,12 -10,9 -6,-4 -17,-2 -24,4 -14,12 -27,0 -58,-50 -9,-14 -45,-40 -81,-57 -68,-34 -92,-54 -167,-141 -25,-29 -58,-59 -73,-67 -36,-19 -49,-54 -49,-129 0,-47 7,-73 31,-122 17,-34 31,-66 31,-70 0,-4 -48,-59 -107,-121 -74,-77 -135,-130 -193,-167 -47,-30 -91,-55 -98,-55 -7,0 -39,-13 -71,-29 -65,-33 -118,-88 -102,-104 7,-7 14,-7 23,0 17,14 75,26 116,25 26,-1 35,4 41,22 9,23 132,86 170,86 10,0 40,21 67,47 27,25 72,60 99,77 130,82 174,114 221,163 27,29 57,53 66,53 8,0 35,13 59,30 24,16 48,30 52,30 24,0 167,95 192,127 46,57 112,121 153,147 43,27 52,37 81,89 38,68 19,98 -32,49 -18,-17 -44,-35 -60,-41 -18,-7 -29,-20 -33,-39 -4,-21 -19,-34 -62,-57 -31,-17 -76,-51 -100,-76 -73,-79 -246,-123 -325,-83 -18,9 -33,18 -35,19 -7,6 55,85 77,97 13,7 37,36 53,64 24,44 107,128 195,201 27,21 43,106 19,97 -8,-3 -17,-1 -21,5 -6,11 -25,15 -25,7 z M 955,1430 c -10,-11 -21,-18 -23,-15 -3,3 3,12 14,20 27,20 30,18 9,-5 z"
           id="path3225" />
      </g>
    </g>
    <text
       xml:space="preserve"
       style="font-size:187.68896484px;font-style:normal;font-variant:normal;font-weight:normal;font-stretch:normal;text-align:start;line-height:100%;letter-spacing:0px;word-spacing:0px;writing-mode:lr-tb;text-anchor:start;fill:#000000;fill-opacity:1;stroke:none;font-family:Bradley Hand ITC;-inkscape-font-specification:Bradley Hand ITC"
       x="-296.94296"
       y="155.48593"
       id="text3017"
       sodipodi:linespacing="100%"
       transform="scale(0.8541096,1.1708099)"><tspan
         sodipodi:role="line"
         id="tspan3019"
         x="-296.94296"
         y="155.48593">EOS</tspan></text>
    <text
       xml:space="preserve"
       style="font-size:72px;font-style:normal;font-variant:normal;font-weight:normal;font-stretch:normal;text-align:start;line-height:100%;letter-spacing:0px;word-spacing:0px;writing-mode:lr;text-anchor:start;fill:#000000;fill-opacity:1;stroke:none;font-family:Bradley Hand ITC;-inkscape-font-specification:Bradley Hand ITC"
       x="-247.44891"
       y="266.27026"
       id="text3021"
       sodipodi:linespacing="100%"><tspan
         sodipodi:role="line"
         id="tspan3023"
         x="-247.44891"
         y="266.27026">Dance School</tspan></text>
  </g>
</svg>
