<?xml version="1.0" encoding="UTF-8" standalone="no"?>
<!-- Created with Inkscape (http://www.inkscape.org/) -->
<svg
   xmlns:dc="http://purl.org/dc/elements/1.1/"
   xmlns:cc="http://creativecommons.org/ns#"
   xmlns:rdf="http://www.w3.org/1999/02/22-rdf-syntax-ns#"
   xmlns:svg="http://www.w3.org/2000/svg"
   xmlns="http://www.w3.org/2000/svg"
   xmlns:sodipodi="http://sodipodi.sourceforge.net/DTD/sodipodi-0.dtd"
   xmlns:inkscape="http://www.inkscape.org/namespaces/inkscape"
   id="svg4562"
   sodipodi:version="0.32"
   inkscape:version="0.46"
   width="309.17593"
   height="330.41696"
   xml:space="preserve"
   sodipodi:docname="ryanlerch_simple_sun_motif_ok.svg"
   inkscape:output_extension="org.inkscape.output.svg.inkscape"
   version="1.0"
   inkscape:export-filename="C:\joanna\Gfx\drawings_vector\admin\ryanlerch_simple_sun_motif_ok.png"
   inkscape:export-xdpi="150"
   inkscape:export-ydpi="150"><metadata
     id="metadata4567"><rdf:RDF><cc:Work
         rdf:about=""><dc:format>image/svg+xml</dc:format><dc:type
           rdf:resource="http://purl.org/dc/dcmitype/StillImage" /></cc:Work></rdf:RDF></metadata><defs
     id="defs4565"><inkscape:perspective
       sodipodi:type="inkscape:persp3d"
       inkscape:vp_x="0 : 405 : 1"
       inkscape:vp_y="0 : 1000 : 0"
       inkscape:vp_z="540 : 405 : 1"
       inkscape:persp3d-origin="270 : 270 : 1"
       id="perspective51" /><clipPath
       clipPathUnits="userSpaceOnUse"
       id="clipPath4719"><path
         d="M 56.132,145.133 L 170.278,145.133 L 170.278,21.293 L 56.132,21.293 L 56.132,145.133 z"
         clip-rule="evenodd"
         id="path4721" /></clipPath><clipPath
       clipPathUnits="userSpaceOnUse"
       id="clipPath4725"><path
         d="M 0,648 L 432,648 L 432,0 L 0,0 L 0,648 z"
         id="path4727" /></clipPath><clipPath
       clipPathUnits="userSpaceOnUse"
       id="clipPath4731"><path
         d="M 0,648.06 L 432,648.06 L 432,0.06 L 0,0.06 L 0,648.06 z"
         id="path4733" /></clipPath><clipPath
       clipPathUnits="userSpaceOnUse"
       id="clipPath4741"><path
         d="M 56.132,145.133 L 170.278,145.133 L 170.278,21.293 L 56.132,21.293 L 56.132,145.133 z"
         clip-rule="evenodd"
         id="path4743" /></clipPath><clipPath
       clipPathUnits="userSpaceOnUse"
       id="clipPath4749"><path
         d="M 0,648 L 432,648 L 432,0 L 0,0 L 0,648 z"
         id="path4751" /></clipPath><clipPath
       clipPathUnits="userSpaceOnUse"
       id="clipPath4757"><path
         d="M 0,648.06 L 432,648.06 L 432,0.06 L 0,0.06 L 0,648.06 z"
         id="path4759" /></clipPath></defs><sodipodi:namedview
     inkscape:window-height="667"
     inkscape:window-width="640"
     inkscape:pageshadow="2"
     inkscape:pageopacity="0.0"
     guidetolerance="10.0"
     gridtolerance="10.0"
     objecttolerance="10.0"
     borderopacity="1.0"
     bordercolor="#666666"
     pagecolor="#ffffff"
     id="base"
     showgrid="false"
     inkscape:zoom="0.53950617"
     inkscape:cx="270"
     inkscape:cy="521.49018"
     inkscape:window-x="161"
     inkscape:window-y="154"
     inkscape:current-layer="g4569" /><g
     id="g4569"
     inkscape:groupmode="layer"
     inkscape:label="guide"
     transform="matrix(1.25,0,0,-1.25,-2.8758105,798.03929)"><path
       d="M 160.132,603.66 L 160.219,603.66 L 160.132,603.66"
       style="fill:#f9a749;fill-opacity:1;fill-rule:nonzero;stroke:none"
       id="path4595" /><g
       id="g5207"
       transform="matrix(2.30724,0,0,2.30724,-136.436,314.961)"><path
         id="path4735"
         style="fill:#f9a749;fill-opacity:1;fill-rule:nonzero;stroke:none"
         d="M 118.016,123.063 C 118.173,123.063 118.329,123.01 118.434,123.167 C 118.538,122.592 118.643,122.018 118.8,121.391 L 118.643,121.287 L 118.434,121.809 C 117.859,120.242 118.8,118.674 119.061,117.159 C 119.583,116.48 119.583,115.54 119.531,114.652 C 118.904,114.756 119.217,113.973 118.8,113.868 C 118.904,113.607 119.113,113.398 119.061,113.032 C 118.12,112.614 117.441,113.659 117.284,114.286 C 117.128,114.6 117.128,115.018 116.762,115.279 C 116.605,114.443 115.978,115.226 115.508,115.122 C 114.359,120.816 114.672,126.772 114.777,132.832 C 115.195,134.034 114.777,135.131 114.881,136.437 C 115.195,135.653 114.881,134.661 115.142,133.825 C 115.247,134.504 115.508,135.078 115.404,135.81 L 115.665,133.459 L 115.769,133.459 L 115.769,140.198 C 115.665,134.138 117.911,128.862 118.016,123.063" /><path
         id="path4761"
         style="fill:#f9a749;fill-opacity:1;fill-rule:nonzero;stroke:none"
         d="M 115.926,131.056 L 115.769,133.198 L 115.926,131.422 L 115.926,131.056" /><path
         id="path4763"
         style="fill:#f9a749;fill-opacity:1;fill-rule:nonzero;stroke:none"
         d="M 131.076,114.129 C 130.188,113.241 129.248,112.301 128.307,111.883 C 128.203,115.07 129.927,118.1 130.972,121.182 C 132.853,124.682 134.002,128.6 136.719,131.84 L 137.084,132.832 C 134.942,126.668 133.479,120.19 131.076,114.129" /><path
         id="path4765"
         style="fill:#f9a749;fill-opacity:1;fill-rule:nonzero;stroke:none"
         d="M 102.5,114.756 C 102.709,114.652 102.813,114.913 102.97,115.018 C 102.918,113.659 103.701,113.711 102.866,112.51 C 102.5,112.249 102.134,112.092 101.612,112.144 C 97.746,115.697 96.388,120.869 94.977,125.153 L 96.074,122.54 C 95.447,125.414 94.455,128.444 93.566,131.422 C 95.761,125.57 99.052,120.033 102.5,114.756" /><path
         id="path4767"
         style="fill:#f9a749;fill-opacity:1;fill-rule:nonzero;stroke:none"
         d="M 115.508,126.197 L 115.665,123.533 L 115.508,126.197" /><path
         id="path4769"
         style="fill:#f9a749;fill-opacity:1;fill-rule:nonzero;stroke:none"
         d="M 157.511,118.518 C 151.921,114.338 145.443,109.689 141.734,103.106 C 139.644,102.532 137.868,101.173 135.465,101.33 C 136.039,101.591 135.203,102.166 135.465,102.584 L 134.942,102.584 C 135.36,103.054 136.144,103.159 136.196,103.838 C 135.726,103.994 135.987,105.353 134.838,104.882 C 135.099,105.509 135.726,105.666 136.353,105.718 C 136.928,107.077 138.495,106.607 139.487,107.233 C 145.025,111.047 149.779,116.794 156.048,119.04 C 156.571,118.936 157.406,119.301 157.511,118.518" /><path
         id="path4771"
         style="fill:#f9a749;fill-opacity:1;fill-rule:nonzero;stroke:none"
         d="M 79.148,110.263 L 79.409,110.525 C 82.439,108.54 85.103,105.509 88.551,104.621 C 89.283,104.778 89.596,104.726 90.327,104.726 C 90.432,104.464 90.327,104.047 90.693,103.838 C 91.32,104.203 91.424,103.472 91.686,103.106 C 91.477,102.793 91.007,103.211 90.85,102.741 C 91.163,102.114 92.417,102.427 92.312,101.487 C 91.738,100.546 89.805,101.435 90.589,99.606 L 90.223,98.091 C 84.894,99.449 81.969,104.83 78.155,108.487 L 79.774,107.39 C 79.67,107.338 79.618,107.442 79.565,107.495 L 79.304,107.233 C 80.192,106.972 80.401,105.875 81.446,105.875 C 81.237,106.92 79.722,107.442 79.148,108.487 C 79.931,108.331 80.662,107.39 81.446,106.868 C 80.976,107.913 79.931,108.801 78.782,109.637 L 76.17,112.771 C 77.215,111.726 77.998,110.89 79.148,110.263" /><path
         id="path4773"
         style="fill:#f9a749;fill-opacity:1;fill-rule:nonzero;stroke:none"
         d="M 116.553,111.883 C 121.934,112.458 126.583,110.263 130.711,107.599 C 124.598,109.166 118.016,111.674 111.747,108.383 C 110.754,108.226 109.657,107.756 109.239,106.763 L 109.396,106.345 L 108.508,105.98 C 108.508,106.136 108.56,106.293 108.403,106.345 C 107.985,105.927 107.045,106.241 106.627,105.614 L 106.732,105.509 C 106.209,105.196 104.955,104.464 104.015,104.726 C 99.836,101.435 96.544,97.725 94.611,92.971 C 95.082,92.971 95.708,93.859 95.708,94.33 C 95.865,94.434 95.917,94.643 96.074,94.591 L 96.231,94.434 C 95.917,95.165 96.962,95.374 97.119,95.949 C 96.962,95.374 95.917,94.277 96.492,93.441 L 94.35,90.046 C 93.671,90.307 93.828,89.471 93.566,89.21 C 93.984,87.381 92.469,84.978 92.469,82.68 C 92.521,81.008 91.477,80.12 92.208,78.657 L 92.312,78.761 C 92.417,78.605 92.73,77.403 92.104,77.769 C 91.947,77.455 92.365,77.455 92.312,77.403 C 92.104,76.985 92.208,76.358 92.574,76.045 L 92.73,76.149 C 93.044,75.47 93.619,74.321 93.201,73.537 C 93.932,73.537 93.88,72.44 94.193,71.865 C 94.611,69.567 95.761,67.268 97.485,65.387 C 97.746,64.604 98.686,64.081 99.104,63.35 C 99.94,63.611 100.776,62.044 101.507,62.618 L 101.351,62.723 C 102.813,62.305 102.448,60.633 104.224,60.738 C 106.157,59.588 108.508,60.32 110.65,60.111 C 113.419,59.432 115.769,61.364 118.277,60.842 C 119.949,61.364 121.568,62.41 123.292,62.357 C 126.27,63.82 129.614,65.283 131.703,68.522 C 135.935,74.06 137.92,80.903 136.98,88.322 C 135.517,94.486 129.718,100.86 123.188,101.591 C 115.769,103.211 109.761,99.188 105.896,93.18 C 103.283,88.844 102.604,82 105.478,77.508 C 107.829,72.963 113.105,71.761 118.016,72.283 C 120.732,72.701 123.606,73.746 124.912,76.41 C 127.367,80.172 125.695,85.344 124.912,89.314 C 124.285,90.673 122.874,91.247 121.673,91.822 C 118.904,91.77 116.239,91.665 114.254,89.68 C 114.672,86.754 114.098,83.306 117.18,81.53 C 118.277,81.269 119.113,80.485 120.419,80.799 C 120.785,79.754 119.27,80.224 118.8,79.806 C 116.762,80.59 114.777,81.739 114.254,84.038 L 113.627,90.568 C 114.411,94.016 118.382,93.859 121.15,94.434 C 124.337,93.964 127.001,92.344 128.934,89.68 C 129.509,87.799 130.45,85.919 130.084,83.777 C 130.92,81.687 130.084,79.441 129.823,77.142 C 128.673,74.164 126.897,71.134 123.919,69.253 C 119.897,68.47 115.717,67.686 111.747,69.253 C 106.627,70.611 102.395,75.731 101.716,80.903 C 100.306,89.367 104.851,96.889 111.642,101.33 C 117.843,105.286 126.397,104.445 132.33,99.867 C 138.965,94.643 142.883,87.12 141.995,78.396 C 141.682,70.664 136.771,63.82 129.927,60.111 C 126.74,59.223 123.397,57.238 120.314,57.446 C 117.65,57.289 115.299,56.663 112.374,57.081 L 111.276,56.715 L 111.381,56.193 C 111.851,56.297 112.269,56.349 112.792,56.349 C 108.299,55.984 103.283,56.872 99.731,59.327 C 99.052,60.267 97.902,60.267 97.223,60.842 C 92.678,62.932 91.529,67.999 89.701,72.022 L 89.596,73.276 C 89.805,72.649 90.066,72.022 90.327,71.395 C 90.902,72.754 89.805,73.694 89.805,75.157 C 88.081,79.388 89.387,85.031 89.805,88.949 C 89.91,89.889 90.745,91.143 90.327,91.561 C 90.589,92.814 91.007,93.912 91.581,95.061 C 92.73,94.852 92.312,96.158 92.73,96.733 C 94.089,98.248 94.455,100.181 96.231,101.748 C 97.171,101.957 97.223,101.173 97.955,101.748 C 97.432,101.069 97.171,101.539 96.492,101.226 C 96.805,101.33 96.962,100.546 97.328,100.703 C 97.223,100.546 96.805,100.546 96.962,100.233 C 97.276,100.076 97.589,100.494 97.85,100.703 C 97.798,101.017 98.111,101.33 98.373,101.748 C 99.104,101.696 99.888,102.688 99.992,103.106 C 99.679,103.524 99.522,102.793 99.209,102.845 L 99.626,103.211 L 99.104,103.367 L 99.836,104.099 L 99.836,103.994 C 100.253,103.733 100.724,103.994 100.985,104.36 L 100.462,104.726 C 103.44,105.823 105.269,109.584 108.612,110.002 C 110.859,111.413 113.68,111.935 116.553,111.987 L 116.553,111.883" /><path
         id="path4775"
         style="fill:#f9a749;fill-opacity:1;fill-rule:nonzero;stroke:none"
         d="M 114.777,110.368 C 114.254,110.211 113.836,109.689 113.157,109.898 C 113.627,110.211 114.254,110.211 114.777,110.368" /><path
         id="path4777"
         style="fill:#f9a749;fill-opacity:1;fill-rule:nonzero;stroke:none"
         d="M 112.008,110.263 L 112.53,110.263 L 112.008,110.263" /><path
         id="path4779"
         style="fill:#f9a749;fill-opacity:1;fill-rule:nonzero;stroke:none"
         d="M 101.246,103.733 L 100.619,103.106 L 101.246,103.733" /><path
         id="path4781"
         style="fill:#f9a749;fill-opacity:1;fill-rule:nonzero;stroke:none"
         d="M 98.582,102.741 L 98.477,103.002 L 98.843,103.002 L 98.582,102.741" /><path
         id="path4783"
         style="fill:#f9a749;fill-opacity:1;fill-rule:nonzero;stroke:none"
         d="M 98.843,102.584 L 98.216,102.114 L 98.843,102.584" /><path
         id="path4785"
         style="fill:#f9a749;fill-opacity:1;fill-rule:nonzero;stroke:none"
         d="M 96.231,100.964 L 95.865,100.599 L 96.231,100.964" /><path
         id="path4787"
         style="fill:#f9a749;fill-opacity:1;fill-rule:nonzero;stroke:none"
         d="M 91.842,98.718 L 91.686,98.091 L 91.842,98.718" /><path
         id="path4789"
         style="fill:#f9a749;fill-opacity:1;fill-rule:nonzero;stroke:none"
         d="M 163.414,97.725 C 163.414,97.569 163.466,97.516 163.571,97.464 C 157.145,95.374 151.242,91.979 144.241,91.195 C 143.876,91.456 143.301,91.3 142.988,91.717 C 143.197,92.292 143.406,92.867 143.98,93.337 C 143.615,94.121 141.838,93.285 142.465,94.434 C 144.137,94.695 145.6,95.374 147.01,96.106 C 152.025,96.628 157.197,96.419 162.056,97.725 L 163.414,97.725" /><path
         id="path4791"
         style="fill:#f9a749;fill-opacity:1;fill-rule:nonzero;stroke:none"
         d="M 70.893,91.456 C 75.334,91.561 79.095,90.725 83.536,91.195 C 83.849,92.292 85.364,91.091 85.312,92.188 C 86.514,91.77 85.051,91.247 85.678,90.464 C 86.409,89.994 87.402,89.785 87.715,89.053 C 87.611,88.478 86.357,88.322 87.193,87.695 C 84.32,87.486 80.453,87.59 77.528,87.538 C 73.976,87.956 70.528,88.583 67.393,89.941 C 68.49,90.098 69.796,89.68 70.893,89.837 C 67.08,90.516 63.632,92.24 60.131,93.703 L 70.893,91.456" /><path
         id="path4793"
         style="fill:#f9a749;fill-opacity:1;fill-rule:nonzero;stroke:none"
         d="M 94.35,93.703 L 94.193,93.337 L 94.35,93.703" /><path
         id="path4795"
         style="fill:#f9a749;fill-opacity:1;fill-rule:nonzero;stroke:none"
         d="M 151.869,79.806 C 156.988,79.127 162.787,79.963 166.705,76.672 C 166.497,76.045 166.967,75.783 167.333,75.418 L 165.661,76.045 C 158.295,76.881 149.204,74.164 144.241,80.276 C 144.764,80.746 145.182,80.903 145.861,81.164 C 148.107,81.269 149.831,80.067 151.869,79.806" /><path
         id="path4797"
         style="fill:#f9a749;fill-opacity:1;fill-rule:nonzero;stroke:none"
         d="M 88.447,79.649 L 88.552,79.649 L 88.552,79.179 L 88.447,79.179 L 88.447,79.649 z" /><path
         id="path4799"
         style="fill:#f9a749;fill-opacity:1;fill-rule:nonzero;stroke:none"
         d="M 85.835,76.672 C 86.305,76.672 86.67,76.097 86.932,75.888 L 87.088,75.261 C 86.775,75.418 86.67,75 86.461,74.895 C 86.357,74.686 86.618,74.634 86.67,74.53 C 86.932,74.634 87.036,74.843 87.297,74.791 C 87.663,74.216 87.663,73.903 87.82,73.276 C 87.611,73.276 87.454,73.015 87.297,72.91 C 87.924,72.44 87.245,71.813 87.454,71.395 C 85.573,69.514 82.752,69.932 80.662,68.626 C 77.11,67.216 73.401,65.753 69.535,65.492 L 65.774,64.76 C 66.923,65.231 68.281,65.544 69.274,66.119 C 67.236,66.276 65.147,65.231 63.266,65.492 C 65.042,66.276 66.296,67.425 68.02,68.365 C 67.915,68.574 67.654,68.47 67.497,68.522 L 67.654,68.626 L 66.766,68.626 L 68.124,68.888 L 68.02,68.992 C 67.968,68.992 68.699,68.94 68.908,69.253 C 68.803,70.141 71.311,69.567 70.005,70.246 C 70.319,70.559 70.737,70.507 71.155,70.507 L 70.789,70.246 C 72.199,70.246 73.14,71.395 74.55,71.865 C 75.49,72.336 76.535,72.44 77.267,73.38 L 77.162,73.537 C 78.73,73.903 80.192,75.888 82.073,76.045 C 82.7,77.09 84.267,76.097 85.417,76.41 L 85.835,76.672" /><path
         id="path4801"
         style="fill:#f9a749;fill-opacity:1;fill-rule:nonzero;stroke:none"
         d="M 91.215,74.634 L 91.32,74.791 L 91.581,74.373 C 90.798,74.06 91.477,72.963 91.477,72.649 C 91.007,73.851 90.745,75 90.693,76.254 C 91.059,76.097 90.484,74.948 91.215,74.634" /><path
         id="path4803"
         style="fill:#f9a749;fill-opacity:1;fill-rule:nonzero;stroke:none"
         d="M 90.85,71.029 C 90.693,70.925 90.693,70.768 90.693,70.611 L 90.432,71.395 L 90.85,71.029" /><path
         id="path4805"
         style="fill:#f9a749;fill-opacity:1;fill-rule:nonzero;stroke:none"
         d="M 90.954,70.507 L 91.059,69.985 L 90.954,70.507" /><path
         id="path4807"
         style="fill:#f9a749;fill-opacity:1;fill-rule:nonzero;stroke:none"
         d="M 149.152,62.88 C 151.346,61.26 153.123,59.014 153.906,56.61 C 149.152,59.171 143.562,60.738 139.592,65.231 C 139.749,65.962 140.584,65.387 141.002,65.753 L 140.741,66.014 C 144.137,67.164 146.331,63.872 149.152,62.88" /><path
         id="path4809"
         style="fill:#f9a749;fill-opacity:1;fill-rule:nonzero;stroke:none"
         d="M 94.35,60.738 C 93.201,59.484 96.126,58.439 94.193,57.446 C 89.335,52.745 83.902,47.207 78.521,42.557 L 80.819,45.065 C 80.036,45.274 79.409,44.229 78.782,43.916 L 76.535,41.774 C 77.371,42.61 78.364,43.498 78.521,44.438 C 77.058,43.446 75.543,42.401 74.028,41.408 C 74.864,42.61 75.909,42.923 76.64,43.916 C 76.588,44.072 76.431,44.072 76.274,44.072 C 80.819,50.185 86.043,56.61 92.312,61.469 C 92.156,61.835 92.574,62.149 92.835,62.253 C 93.566,62.253 93.984,61.313 94.35,60.738" /><path
         id="path4811"
         style="fill:#f9a749;fill-opacity:1;fill-rule:nonzero;stroke:none"
         d="M 97.223,60.477 L 98.738,59.327 C 97.589,59.588 96.596,60.111 95.708,60.999 C 96.335,61.051 96.44,60.111 97.223,60.477" /><path
         id="path4813"
         style="fill:#f9a749;fill-opacity:1;fill-rule:nonzero;stroke:none"
         d="M 125.539,57.864 C 125.382,57.76 125.173,57.708 124.912,57.708 C 125.121,57.76 125.33,57.864 125.539,57.864" /><path
         id="path4815"
         style="fill:#f9a749;fill-opacity:1;fill-rule:nonzero;stroke:none"
         d="M 129.927,53.685 C 131.181,53.842 130.136,52.64 130.45,52.222 L 130.084,51.438 C 131.233,47.102 131.964,42.401 131.808,37.647 C 128.412,42.505 127.419,48.513 124.912,53.842 L 125.069,53.842 C 125.33,54.103 125.016,54.416 124.807,54.573 C 126.061,55.514 128.307,56.036 129.823,55.096 L 129.927,53.685" /><path
         id="path4817"
         style="fill:#f9a749;fill-opacity:1;fill-rule:nonzero;stroke:none"
         d="M 110.493,51.7 C 110.127,51.177 111.015,50.864 111.276,50.446 C 110.179,50.342 111.067,48.827 109.866,49.087 C 105.425,42.714 102.709,35.609 99.731,28.609 C 99,27.564 98.268,26.206 97.119,25.631 L 96.858,25.997 C 99.992,35.034 102.657,44.333 106.888,52.954 L 106.523,53.685 L 107.776,54.469 C 108.873,53.737 109.709,52.901 110.493,51.7" /></g></g></svg>